<?xml version="1.0" standalone="no"?>
<!DOCTYPE svg PUBLIC "-//W3C//DTD SVG 1.1//EN" "http://www.w3.org/Graphics/SVG/1.1/DTD/svg11.dtd" >
<svg xmlns="http://www.w3.org/2000/svg" xmlns:xlink="http://www.w3.org/1999/xlink" version="1.1">
<metadata>
Created by FontForge 20170731 at Thu Apr 14 20:26:05 2022
 By Aleksey,,,
Copyright 2021 The Spline Sans Project Authors (https://github.com/SorkinType/SplineSans)
</metadata>
<defs>
<font id="SplineSans-Medium" horiz-adv-x="0" >
  <font-face 
    font-family="Spline Sans Medium"
    font-weight="500"
    font-stretch="normal"
    units-per-em="2000"
    panose-1="0 0 0 0 0 0 0 0 0 0"
    ascent="1600"
    descent="-400"
    x-height="1091"
    cap-height="1454"
    bbox="-121 -525 2102 1982"
    underline-thickness="50"
    underline-position="-175"
    unicode-range="U+000D-FB02"
  />
<missing-glyph horiz-adv-x="1643" 
d="M280 -241v1769h1083v-1769h-1083zM390 -129h863v1557h-863v-1557z" />
    <glyph glyph-name="fi" unicode="fi" horiz-adv-x="1327" 
d="M228 0v791q0 35 14 61t39 34l-53 161v174q0 128 51 212.5t136.5 126t188.5 41.5q51 0 84 -3t59 -6l-1 -223q-22 8 -53.5 14t-77.5 6q-52 0 -86.5 -17t-51 -60t-16.5 -121v-1191h-233zM66 886v205h641v-205h-641zM932 0v1091h239l-3 -1091h-236zM1053 1253
q-65 0 -110 45.5t-45 116.5q0 70 45 114t110 44q63 0 108.5 -44t45.5 -114q0 -71 -45.5 -116.5t-108.5 -45.5z" />
    <glyph glyph-name="fl" unicode="fl" horiz-adv-x="1301" 
d="M228 0v791q0 35 14 61t39 34l-53 161v174q0 128 51 212.5t136.5 126t188.5 41.5q51 0 84 -3t59 -6l-1 -223q-22 8 -53.5 14t-77.5 6q-52 0 -86.5 -17t-51 -60t-16.5 -121v-1191h-233zM66 886v205h641v-205h-641zM910 0v1556h236v-1556h-236z" />
    <glyph glyph-name=".notdef" horiz-adv-x="1643" 
d="M280 -241v1769h1083v-1769h-1083zM390 -129h863v1557h-863v-1557z" />
    <glyph glyph-name=".null" 
 />
    <glyph glyph-name="nonmarkingreturn" horiz-adv-x="666" 
 />
    <glyph glyph-name="CR" unicode="&#xd;" horiz-adv-x="1200" 
 />
    <glyph glyph-name="space" unicode=" " horiz-adv-x="357" 
 />
    <glyph glyph-name="exclam" unicode="!" horiz-adv-x="562" 
d="M204 442l-35 639l-14 399h252l-14 -399l-35 -639h-154zM281 -15q-61 0 -104.5 43t-43.5 111q0 67 43 110t105 43q61 0 104.5 -43t43.5 -110q0 -69 -43.5 -111.5t-104.5 -42.5z" />
    <glyph glyph-name="quotedbl" unicode="&#x22;" horiz-adv-x="952" 
d="M77 767l81 755h246l-130 -755h-197zM533 767l81 755h246l-130 -755h-197z" />
    <glyph glyph-name="numbersign" unicode="#" horiz-adv-x="1130" 
d="M525 20l310 1404h185l-310 -1404h-185zM30 353v152h997v-152h-997zM110 20l310 1404h185l-310 -1404h-185zM83 909v152h1017v-152h-1017z" />
    <glyph glyph-name="dollar" unicode="$" horiz-adv-x="1152" 
d="M497 -168v197h199v-197h-199zM497 1424v197h199v-197h-199zM591 3q-150 0 -261 49.5t-174 149.5t-68 252h222q4 -83 41 -138t102 -83t152 -28q80 0 135 22t84 61.5t29 93.5t-29.5 94.5t-99 77.5t-188.5 78q-122 42 -213 100.5t-140.5 140.5t-49.5 194q0 128 56 214.5
t159.5 130.5t246.5 44q149 0 241.5 -45.5t141 -135t63.5 -221.5h-224q-9 67 -36 111.5t-74.5 66t-119.5 21.5q-108 0 -168 -44.5t-60 -132.5q0 -49 19 -89.5t79 -81t181 -88.5q92 -37 173 -71t141.5 -77t95 -107t35.5 -161q2 -128 -56.5 -217t-169 -135t-266.5 -46z" />
    <glyph glyph-name="percent" unicode="%" horiz-adv-x="1810" 
d="M432 0l742 1454h198l-742 -1454h-198zM466 858q73 0 118 55.5t45 172.5q0 110 -43.5 167t-122.5 57q-72 0 -117 -57.5t-45 -166.5q0 -113 45.5 -170.5t119.5 -57.5zM463 710q-151 0 -243.5 98.5t-92.5 284.5q0 117 44.5 201.5t121.5 130t173 45.5q156 0 246 -101t90 -276
q0 -125 -45 -210t-121.5 -129t-172.5 -44zM1346 133q73 0 118.5 55t45.5 172q0 111 -44 168t-123 57q-72 0 -116.5 -57.5t-44.5 -166.5q0 -114 45 -171t119 -57zM1343 -16q-151 0 -243 98.5t-92 284.5q0 118 44 202.5t121 129.5t173 45q156 0 246.5 -101t90.5 -275
q0 -125 -45.5 -210.5t-122 -129.5t-172.5 -44z" />
    <glyph glyph-name="ampersand" unicode="&#x26;" horiz-adv-x="1375" 
d="M666 -19q-148 0 -253.5 36.5t-172.5 97t-98.5 133.5t-31.5 146q0 102 36.5 170t96 108.5t130 60t137.5 22.5l126 37q87 28 129 81.5t55 119.5t13 130q0 37 -14 75t-51 64t-109 26q-74 0 -114.5 -28.5t-56 -69.5t-15.5 -78q0 -59 20 -107.5t58 -93.5t92 -95l45 -50
l380 -418l50 -47l258 -302h-264l-121 139l-54 63l-434 502l-49 51q-43 42 -92.5 95t-84.5 118t-35 142q0 110 54.5 193.5t149.5 130t216 46.5q113 0 203.5 -41.5t144 -120t53.5 -190.5q0 -73 -35 -141t-125.5 -122.5t-260.5 -91.5l-122 -26q-73 -18 -112 -66.5t-54 -111
t-15 -123.5q0 -67 34 -126.5t108 -96.5t191 -37q96 0 153.5 17t92.5 41t63 44l59 58q23 36 36.5 74.5t20 89t6.5 123.5l208 1q0 -92 -19 -174.5t-54.5 -149.5t-84.5 -113l-37 -29q-63 -94 -181 -140t-269 -46z" />
    <glyph glyph-name="quotesingle" unicode="'" horiz-adv-x="496" 
d="M77 767l81 755h246l-130 -755h-197z" />
    <glyph glyph-name="parenleft" unicode="(" horiz-adv-x="754" 
d="M391 -190q-145 178 -227 409t-82 489t82 489.5t227 408.5h219q-151 -191 -232.5 -420.5t-81.5 -477.5t81.5 -475t232.5 -423h-219z" />
    <glyph glyph-name="parenright" unicode=")" horiz-adv-x="754" 
d="M363 -190h-219q153 196 234 423t81 475t-81.5 477.5t-233.5 420.5h219q145 -177 227.5 -408.5t82.5 -489.5t-82.5 -489t-227.5 -409z" />
    <glyph glyph-name="asterisk" unicode="*" horiz-adv-x="1052" 
d="M409 849l66 281l-221 -195l-104 196l278 86l-273 88l100 194l227 -194l-73 281h233l-64 -281l221 194l103 -194l-273 -88l273 -86l-103 -196l-221 195l66 -281h-235z" />
    <glyph glyph-name="plus" unicode="+" horiz-adv-x="1121" 
d="M458 227v241q0 39 14 67.5t41 35.5l-55 63v112v346h206v-865h-206zM150 571v190h821v-190h-821z" />
    <glyph glyph-name="comma" unicode="," horiz-adv-x="488" 
d="M70 -416q17 57 30.5 131t22 164t8.5 192v207h245l-3 -156q-1 -124 -23.5 -231.5t-51 -186.5t-50.5 -120h-178z" />
    <glyph glyph-name="hyphen" unicode="-" horiz-adv-x="804" 
d="M150 563v196h504l-3 -196h-501z" />
    <glyph glyph-name="period" unicode="." horiz-adv-x="429" 
d="M214 -15q-64 0 -108.5 44.5t-44.5 116.5q0 70 44.5 115t108.5 45q65 0 109 -45t44 -115q0 -72 -44.5 -116.5t-108.5 -44.5z" />
    <glyph glyph-name="slash" unicode="/" horiz-adv-x="707" 
d="M31 -100l442 1686h203l-442 -1686h-203z" />
    <glyph glyph-name="zero" unicode="0" horiz-adv-x="1190" 
d="M597 -29q-154 0 -270.5 77.5t-181.5 246t-65 441.5q0 262 65 426.5t181.5 242.5t270.5 78q153 0 269 -78t180 -242.5t64 -426.5q0 -273 -64 -441.5t-180 -246t-269 -77.5zM597 188q80 0 141 51t96 170t35 325q0 196 -35 312.5t-96 168t-141 51.5q-79 0 -141.5 -52
t-98.5 -168t-36 -312q0 -206 36 -325t98 -170t142 -51z" />
    <glyph glyph-name="one" unicode="1" horiz-adv-x="824" 
d="M382 0l2 1266l60 188h181v-1454h-243zM80 1089v232q53 0 97.5 4.5t78.5 14.5q49 14 97 36.5t91 77.5l-47 -178q-22 -54 -42.5 -92t-63.5 -61q-39 -21 -79 -27.5t-132 -6.5z" />
    <glyph glyph-name="two" unicode="2" horiz-adv-x="1092" 
d="M31 0q60 74 119.5 147.5t117.5 146.5t114.5 145t111.5 144q76 97 139 175t101 153t38 164q0 100 -59 154t-158 52q-74 -1 -132.5 -31t-88 -99.5t-16.5 -186.5h-221q-21 181 31.5 296t165 169.5t271.5 54.5q138 0 236 -46t150 -135t51 -216q0 -113 -33 -198t-87.5 -161.5
t-120.5 -164.5q-53 -72 -108 -142.5t-107 -135.5t-98 -122q33 40 86.5 46t151.5 6h313v-215h-968z" />
    <glyph glyph-name="three" unicode="3" horiz-adv-x="1122" 
d="M554 -29q-103 0 -197 26t-165.5 82.5t-109.5 146t-30 217.5h232q-6 -122 59.5 -192t208.5 -70q74 0 136 23.5t99.5 72t37.5 125.5q0 135 -79 192t-198 57h-152v202h150q76 0 126 31.5t75 82.5t25 111q0 99 -62 151t-155 52q-98 0 -161.5 -56.5t-56.5 -188.5h-233
q-1 154 49 253.5t151 147t252 47.5q224 0 334.5 -110.5t110.5 -283.5q0 -73 -30 -144.5t-93.5 -123t-163.5 -67.5q163 -13 252.5 -101.5t89.5 -255.5q0 -138 -64.5 -233.5t-177.5 -144.5t-260 -49z" />
    <glyph glyph-name="four" unicode="4" horiz-adv-x="1115" 
d="M668 0v269h-689l574 1185h338l-4 -5l5 -975h189v-205h-188v-269h-225zM296 442q19 15 42.5 23.5t49.5 8.5h357q-51 0 -64 39t-13 84v373l10 286l-115 -265l-205 -437z" />
    <glyph glyph-name="five" unicode="5" horiz-adv-x="1128" 
d="M560 -29q-165 0 -276.5 66t-164 172.5t-42.5 229.5h231q-1 -61 24.5 -118.5t82.5 -94.5t154 -37q65 0 123 23.5t94 83t36 167.5q0 145 -66 209t-186 64q-84 0 -158 -23.5t-126 -66.5l-183 66l93 742h798v-220h-598l-93 -471q17 48 42 75t55 47q35 23 90 37.5t129 14.5
q84 0 163 -23.5t142.5 -77.5t101.5 -145t38 -227q0 -141 -62.5 -252.5t-175 -176t-266.5 -64.5z" />
    <glyph glyph-name="six" unicode="6" horiz-adv-x="1124" 
d="M586 -29q-142 0 -255.5 68.5t-179 202.5t-65.5 329q0 170 43.5 312.5t109.5 254.5t135 191.5t119 124.5h334q-49 -42 -113 -100t-130 -131t-123.5 -160t-95.5 -188t-45 -216l-2 31q15 53 42 103.5t69 91t100.5 64t134.5 23.5q131 0 222.5 -60.5t139 -171t47.5 -261.5
q0 -108 -37 -201t-102.5 -161.5t-154 -107t-193.5 -38.5zM584 183q74 0 131 38t89 104.5t32 149.5q0 134 -61.5 213.5t-187.5 79.5q-60 0 -108 -16.5t-84.5 -44.5t-63.5 -60q-5 -9 -6 -50.5t-1 -66.5q0 -57 14.5 -118t45.5 -113t80.5 -84t119.5 -32z" />
    <glyph glyph-name="seven" unicode="7" horiz-adv-x="1048" 
d="M246 0l418 1106q18 48 51.5 80.5t79.5 48.5t103 15l22 -14h-860v218h861h97l-513 -1454h-259z" />
    <glyph glyph-name="eight" unicode="8" horiz-adv-x="1216" 
d="M608 -29q-150 0 -265 48t-180.5 142t-65.5 231q0 173 89 261.5t255 103.5q-98 11 -162.5 60.5t-96 118.5t-31.5 140q0 189 112.5 298.5t344.5 109.5q234 0 345.5 -110.5t111.5 -297.5q0 -71 -31.5 -140.5t-95 -119t-161.5 -61.5q164 -13 253 -102.5t89 -260.5
q0 -137 -66 -231t-181 -142t-264 -48zM608 180q115 0 198 55t83 170q0 132 -80 189t-201 57t-201 -55.5t-80 -190.5q0 -115 82.5 -170t198.5 -55zM608 854q75 0 125.5 31.5t76.5 82t26 109.5q0 101 -64 152.5t-164 51.5q-103 0 -165.5 -51.5t-62.5 -152.5q0 -59 23 -109.5
t73 -82t132 -31.5z" />
    <glyph glyph-name="nine" unicode="9" horiz-adv-x="1125" 
d="M297 0q50 42 114.5 101t131 134.5t124.5 164t96 189t44 210.5l10 2q-17 -62 -42 -117.5t-62.5 -98t-93.5 -66.5t-137 -24q-123 0 -220.5 62t-154 173t-56.5 256q0 116 38.5 208t106.5 156.5t157 98.5t190 34q139 0 251.5 -64.5t178.5 -197t66 -337.5q0 -170 -43 -313
t-108.5 -255t-134.5 -191.5t-120 -124.5h-336zM536 697q60 0 108 16t85 46.5t63 73.5q5 9 5.5 40t0.5 63q0 88 -27.5 164t-84 124t-144.5 48q-75 0 -132.5 -35.5t-89.5 -99t-32 -146.5q0 -125 61.5 -209.5t186.5 -84.5z" />
    <glyph glyph-name="colon" unicode=":" horiz-adv-x="546" 
d="M273 735q-64 0 -108.5 44.5t-44.5 116.5q0 70 44.5 115t108.5 45t108.5 -45t44.5 -115q0 -72 -44.5 -116.5t-108.5 -44.5zM273 -15q-64 0 -108.5 44.5t-44.5 116.5q0 70 44.5 115t108.5 45t108.5 -45t44.5 -115q0 -72 -44.5 -116.5t-108.5 -44.5z" />
    <glyph glyph-name="semicolon" unicode=";" horiz-adv-x="473" 
d="M259 735q-64 0 -108.5 44.5t-44.5 116.5q0 70 44.5 115t108.5 45t108.5 -45t44.5 -115q0 -72 -44.5 -116.5t-108.5 -44.5zM70 -416q17 57 30.5 131t22 164t8.5 192v207h245l-3 -156q-2 -124 -24 -231.5t-50.5 -186.5t-50.5 -120h-178z" />
    <glyph glyph-name="less" unicode="&#x3c;" horiz-adv-x="1031" 
d="M840 221l-756 339v212l756 340v-218l-392 -162l-168 -64v-4l168 -63l392 -162v-218z" />
    <glyph glyph-name="equal" unicode="=" horiz-adv-x="1129" 
d="M180 786v189h769v-189h-769zM180 362v189h769v-189h-769z" />
    <glyph glyph-name="greater" unicode="&#x3e;" horiz-adv-x="1101" 
d="M195 221v218l393 162l167 63v4l-167 64l-393 162v218l756 -340v-212z" />
    <glyph glyph-name="question" unicode="?" horiz-adv-x="1008" 
d="M371 439q-8 15 -12 41.5t-4 67.5q0 90 36.5 148t91 98t108 78.5t90 88.5t36.5 128q0 81 -50.5 129t-163.5 48q-123 0 -170.5 -67t-45.5 -205l-218 1q-13 125 24.5 236.5t138 181t274.5 69.5q160 0 257 -58.5t140.5 -150t43.5 -190.5q0 -106 -38 -174.5t-94.5 -114
t-113.5 -83t-95 -81.5t-38 -111q0 -18 1 -41t7 -39h-205zM495 -15q-62 0 -105 42.5t-43 110.5t43 111t106 43q62 0 104.5 -43t42.5 -110q0 -69 -43.5 -111.5t-104.5 -42.5z" />
    <glyph glyph-name="at" unicode="@" horiz-adv-x="1772" 
d="M888 -203q-228 0 -403 101.5t-274 287t-99 436.5q0 189 63.5 344t175 266.5t258 171t311.5 59.5q225 0 391 -87t257.5 -241t91.5 -356q0 -185 -57 -318t-156 -204t-225 -71q-85 0 -136 65.5t-36 178.5q5 37 8 58t11 75h-6q-15 -58 -35 -121.5t-51.5 -119.5t-80.5 -91.5
t-125 -35.5q-75 0 -137.5 45.5t-99.5 130.5t-37 205q0 106 34 197t94.5 160.5t142 108.5t174.5 39q59 0 109.5 -12.5t82.5 -33.5h136q-5 -42 -13 -108t-17 -140.5t-16.5 -143t-12 -117t-4.5 -62.5q0 -51 14 -77t42 -26q64 0 115.5 52.5t81 144.5t29.5 211q0 251 -147 394.5
t-415 143.5q-181 0 -326 -81.5t-229.5 -237.5t-84.5 -378q0 -208 74.5 -355t211 -225t319.5 -78q109 0 180.5 15t118 36t78.5 40l8 -155q-55 -37 -148.5 -64t-240.5 -27zM824 388q35 0 76 40.5t78 108.5t61 149.5t25 162.5q-14 18 -42.5 33t-86.5 15q-59 0 -109.5 -42.5
t-81 -113t-30.5 -155.5q0 -73 16 -116.5t41 -62.5t53 -19z" />
    <glyph glyph-name="A" unicode="A" horiz-adv-x="1324" 
d="M28 0l479 1454h310l479 -1454h-251l-133 437l135 -95h-718l74 198h583l-75 -100l-157 510l-89 329h-8l-87 -329l-292 -950h-250z" />
    <glyph glyph-name="B" unicode="B" horiz-adv-x="1246" 
d="M161 0v1454h488q159 0 260 -49t149.5 -130.5t48.5 -182.5q0 -131 -73.5 -211.5t-201.5 -90.5q102 -7 173.5 -44.5t109 -108.5t37.5 -180q0 -156 -63.5 -257.5t-174.5 -150.5t-254 -49h-499zM391 217h222q148 0 219.5 46t71.5 183q0 103 -39 147.5t-105 56t-147 11.5h-222
v-444zM391 853h215q97 0 152 24.5t77.5 72.5t22.5 119q1 95 -69.5 132.5t-183.5 37.5h-214v-386z" />
    <glyph glyph-name="C" unicode="C" horiz-adv-x="1370" 
d="M742 -21q-185 0 -331 85t-230.5 252t-84.5 414q0 232 82.5 400.5t229.5 259.5t341 91q139 0 261.5 -54t199.5 -163.5t81 -277.5h-241q-6 100 -51 161t-113.5 88t-147.5 27q-108 0 -198.5 -61t-146 -180t-55.5 -292q0 -200 57 -316t150 -165.5t200 -49.5q113 0 178 35
t94.5 93.5t34.5 126.5h241q-8 -149 -73.5 -255t-185.5 -162.5t-292 -56.5z" />
    <glyph glyph-name="D" unicode="D" horiz-adv-x="1354" 
d="M368 0v228h232q122 0 222 52t159.5 164t59.5 291q0 187 -59 296.5t-159 157t-224 47.5h-239v218h245q201 0 354.5 -76t241 -234.5t87.5 -406.5q0 -242 -91 -406t-245 -247.5t-345 -83.5h-239zM161 0v1454h239v-1454h-239z" />
    <glyph glyph-name="E" unicode="E" horiz-adv-x="1132" 
d="M161 0v1454h885v-220h-750l99 108v-549l-99 69h695v-217h-654l58 76v-608l-99 109h761v-222h-896z" />
    <glyph glyph-name="F" unicode="F" horiz-adv-x="1084" 
d="M161 0v1454h836v-220h-713l112 123v-611l-112 78h652v-214h-581l41 76v-686h-235z" />
    <glyph glyph-name="G" unicode="G" horiz-adv-x="1427" 
d="M771 -20q-205 0 -358 91.5t-236.5 260t-83.5 400.5q0 231 82.5 399t231.5 259t346 91q135 0 250 -49.5t191 -151t95 -258.5h-239q-7 50 -31.5 93.5t-63 76.5t-91 51.5t-116.5 18.5q-94 0 -170.5 -36t-130.5 -104.5t-83 -167t-29 -223.5q0 -167 52 -286t149.5 -182.5
t235.5 -63.5q57 0 114.5 10t108 30t83.5 50v274h-301v210h525l-2 -606q-108 -83 -240.5 -135t-288.5 -52z" />
    <glyph glyph-name="H" unicode="H" horiz-adv-x="1370" 
d="M973 0v1454h237v-1454h-237zM161 0v1454h236v-1454h-236zM326 640v212h686l-3 -212h-683z" />
    <glyph glyph-name="I" unicode="I" horiz-adv-x="549" 
d="M154 0v1454h241v-1454h-241z" />
    <glyph glyph-name="J" unicode="J" horiz-adv-x="1022" 
d="M463 -30q-117 0 -216.5 38.5t-160 133.5t-64.5 265h225q-1 -115 52 -168t159 -53q61 0 105 18t67 73.5t23 168.5v1008h242v-988q0 -175 -48.5 -284t-144.5 -160.5t-239 -51.5z" />
    <glyph glyph-name="K" unicode="K" horiz-adv-x="1257" 
d="M392 403l-32 230l177 281l383 540h296l-503 -672l-76 -63zM161 0v1454h239v-1454h-239zM964 0l-430 776l185 117l521 -893h-276z" />
    <glyph glyph-name="L" unicode="L" horiz-adv-x="1070" 
d="M161 0v1454h238v-1356l-115 126h721v-224h-844z" />
    <glyph glyph-name="M" unicode="M" horiz-adv-x="1702" 
d="M161 0v1454h374l225 -722l90 -306h5l93 306l218 722h376v-1454h-234v834l15 379h-8l-117 -366l-280 -847h-122l-291 847l-117 366h-7l13 -379v-834h-233z" />
    <glyph glyph-name="N" unicode="N" horiz-adv-x="1414" 
d="M161 0v1454h264l492 -880l132 -305h8l-38 323v862h235v-1454h-265l-487 872l-128 298h-9l31 -339v-831h-235z" />
    <glyph glyph-name="O" unicode="O" horiz-adv-x="1466" 
d="M732 -30q-177 0 -322 88t-231 259t-86 419q0 240 82 407t226.5 253.5t331.5 86.5q182 0 327 -86.5t229 -253.5t84 -407q0 -248 -83.5 -419t-228.5 -259t-329 -88zM732 188q112 0 202 58.5t143.5 179t53.5 308.5q0 178 -53 296t-143 176.5t-202 58.5q-107 0 -197.5 -58.5
t-145.5 -176.5t-55 -296q0 -141 31.5 -244t87 -170t127 -99.5t151.5 -32.5z" />
    <glyph glyph-name="P" unicode="P" horiz-adv-x="1200" 
d="M488 496q-31 0 -62 22t-32 64l-67 69l70 56h255q88 0 146.5 29.5t88 90.5t29.5 155q0 149 -74.5 202.5t-205.5 53.5h-245l-86 216h109.5h121.5h87q267 0 400 -109.5t133 -356.5q0 -94 -26.5 -181.5t-86.5 -157.5t-162 -111.5t-252 -41.5h-141zM161 0v1454h236v-1454h-236
z" />
    <glyph glyph-name="Q" unicode="Q" horiz-adv-x="1466" 
d="M732 -20q-177 0 -322 88t-231 256.5t-86 411.5q0 240 82 407t226.5 253.5t331.5 86.5q182 0 327 -86.5t229 -253.5t84 -407q0 -243 -83.5 -411.5t-228.5 -256.5t-329 -88zM1002 -316l-177 368h202q20 0 46 -15t45 -49l175 -304h-291zM732 199q112 0 202 57.5t143.5 176
t53.5 301.5q0 178 -53 296t-143 176t-202 58q-106 0 -197 -58t-146 -176t-55 -296q0 -137 32 -237.5t87.5 -167t126.5 -98.5t151 -32z" />
    <glyph glyph-name="R" unicode="R" horiz-adv-x="1246" 
d="M933 0l-343 572h-219l-67 15l29 160v32h239q89 0 142 29t76.5 83t23.5 129q0 87 -31.5 132.5t-85.5 62.5t-121 17l-187 1l-8 55l-78 166h89h90.5h106.5q139 0 244 -43.5t164 -135t59 -235.5q0 -96 -35.5 -186.5t-109.5 -156t-190 -88.5l-15 15q43 0 71 -6.5t52 -28.5
t53 -67l338 -522h-287zM161 0v1454h234v-1454h-234z" />
    <glyph glyph-name="S" unicode="S" horiz-adv-x="1151" 
d="M590 -20q-160 0 -277 51t-182 153.5t-68 257.5h228q4 -84 41.5 -141t106 -85t165.5 -28q93 0 152 22t87 62.5t28 95.5q0 60 -34 101.5t-107.5 78t-194.5 78.5q-125 43 -218.5 105t-145 147.5t-51.5 200.5q0 194 127 296t348 102q153 0 248 -47t143.5 -138.5t64.5 -226.5
h-229q-9 69 -37 114t-76.5 67.5t-121.5 22.5q-113 0 -174 -45.5t-61 -135.5q0 -51 19.5 -93t81 -83t185.5 -90q96 -38 180.5 -72.5t149 -79.5t101.5 -112t38 -170q2 -198 -129.5 -303t-387.5 -105z" />
    <glyph glyph-name="T" unicode="T" horiz-adv-x="1117" 
d="M439 0v1146q0 36 14.5 58t41.5 30h-427v220h981v-220h-370v-1234h-240z" />
    <glyph glyph-name="U" unicode="U" horiz-adv-x="1346" 
d="M679 -20q-161 0 -282.5 64.5t-188.5 194.5t-67 326v889h242v-886q0 -104 21.5 -175t61 -114.5t94 -62.5t120.5 -19q61 0 112.5 19t90 62t60 114.5t21.5 175.5v886h241v-889q0 -196 -67.5 -326t-186.5 -194.5t-272 -64.5z" />
    <glyph glyph-name="V" unicode="V" horiz-adv-x="1224" 
d="M458 0l-429 1454h271l184 -706l120 -522h16l120 522l184 706h271l-428 -1454h-309z" />
    <glyph glyph-name="W" unicode="W" horiz-adv-x="1900" 
d="M401 0l-372 1454h259l144 -691l112 -564h10l106 564l143 691h276l144 -691l106 -564h10l120 564l152 691h260l-390 -1454h-308l-168 754l-61 364h-5l-62 -364l-167 -754h-309z" />
    <glyph glyph-name="X" unicode="X" horiz-adv-x="1218" 
d="M15 0l439 724l-438 730h295l151 -303l149 -266l144 264l148 305h299l-437 -730l438 -724h-299l-150 298l-148 273l-142 -275l-155 -296h-294z" />
    <glyph glyph-name="Y" unicode="Y" horiz-adv-x="1271" 
d="M520 466l-502 988h277l181 -392l149 -333h18l151 332l183 393h276l-501 -988h-232zM516 0v598h240v-598h-240z" />
    <glyph glyph-name="Z" unicode="Z" horiz-adv-x="1203" 
d="M54 0l618 1098l116 148l-131 -6h-520v214h1012l-621 -1109l-111 -147l203 7h497v-205h-1063z" />
    <glyph glyph-name="bracketleft" unicode="[" horiz-adv-x="668" 
d="M91 -181v1777h474v-184h-349l82 97v-1603l-82 97h349v-184h-474z" />
    <glyph glyph-name="backslash" unicode="\" horiz-adv-x="707" 
d="M676 -100h-203l-442 1686h203z" />
    <glyph glyph-name="bracketright" unicode="]" horiz-adv-x="668" 
d="M577 -181h-473v184h348l-81 -97v1603l81 -97h-348v184h473v-1777z" />
    <glyph glyph-name="asciicircum" unicode="^" horiz-adv-x="1072" 
d="M89 597l319 857h255l320 -857h-245l-163 500l-36 139h-8l-34 -139l-164 -500h-244z" />
    <glyph glyph-name="underscore" unicode="_" horiz-adv-x="769" 
d="M-2 -227v206h773v-206h-773z" />
    <glyph glyph-name="grave" unicode="`" horiz-adv-x="751" 
d="M385 1277l-235 279h253l198 -279h-216z" />
    <glyph glyph-name="a" unicode="a" horiz-adv-x="1104" 
d="M421 -12q-100 0 -177 37.5t-120.5 104.5t-43.5 155q0 97 35 160t101.5 100.5t156.5 57.5q64 14 135.5 23t132.5 14.5t94 7.5v44q0 111 -44.5 166.5t-150.5 55.5q-68 0 -114 -16.5t-69.5 -62t-25.5 -132.5h-215q-11 141 40.5 231.5t154 134t242.5 43.5q83 0 156.5 -18.5
t130.5 -63t90 -121.5t33 -195v-714h-231l3 245q-19 -111 -96 -184t-218 -73zM484 166q52 0 105.5 18t94 52t51.5 80v200q-40 -4 -94.5 -14t-93.5 -18q-112 -23 -161.5 -60.5t-49.5 -114.5q0 -44 20.5 -76.5t54.5 -49.5t73 -17z" />
    <glyph glyph-name="b" unicode="b" horiz-adv-x="1185" 
d="M677 -12q-108 0 -172 36t-94 84.5t-38 85.5l-52 47l65 28q7 -25 31.5 -48.5t70 -38t112.5 -14.5q112 0 185 87t73 289q0 182 -68.5 274.5t-174.5 92.5q-75 0 -123.5 -21t-73.5 -49t-32 -50l-15 14l16 38q5 76 38.5 136.5t100 96.5t168.5 36q132 0 222 -70.5t136.5 -193
t46.5 -282.5q0 -145 -35.5 -253.5t-96 -180.5t-135.5 -108t-155 -36zM153 0l-1 1556h235v-495l1 -815l17 -38l-19 -39l-10 -169h-223z" />
    <glyph glyph-name="c" unicode="c" horiz-adv-x="1073" 
d="M595 -19q-162 0 -278 71.5t-177.5 199.5t-61.5 297q0 178 63 304t175 192.5t258 66.5q145 0 243.5 -53.5t147.5 -143t45 -199.5h-227q-1 44 -14 80.5t-38.5 62t-64.5 39.5t-91 14q-140 1 -198.5 -96t-58.5 -262q0 -188 70.5 -280.5t220.5 -93.5q35 0 76.5 20.5t71 59
t28.5 92.5h225q4 -115 -54.5 -198t-154.5 -128t-206 -45z" />
    <glyph glyph-name="d" unicode="d" horiz-adv-x="1194" 
d="M513 -12q-141 0 -236 73t-143 200.5t-48 290.5q0 185 62.5 309.5t161.5 187.5t211 63q109 0 171 -36t91 -84t37 -86l69 -9l-82 -85q-8 25 -31.5 48.5t-67 38.5t-112.5 15q-117 0 -193 -86t-76 -281q0 -175 69.5 -271t181.5 -96q76 0 123.5 25t73.5 57.5t32 53.5l10 -34
l-10 -36q-5 -32 -20 -75.5t-47.5 -85.5t-87.5 -69.5t-139 -27.5zM808 0l-1 1556h235v-1556h-234z" />
    <glyph glyph-name="e" unicode="e" horiz-adv-x="1106" 
d="M584 -15q-158 0 -273.5 64.5t-177.5 190.5t-62 309q0 178 65.5 304.5t180.5 193t264 66.5q147 0 251.5 -58t159.5 -171.5t55 -278.5q0 -32 -1.5 -53t-3.5 -50h-736q9 -167 82 -245.5t179 -78.5q99 0 151.5 42.5t67.5 95.5h228q-9 -105 -66 -179.5t-150.5 -113
t-213.5 -38.5zM414 663h398q-3 120 -58 185.5t-181 65.5q-131 0 -195 -87.5t-72 -241.5q8 45 34 61.5t74 16.5z" />
    <glyph glyph-name="f" unicode="f" horiz-adv-x="757" 
d="M228 0v791q0 35 14 61t39 34l-53 161v174q0 128 51 212.5t136.5 126t188.5 41.5q51 0 84 -3t59 -6l-1 -223q-22 8 -53.5 14t-77.5 6q-52 0 -86.5 -17t-51 -60t-16.5 -121v-1191h-233zM66 886v205h641v-205h-641z" />
    <glyph glyph-name="g" unicode="g" horiz-adv-x="1170" 
d="M588 -446q-133 0 -239.5 43.5t-164.5 132.5t-45 223h228q-1 -57 14 -102.5t63 -72.5t146 -27q85 0 130.5 24t61.5 73t16 127v296q-9 -47 -39 -99t-93 -87.5t-170 -35.5q-97 0 -173 43t-129 116t-80.5 164.5t-27.5 189.5q0 182 60.5 304t156.5 184t203 62q95 0 153.5 -26
t91.5 -63t48 -73l1 141h231v-1114q0 -148 -57.5 -241t-157.5 -136.5t-228 -45.5zM577 238q75 0 121 20.5t70 49t30 49.5v457q-10 24 -37 47t-71 38t-108 15q-111 0 -182 -82t-71 -257q0 -159 70.5 -248t177.5 -89z" />
    <glyph glyph-name="h" unicode="h" horiz-adv-x="1174" 
d="M152 0v1556h234v-465l-16 -311l9 -88l-12 71q12 90 46.5 170.5t105 130.5t189.5 50q155 0 239.5 -96.5t84.5 -294.5v-723h-237v641q0 139 -41 199t-147 60q-73 0 -131.5 -48.5t-88.5 -107.5v-744h-235z" />
    <glyph glyph-name="i" unicode="i" horiz-adv-x="549" 
d="M154 0v1091h239l-3 -1091h-236zM275 1253q-65 0 -110 45.5t-45 116.5q0 70 45 114t110 44q63 0 108.5 -44t45.5 -114q0 -71 -45.5 -116.5t-108.5 -45.5z" />
    <glyph glyph-name="j" unicode="j" horiz-adv-x="588" 
d="M180 -460q-57 0 -94.5 9t-69.5 20v216q13 -5 38.5 -12t53.5 -7q35 0 61 23t26 81v1221h239l-4 -1143q0 -24 0.5 -48.5t0.5 -48.5q0 -79 -21 -150t-75 -116t-155 -45zM313 1253q-64 0 -109.5 45t-45.5 116t45.5 115t109.5 44t109.5 -44t45.5 -115t-45.5 -116t-109.5 -45z
" />
    <glyph glyph-name="k" unicode="k" horiz-adv-x="1078" 
d="M780 0l-412 595l215 31l105 -118l396 -508h-304zM152 0v1556h234v-809l-14 -149v-8l14 -155v-435h-234zM584 562l-216 33l181 254l187 242h312l-361 -407z" />
    <glyph glyph-name="l" unicode="l" horiz-adv-x="545" 
d="M154 0v1556h236v-1556h-236z" />
    <glyph glyph-name="m" unicode="m" horiz-adv-x="1797" 
d="M152 0v1091h203l26 -411l-17 83q12 90 47 170.5t106 130.5t189 50q131 0 211.5 -74.5t99.5 -228.5l5 -16v-795h-237v641q0 94 -18 151t-56.5 82.5t-101.5 25.5q-74 0 -134 -43.5t-86 -98.5v-758h-237zM1418 0v641q0 94 -18 151t-56.5 82.5t-101.5 25.5q-74 0 -134 -43.5
t-86 -98.5l-2 -78l-16 65q10 89 43.5 173.5t103.5 140t188 55.5q148 0 232 -96.5t84 -294.5v-723h-237z" />
    <glyph glyph-name="n" unicode="n" horiz-adv-x="1174" 
d="M152 0v1091h202l26 -411l-17 83q12 90 47.5 170.5t106.5 130.5t190 50q155 0 240 -96.5t85 -294.5v-723h-236v641q0 94 -18.5 151t-59.5 82.5t-109 25.5q-74 0 -134.5 -43.5t-86.5 -98.5v-758h-236z" />
    <glyph glyph-name="o" unicode="o" horiz-adv-x="1159" 
d="M577 -15q-151 0 -263 65t-174 191.5t-62 310.5q0 174 65.5 300t179.5 193.5t258 67.5q156 0 267.5 -67.5t171.5 -193.5t60 -300q0 -184 -66.5 -310.5t-180.5 -191.5t-256 -65zM581 186q115 0 188 86t73 280q0 180 -71 270t-194 90q-115 0 -187.5 -89t-72.5 -271
q0 -185 73.5 -275.5t190.5 -90.5z" />
    <glyph glyph-name="p" unicode="p" horiz-adv-x="1186" 
d="M678 -12q-108 0 -172 36t-94 84.5t-38 85.5l-80 -4l93 79q7 -25 31 -48.5t70 -38t113 -14.5q112 0 184.5 87t72.5 291q0 176 -68 270.5t-174 94.5q-75 0 -123.5 -21t-73.5 -49t-32 -50v75q2 33 17.5 74.5t51 81t94 65t145.5 25.5q132 0 222 -71t136.5 -194.5t46.5 -280.5
q0 -145 -35.5 -253.5t-96 -180.5t-135.5 -108t-155 -36zM152 -403v1494h232l3 -150v-681l-13 -66l13 -195v-402h-235z" />
    <glyph glyph-name="q" unicode="q" horiz-adv-x="1196" 
d="M511 -12q-140 0 -234.5 72t-142.5 196t-48 278q0 194 62 322t161 192t210 64t173 -36t90 -84t36 -86l74 5l-83 -95q-9 23 -33 45.5t-68.5 37.5t-113.5 15q-117 0 -192 -86t-75 -281q0 -175 70 -271t179 -96q76 0 125 24.5t75.5 56t32.5 52.5l10 -61l-10 -19
q-5 -31 -21 -73t-49 -81t-88.5 -65t-139.5 -26zM809 -403v1291l2 203h233v-1494h-235z" />
    <glyph glyph-name="r" unicode="r" horiz-adv-x="786" 
d="M152 0v1091h202l26 -420l-21 58q7 66 26.5 134t56 125t94 91.5t140.5 34.5q20 0 40 -2t37 -7v-252q-34 11 -72.5 14.5t-70.5 3.5q-39 0 -84 -15.5t-83 -46.5t-55 -77v-732h-236z" />
    <glyph glyph-name="s" unicode="s" horiz-adv-x="1027" 
d="M519 -17q-123 0 -219.5 36t-153 111.5t-62.5 193.5h228q13 -84 67.5 -119t134.5 -35q58 0 103.5 11.5t72 39t26.5 74.5q0 33 -14.5 54.5t-44 37.5t-74 30t-102.5 31q-104 30 -189 71t-135 107.5t-50 173.5q0 146 108 228.5t278 82.5q110 0 198.5 -31.5t145.5 -104
t74 -196.5l-228 1q-15 58 -44 89.5t-66.5 44t-81.5 12.5q-48 0 -83 -15t-54 -42t-19 -65q0 -44 25.5 -73.5t77 -51t128.5 -44.5q62 -18 128 -39.5t123 -54.5t92 -87.5t35 -141.5q0 -155 -116.5 -242t-308.5 -87z" />
    <glyph glyph-name="t" unicode="t" horiz-adv-x="789" 
d="M484 -16q-130 0 -202.5 66.5t-72.5 190.5v552q0 33 14 59.5t41 33.5l-55 162v29l53 327h180v-1104q0 -58 25.5 -81t95.5 -23q45 0 83 0.5t69 1.5v-201q-52 -9 -114 -11t-117 -2zM66 886v205h651v-205h-651z" />
    <glyph glyph-name="u" unicode="u" horiz-adv-x="1164" 
d="M456 -22q-142 0 -228 99t-86 284v731h236v-668q0 -80 18 -132t57 -76t101 -24q75 0 135.5 43.5t85.5 98.5v758h236v-1092h-201l-27 412l18 -83q-12 -90 -47.5 -170t-107 -130.5t-190.5 -50.5z" />
    <glyph glyph-name="v" unicode="v" horiz-adv-x="1090" 
d="M418 0l-380 1091h268l140 -506l95 -353h9l95 352l140 507h268l-380 -1091h-255z" />
    <glyph glyph-name="w" unicode="w" horiz-adv-x="1663" 
d="M355 0l-331 1091h259l136 -542l67 -348l12 -1l54 350l131 541h297l129 -543l53 -359l15 1l68 358l136 543h258l-330 -1091h-276l-131 520l-61 316h-17l-64 -317l-130 -519h-275z" />
    <glyph glyph-name="x" unicode="x" horiz-adv-x="1044" 
d="M21 0l401 626l3 -170l-384 635h285l148 -292l64 -135l47 132l138 295h283l-389 -635l3 171l404 -627h-293l-163 298l-63 118l-49 -125l-153 -291h-282z" />
    <glyph glyph-name="y" unicode="y" horiz-adv-x="1047" 
d="M138 -431v220h86q72 0 111.5 13t59 39t28.5 63q11 44 24.5 65.5t32.5 30.5h-78l-356 1091h262l125 -498l101 -361h9l91 360l125 499h260l-351 -1091q-32 -99 -69 -179t-86 -136t-119.5 -86t-169.5 -30h-86z" />
    <glyph glyph-name="z" unicode="z" horiz-adv-x="954" 
d="M28 0l455 764q32 53 65 89.5t73 59.5l29 -5q-56 -4 -116 -9t-109 -5h-325v197h816l-457 -769q-35 -59 -80.5 -99t-92.5 -68l-10 32q53 2 109.5 7t102.5 5h407v-199h-867z" />
    <glyph glyph-name="braceleft" unicode="{" horiz-adv-x="809" 
d="M521 -180q-138 0 -199.5 66.5t-61.5 215.5v372q0 77 -40.5 107.5t-153.5 37.5v178q113 8 153.5 38.5t40.5 106.5v372q0 149 61.5 215.5t199.5 66.5h184v-184h-145q-51 0 -72 -28t-21 -96v-421q0 -59 -24.5 -91t-77.5 -43l-118 -25l118 -25q53 -10 77.5 -42.5t24.5 -91.5
v-421q0 -68 21 -96t72 -28h145v-184h-184z" />
    <glyph glyph-name="bar" unicode="|" horiz-adv-x="634" 
d="M213 -160v1714h208v-1714h-208z" />
    <glyph glyph-name="braceright" unicode="}" horiz-adv-x="809" 
d="M288 -180h-184v184h145q51 0 72 28t21 96v421q0 59 24 91.5t78 42.5l118 25l-118 25q-54 11 -78 43t-24 91v421q0 68 -21 96t-72 28h-145v184h184q138 0 199.5 -66.5t61.5 -215.5v-372q0 -76 41 -106.5t153 -38.5v-178q-112 -7 -153 -37.5t-41 -107.5v-372
q0 -149 -61.5 -215.5t-199.5 -66.5z" />
    <glyph glyph-name="asciitilde" unicode="~" horiz-adv-x="1171" 
d="M748 473q-72 0 -115 32.5t-72 74.5t-60.5 74.5t-80.5 32.5q-40 0 -60.5 -26.5t-24.5 -74t6 -110.5h-183q-16 108 -1 184t52 124t90 70.5t115 22.5q68 0 112 -22t73.5 -54t51 -64t45 -54t54.5 -22q69 0 82 59.5t-13 152.5h189q23 -111 8.5 -187.5t-55 -123.5t-96.5 -68
t-117 -21z" />
    <glyph glyph-name="uni00A0" unicode="&#xa0;" horiz-adv-x="357" 
 />
    <glyph glyph-name="exclamdown" unicode="&#xa1;" horiz-adv-x="562" 
d="M155 -15l14 399l35 639h154l35 -639l14 -399h-252zM281 1173q-61 0 -104.5 43.5t-43.5 109.5q0 69 43 111.5t105 42.5q61 0 104.5 -43t43.5 -111q0 -66 -43.5 -109.5t-104.5 -43.5z" />
    <glyph glyph-name="cent" unicode="&#xa2;" horiz-adv-x="1061" 
d="M586 1q-162 0 -278 72.5t-177 196.5t-61 279q0 168 62.5 290t174 187.5t257.5 65.5q145 0 243 -53.5t147 -143t44 -198.5h-224q-1 44 -14 80t-39 61.5t-64.5 39.5t-90.5 14q-140 1 -198.5 -93.5t-58.5 -244.5q0 -167 70.5 -260t220.5 -94q26 0 56.5 11.5t58.5 34t45 54.5
t16 72h223q4 -115 -54.5 -198t-154 -128t-204.5 -45zM462 -169v211h197v-211h-197zM462 1049v210h197v-210h-197z" />
    <glyph glyph-name="sterling" unicode="&#xa3;" horiz-adv-x="1136" 
d="M69 0v202q94 45 150 106.5t80.5 125t24.5 112.5q0 85 -25 142t-58.5 107t-58.5 113t-25 159q0 129 54 222t157 144t250 51t242.5 -50t142 -144t46.5 -228q0 -19 -0.5 -39t-2.5 -41h-238q2 23 3 43.5t1 39.5q0 67 -18.5 112.5t-63 69t-122.5 23.5q-65 0 -113.5 -21.5
t-75 -66.5t-26.5 -116q0 -77 19.5 -134t45.5 -108.5t45.5 -110.5t19.5 -142q0 -96 -40.5 -168.5t-74.5 -104.5q-52 -47 -120 -71t-113 -25zM69 0v202h988v-202h-988zM142 554v174h749v-174h-749z" />
    <glyph glyph-name="currency" unicode="&#xa4;" horiz-adv-x="1250" 
d="M624 336q-115 0 -209 55.5t-149.5 150t-55.5 211.5q0 120 54.5 213.5t148 147.5t211.5 54q116 0 210.5 -54.5t149.5 -148.5t55 -212q0 -121 -54 -215t-148 -148t-213 -54zM303 237l-154 154l251 251l154 -154zM947 237l-251 251l154 154l251 -251zM624 541q82 0 139.5 60
t57.5 152t-58.5 151t-138.5 59q-88 0 -142 -58.5t-54 -151.5q0 -90 55.5 -151t140.5 -61zM400 847l-251 251l154 154l251 -251zM850 847l-154 154l251 251l154 -154z" />
    <glyph glyph-name="yen" unicode="&#xa5;" horiz-adv-x="1266" 
d="M506 597l-488 857h278l179 -359l148 -301h18l149 300l181 360h277l-487 -857h-255zM514 0v714h240v-714h-240zM171 592v182h924v-182h-924zM171 194v182h924v-182h-924z" />
    <glyph glyph-name="brokenbar" unicode="&#xa6;" horiz-adv-x="634" 
d="M213 834v723h208v-723h-208zM213 -163v715h208v-715h-208z" />
    <glyph glyph-name="section" unicode="&#xa7;" horiz-adv-x="1025" 
d="M514 -17q-129 0 -227.5 36.5t-155.5 111.5t-63 193h233q13 -82 66.5 -118t141.5 -36q59 0 107.5 11.5t77 39t28.5 74.5q0 33 -16 54.5t-46.5 37t-75.5 29.5t-103 32q-79 23 -147.5 50.5t-119 62.5t-79 81t-28.5 108q0 107 81 173.5t259 66.5l39 -11q-47 0 -82 -21.5
t-54.5 -59t-19.5 -85.5q0 -45 27 -76.5t79.5 -55t129.5 -46.5q62 -18 129.5 -40t125.5 -56t94 -89t36 -141q0 -102 -55 -175.5t-154 -112t-228 -38.5zM572 612l-34 23q88 0 140 45t52 117q0 44 -26.5 69.5t-79 44t-131.5 40.5q-105 31 -189 74.5t-132.5 110.5t-48.5 168
q0 97 49.5 166.5t136 107t197.5 37.5q109 0 195.5 -32t141.5 -104.5t70 -195.5h-228q-14 54 -39 86t-60.5 46.5t-81.5 14.5q-74 0 -114.5 -33.5t-40.5 -88.5q0 -45 25.5 -74t76.5 -50.5t128 -44.5q65 -20 131 -42.5t121.5 -54.5t89.5 -78.5t34 -114.5q0 -85 -51.5 -137
t-138 -76t-193.5 -24z" />
    <glyph glyph-name="dieresis" unicode="&#xa8;" horiz-adv-x="980" 
d="M294 1260q-57 0 -100.5 45t-43.5 113q0 69 43.5 112.5t100.5 43.5t100 -43.5t43 -112.5q0 -68 -43 -113t-100 -45zM686 1260q-56 0 -100 45t-44 113q0 69 44 112.5t100 43.5q57 0 100.5 -43.5t43.5 -112.5q0 -68 -43.5 -113t-100.5 -45z" />
    <glyph glyph-name="copyright" unicode="&#xa9;" horiz-adv-x="1338" 
d="M669 266q-173 0 -302.5 70.5t-201.5 204.5t-72 326t72.5 325t203 202.5t303.5 69.5t302 -69t200 -202t71 -325t-72 -326.5t-201.5 -205t-302.5 -70.5zM674 509q-157 0 -237.5 98t-80.5 262t82.5 256.5t236.5 92.5q157 0 229.5 -76.5t67.5 -191.5h-191q0 64 -26.5 87
t-77.5 23q-71 0 -102 -43t-31 -146q0 -111 32 -154.5t104 -43.5q41 0 73.5 19t30.5 84h189q1 -122 -80.5 -194.5t-218.5 -72.5zM671 361q138 0 243 55t164.5 166.5t59.5 282.5q0 169 -59.5 281t-164.5 167.5t-242 55.5q-136 0 -243 -55t-168.5 -166.5t-61.5 -282.5
q0 -173 62 -284.5t169 -165.5t241 -54z" />
    <glyph glyph-name="ordfeminine" unicode="&#xaa;" horiz-adv-x="917" 
d="M347 583q-123 0 -204 65t-81 176q0 118 69 175t184 80q51 10 107.5 17t107 11t80.5 6v29q0 85 -35 123.5t-119 38.5q-53 0 -89 -12.5t-54.5 -45.5t-19.5 -96h-202q-10 118 36 191t135 107.5t205 34.5q94 0 175.5 -27.5t131 -96.5t49.5 -195v-571h-216l3 199
q-16 -87 -79.5 -148t-183.5 -61zM411 738q42 0 84 14t74 40t41 61v150q-26 -4 -72 -11t-79 -14q-88 -17 -126.5 -47.5t-38.5 -86.5q0 -49 34 -77.5t83 -28.5z" />
    <glyph glyph-name="guillemotleft" unicode="&#xab;" horiz-adv-x="1216" 
d="M823 195l-215 354v8l215 354h243l-154 -243q-35 -56 -66 -79t-98 -36q68 -13 99 -36t65 -77l154 -245h-243zM387 194l-237 355v8l237 355h243l-162 -244q-37 -56 -68.5 -78.5t-103.5 -36.5q72 -13 103.5 -35.5t68.5 -78.5l162 -245h-243z" />
    <glyph glyph-name="logicalnot" unicode="&#xac;" horiz-adv-x="1128" 
d="M787 235v350h-637v180h828v-530h-191z" />
    <glyph glyph-name="uni00AD" unicode="&#xad;" horiz-adv-x="804" 
d="M150 563v196h504l-3 -196h-501z" />
    <glyph glyph-name="registered" unicode="&#xae;" horiz-adv-x="1338" 
d="M413 523v678h173l-3 -678h-170zM786 523l-111 238h-99l-32 6l13 115v12h109q54 0 81.5 21t27.5 71t-27.5 64.5t-61.5 14.5h-103l-58 55l20 81h39h50h74q115 0 178 -52t64 -149q1 -63 -27 -114t-76.5 -80.5t-110.5 -26.5l-45 18q71 0 113 -8t59 -38l125 -228h-202z
M669 266q-173 0 -302.5 70.5t-201.5 204.5t-72 326t72.5 325t203 202.5t303.5 69.5t302 -69t200 -202t71 -325t-72 -326.5t-201.5 -205t-302.5 -70.5zM671 361q138 0 243 55t164.5 166.5t59.5 282.5q0 169 -59.5 281t-164.5 167.5t-242 55.5q-136 0 -243 -55t-168.5 -166.5
t-61.5 -282.5q0 -173 62 -284.5t169 -165.5t241 -54z" />
    <glyph glyph-name="macron" unicode="&#xaf;" horiz-adv-x="764" 
d="M128 1277v194h508l-3 -194h-505z" />
    <glyph glyph-name="degree" unicode="&#xb0;" horiz-adv-x="873" 
d="M436 921q-80 0 -145.5 37t-103 101t-37.5 143q0 82 37 145.5t102 99.5t147 36t146.5 -36.5t102.5 -100t38 -143.5q0 -82 -37 -145.5t-102 -100t-148 -36.5zM436 1060q59 0 99 40t40 102t-40.5 102t-98.5 40q-59 0 -98.5 -39.5t-39.5 -102.5q0 -60 40.5 -101t97.5 -41z
" />
    <glyph glyph-name="plusminus" unicode="&#xb1;" horiz-adv-x="1121" 
d="M172 0v189h769v-189h-769zM458 306v241q0 39 14 67.5t41 35.5l-55 63v112v346h206v-865h-206zM150 650v190h821v-190h-821z" />
    <glyph glyph-name="uni00B2" unicode="&#xb2;" horiz-adv-x="791" 
d="M25 910q17 20 57.5 70t90 111t95.5 118.5l74 92.5q61 78 102.5 129t62 89t20.5 78q0 46 -29.5 80t-101.5 34q-70 0 -110.5 -46.5t-19.5 -144.5h-195q-17 130 21 211.5t118.5 119t188.5 37.5q162 0 243.5 -74t81.5 -191q0 -75 -24 -135.5t-61.5 -112t-76.5 -99.5
q-35 -43 -66 -80t-58.5 -70t-55.5 -66q23 23 53.5 29.5t84.5 6.5h202v-187h-697z" />
    <glyph glyph-name="uni00B3" unicode="&#xb3;" horiz-adv-x="825" 
d="M399 896q-104 0 -188.5 35t-131.5 105t-40 175h197q-3 -71 43.5 -102t123.5 -31q58 0 106 28.5t48 89.5q0 66 -46.5 95.5t-107.5 29.5h-105v168h98q68 0 98 35t30 76q0 58 -37 85t-83 27q-64 0 -98 -30t-31 -91h-202q1 142 81 220t251 78q162 0 243 -72t81 -189
q0 -77 -51.5 -141t-141.5 -79q102 -7 166.5 -66t64.5 -169q0 -120 -96.5 -198.5t-271.5 -78.5z" />
    <glyph glyph-name="acute" unicode="&#xb4;" horiz-adv-x="750" 
d="M150 1277l197 278h253l-234 -278h-216z" />
    <glyph glyph-name="uni00B5" unicode="&#xb5;" horiz-adv-x="1167" 
d="M580 -21q-51 0 -85.5 19t-57.5 52.5t-36.5 76.5t-22.5 92l-236 142v731h236v-669q0 -58 11 -101.5t34.5 -71.5t61.5 -42t93 -14q41 0 81.5 22t72 57t47.5 72v747h236v-1092h-202l-26 396l17 -75q-11 -186 -64.5 -264t-159.5 -78zM142 -264v625l236 51v-676h-236z" />
    <glyph glyph-name="paragraph" unicode="&#xb6;" horiz-adv-x="1291" 
d="M556 0v618q-4 -17 -23.5 -30.5t-53.5 -13.5h-39q-122 0 -211 58.5t-137 165.5t-48 250q0 194 113 300t307 106h116h181v-1454h-205zM926 0v1454h205v-1454h-205z" />
    <glyph glyph-name="periodcentered" unicode="&#xb7;" horiz-adv-x="406" 
d="M203 620q-64 0 -108.5 44.5t-44.5 116.5q0 70 44.5 115t108.5 45t108.5 -45t44.5 -115q0 -72 -44.5 -116.5t-108.5 -44.5z" />
    <glyph glyph-name="cedilla" unicode="&#xb8;" horiz-adv-x="619" 
d="M323 -399q-45 0 -81.5 9t-80.5 28l1 143q52 -26 99 -26q54 0 68.5 23t14.5 59q0 46 -26.5 83.5t-86.5 79.5h71q122 -34 178 -89.5t56 -124.5q0 -85 -60.5 -135t-152.5 -50z" />
    <glyph glyph-name="uni00B9" unicode="&#xb9;" horiz-adv-x="579" 
d="M255 910l2 783l54 177h158v-960h-214zM51 1571v201q32 0 68 3.5t73 13.5q37 11 67 30.5t52 50.5l-51 -175q-7 -26 -18 -54.5t-46 -48.5q-26 -13 -55 -17t-90 -4z" />
    <glyph glyph-name="ordmasculine" unicode="&#xba;" horiz-adv-x="955" 
d="M476 581q-194 0 -308.5 116.5t-114.5 337.5q0 139 54.5 239.5t151 154.5t220.5 54q199 0 311 -119.5t112 -328.5q0 -147 -56 -248.5t-152 -153.5t-218 -52zM479 764q88 0 145 61.5t57 209.5q0 137 -55.5 201t-149.5 64q-89 0 -145.5 -64t-56.5 -201q0 -141 57 -206
t148 -65z" />
    <glyph glyph-name="guillemotright" unicode="&#xbb;" horiz-adv-x="1216" 
d="M393 195h-243l154 245q34 54 65.5 77t98.5 36q-67 13 -98 36t-66 79l-154 243h243l215 -354v-8zM829 194h-243l162 245q37 56 68.5 78.5t103.5 35.5q-71 14 -102.5 36.5t-69.5 78.5l-162 244h243l237 -355v-8z" />
    <glyph glyph-name="onequarter" unicode="&#xbc;" horiz-adv-x="1959" 
d="M255 476l2 783l54 177h158v-960h-214zM51 1137v201q32 0 68 3.5t73 13.5q37 11 67 30t52 51l-51 -176q-7 -26 -18 -54.5t-46 -47.5q-26 -13 -55 -17t-90 -4zM458 0l769 1454h184l-769 -1454h-184zM1610 0v171h-495l363 789h324l-3 -3l1 -616h129v-170h-128v-171h-191z
M1375 313q14 17 30.5 22.5t41.5 5.5h224q-38 0 -49.5 24.5t-11.5 65.5v181l3 216l-91 -224l-101 -189z" />
    <glyph glyph-name="onehalf" unicode="&#xbd;" horiz-adv-x="1915" 
d="M255 476l2 783l54 177h158v-960h-214zM51 1137v201q32 0 68 3.5t73 13.5q37 11 67 30t52 51l-51 -176q-7 -26 -18 -54.5t-46 -47.5q-26 -13 -55 -17t-90 -4zM419 0l769 1454h184l-769 -1454h-184zM1149 0q17 20 57.5 70t90 111t95.5 118.5l74 92.5q61 78 102.5 129t62 89
t20.5 78q0 46 -29.5 80t-101.5 34q-70 0 -110.5 -46.5t-19.5 -144.5h-195q-17 130 21 211.5t118.5 119t188.5 37.5q162 0 243.5 -74t81.5 -191q0 -75 -24 -135.5t-61.5 -112t-76.5 -99.5q-35 -43 -66 -80t-58.5 -70t-55.5 -66q23 23 53.5 29.5t84.5 6.5h202v-187h-697z" />
    <glyph glyph-name="threequarters" unicode="&#xbe;" horiz-adv-x="2132" 
d="M399 461q-104 0 -188.5 35.5t-131.5 105.5t-40 174h197q-3 -70 43.5 -101.5t123.5 -31.5q58 0 106 28.5t48 90.5q0 65 -46.5 94.5t-107.5 29.5h-105v168h98q68 0 98 35t30 76q0 58 -37 85.5t-83 27.5q-64 0 -98 -30.5t-31 -91.5h-202q1 143 81 221t251 78q162 0 243 -72
t81 -190q0 -76 -51.5 -140.5t-141.5 -79.5q102 -6 166.5 -65t64.5 -169q0 -121 -96.5 -199.5t-271.5 -78.5zM628 0l769 1454h184l-769 -1454h-184zM1783 0v171h-495l363 789h324l-3 -3l1 -616h129v-170h-128v-171h-191zM1548 313q14 17 30.5 22.5t41.5 5.5h224
q-38 0 -49.5 24.5t-11.5 65.5v181l3 216l-91 -224l-101 -189z" />
    <glyph glyph-name="questiondown" unicode="&#xbf;" horiz-adv-x="1008" 
d="M637 1028q8 -15 12 -41.5t4 -67.5q0 -90 -36.5 -148t-90.5 -98t-108 -78.5t-90.5 -88t-36.5 -128.5q0 -80 50.5 -128.5t163.5 -48.5q123 0 170.5 67t45.5 205l218 -1q14 -124 -24 -236t-138.5 -181.5t-274.5 -69.5q-160 0 -257 58.5t-140.5 150t-43.5 190.5
q0 106 38 174.5t94.5 114t113.5 83t95 81.5t38 111q0 18 -1 41t-7 39h205zM513 1482q62 0 105 -42.5t43 -110.5t-43 -111t-106 -43q-62 0 -104.5 43t-42.5 110q0 69 43.5 111.5t104.5 42.5z" />
    <glyph glyph-name="Agrave" unicode="&#xc0;" horiz-adv-x="1324" 
d="M28 0l479 1454h310l479 -1454h-251l-133 437l135 -95h-718l74 198h583l-75 -100l-157 510l-89 329h-8l-87 -329l-292 -950h-250zM581 1618l-234 282h253l197 -282h-216z" />
    <glyph glyph-name="Aacute" unicode="&#xc1;" horiz-adv-x="1324" 
d="M28 0l479 1454h310l479 -1454h-251l-133 437l135 -95h-718l74 198h583l-75 -100l-157 510l-89 329h-8l-87 -329l-292 -950h-250zM549 1618l197 282h253l-234 -282h-216z" />
    <glyph glyph-name="Acircumflex" unicode="&#xc2;" horiz-adv-x="1324" 
d="M28 0l479 1454h310l479 -1454h-251l-133 437l135 -95h-718l74 198h583l-75 -100l-157 510l-89 329h-8l-87 -329l-292 -950h-250zM347 1618l219 282h193l219 -282h-183l-132 121l-133 -121h-183z" />
    <glyph glyph-name="Atilde" unicode="&#xc3;" horiz-adv-x="1324" 
d="M28 0l479 1454h310l479 -1454h-251l-133 437l135 -95h-718l74 198h583l-75 -100l-157 510l-89 329h-8l-87 -329l-292 -950h-250zM792 1599q-61 0 -97.5 22t-60 50.5t-44 50.5t-50.5 22q-42 0 -62.5 -31.5t-21.5 -95.5h-156q-2 99 25.5 164.5t80 98t120.5 32.5
q60 0 95 -22t58.5 -51t44 -51t50.5 -22q42 0 64 32t23 96h155q4 -143 -57 -219t-167 -76z" />
    <glyph glyph-name="Adieresis" unicode="&#xc4;" horiz-adv-x="1324" 
d="M28 0l479 1454h310l479 -1454h-251l-133 437l135 -95h-718l74 198h583l-75 -100l-157 510l-89 329h-8l-87 -329l-292 -950h-250zM447 1600q-58 0 -102 46t-44 116q0 72 44 116t102 44q59 0 102 -44t43 -116q0 -70 -44 -116t-101 -46zM877 1600q-58 0 -102 46t-44 116
q0 72 44 116t102 44q59 0 102 -44t43 -116q0 -70 -44 -116t-101 -46z" />
    <glyph glyph-name="Aring" unicode="&#xc5;" horiz-adv-x="1324" 
d="M28 0l479 1454h310l479 -1454h-251l-133 437l135 -95h-718l74 198h583l-75 -100l-157 510l-89 329h-8l-87 -329l-292 -950h-250zM662 1429q-99 0 -157 60t-58 150t58 148t157 58q98 0 156 -58t58 -148t-58 -150t-156 -60zM662 1541q34 0 59 24.5t25 73.5q0 50 -25 73
t-59 23q-33 0 -57.5 -23t-24.5 -73q0 -49 24.5 -73.5t57.5 -24.5z" />
    <glyph glyph-name="AE" unicode="&#xc6;" horiz-adv-x="1857" 
d="M-57 0l759 1454h207l71 -27h-69l-120 -286l-583 -1141h-265zM294 370l70 206h585v-206h-655zM883 0v1454h888v-220h-753l100 108v-549l-100 69h704v-217h-663l59 76v-608l-100 109h764v-222h-899z" />
    <glyph glyph-name="Ccedilla" unicode="&#xc7;" horiz-adv-x="1370" 
d="M742 -21q-185 0 -331 85t-230.5 252t-84.5 414q0 232 82.5 400.5t229.5 259.5t341 91q139 0 261.5 -54t199.5 -163.5t81 -277.5h-241q-6 100 -51 161t-113.5 88t-147.5 27q-108 0 -198.5 -61t-146 -180t-55.5 -292q0 -200 57 -316t150 -165.5t200 -49.5q113 0 178 35
t94.5 93.5t34.5 126.5h241q-8 -149 -73.5 -255t-185.5 -162.5t-292 -56.5zM801 -413q-47 0 -88.5 9.5t-87.5 28.5l1 149q54 -26 110 -26q36 0 56 19t20 54q0 47 -43.5 91.5t-136.5 87.5h209q83 -34 126.5 -91t43.5 -129q0 -88 -58 -140.5t-152 -52.5z" />
    <glyph glyph-name="Egrave" unicode="&#xc8;" horiz-adv-x="1132" 
d="M161 0v1454h885v-220h-750l99 108v-549l-99 69h695v-217h-654l58 76v-608l-99 109h761v-222h-896zM529 1618l-234 282h253l197 -282h-216z" />
    <glyph glyph-name="Eacute" unicode="&#xc9;" horiz-adv-x="1132" 
d="M161 0v1454h885v-220h-750l99 108v-549l-99 69h695v-217h-654l58 76v-608l-99 109h761v-222h-896zM497 1618l197 282h253l-234 -282h-216z" />
    <glyph glyph-name="Ecircumflex" unicode="&#xca;" horiz-adv-x="1132" 
d="M161 0v1454h885v-220h-750l99 108v-549l-99 69h695v-217h-654l58 76v-608l-99 109h761v-222h-896zM295 1618l219 282h193l219 -282h-183l-132 121l-133 -121h-183z" />
    <glyph glyph-name="Edieresis" unicode="&#xcb;" horiz-adv-x="1132" 
d="M161 0v1454h885v-220h-750l99 108v-549l-99 69h695v-217h-654l58 76v-608l-99 109h761v-222h-896zM395 1600q-58 0 -102 46t-44 116q0 72 44 116t102 44q59 0 102 -44t43 -116q0 -70 -44 -116t-101 -46zM825 1600q-58 0 -102 46t-44 116q0 72 44 116t102 44q59 0 102 -44
t43 -116q0 -70 -44 -116t-101 -46z" />
    <glyph glyph-name="Igrave" unicode="&#xcc;" horiz-adv-x="549" 
d="M154 0v1454h241v-1454h-241zM194 1618l-234 282h253l197 -282h-216z" />
    <glyph glyph-name="Iacute" unicode="&#xcd;" horiz-adv-x="549" 
d="M154 0v1454h241v-1454h-241zM162 1618l197 282h253l-234 -282h-216z" />
    <glyph glyph-name="Icircumflex" unicode="&#xce;" horiz-adv-x="549" 
d="M154 0v1454h241v-1454h-241zM-41 1618l219 282h193l219 -282h-183l-132 121l-133 -121h-183z" />
    <glyph glyph-name="Idieresis" unicode="&#xcf;" horiz-adv-x="549" 
d="M154 0v1454h241v-1454h-241zM59 1600q-58 0 -102 46t-44 116q0 72 44 116t102 44q59 0 102 -44t43 -116q0 -70 -44 -116t-101 -46zM489 1600q-58 0 -102 46t-44 116q0 72 44 116t102 44q59 0 102 -44t43 -116q0 -70 -44 -116t-101 -46z" />
    <glyph glyph-name="Eth" unicode="&#xd0;" horiz-adv-x="1354" 
d="M368 0v228h232q122 0 222 52t159.5 164t59.5 291q0 187 -59 296.5t-159 157t-224 47.5h-239v218h245q201 0 354.5 -76t241 -234.5t87.5 -406.5q0 -242 -91 -406t-245 -247.5t-345 -83.5h-239zM161 0v1454h239v-1454h-239zM79 616v226h582l-3 -226h-579z" />
    <glyph glyph-name="Ntilde" unicode="&#xd1;" horiz-adv-x="1414" 
d="M161 0v1454h264l492 -880l132 -305h8l-38 323v862h235v-1454h-265l-487 872l-128 298h-9l31 -339v-831h-235zM835 1599q-61 0 -97.5 22t-60 50.5t-44 50.5t-50.5 22q-42 0 -62.5 -31.5t-21.5 -95.5h-156q-2 99 25.5 164.5t80 98t120.5 32.5q60 0 95 -22t58.5 -51t44 -51
t50.5 -22q42 0 64 32t23 96h155q4 -143 -57 -219t-167 -76z" />
    <glyph glyph-name="Ograve" unicode="&#xd2;" horiz-adv-x="1466" 
d="M732 -30q-177 0 -322 88t-231 259t-86 419q0 240 82 407t226.5 253.5t331.5 86.5q182 0 327 -86.5t229 -253.5t84 -407q0 -248 -83.5 -419t-228.5 -259t-329 -88zM732 188q112 0 202 58.5t143.5 179t53.5 308.5q0 178 -53 296t-143 176.5t-202 58.5q-107 0 -197.5 -58.5
t-145.5 -176.5t-55 -296q0 -141 31.5 -244t87 -170t127 -99.5t151.5 -32.5zM653 1618l-234 282h253l197 -282h-216z" />
    <glyph glyph-name="Oacute" unicode="&#xd3;" horiz-adv-x="1466" 
d="M732 -30q-177 0 -322 88t-231 259t-86 419q0 240 82 407t226.5 253.5t331.5 86.5q182 0 327 -86.5t229 -253.5t84 -407q0 -248 -83.5 -419t-228.5 -259t-329 -88zM732 188q112 0 202 58.5t143.5 179t53.5 308.5q0 178 -53 296t-143 176.5t-202 58.5q-107 0 -197.5 -58.5
t-145.5 -176.5t-55 -296q0 -141 31.5 -244t87 -170t127 -99.5t151.5 -32.5zM617 1640l197 278h253l-234 -278h-216z" />
    <glyph glyph-name="Ocircumflex" unicode="&#xd4;" horiz-adv-x="1466" 
d="M732 -30q-177 0 -322 88t-231 259t-86 419q0 240 82 407t226.5 253.5t331.5 86.5q182 0 327 -86.5t229 -253.5t84 -407q0 -248 -83.5 -419t-228.5 -259t-329 -88zM732 188q112 0 202 58.5t143.5 179t53.5 308.5q0 178 -53 296t-143 176.5t-202 58.5q-107 0 -197.5 -58.5
t-145.5 -176.5t-55 -296q0 -141 31.5 -244t87 -170t127 -99.5t151.5 -32.5zM426 1640l208 279h199l208 -279h-183l-124 116l-125 -116h-183z" />
    <glyph glyph-name="Otilde" unicode="&#xd5;" horiz-adv-x="1466" 
d="M732 -30q-177 0 -322 88t-231 259t-86 419q0 240 82 407t226.5 253.5t331.5 86.5q182 0 327 -86.5t229 -253.5t84 -407q0 -248 -83.5 -419t-228.5 -259t-329 -88zM732 188q112 0 202 58.5t143.5 179t53.5 308.5q0 178 -53 296t-143 176.5t-202 58.5q-107 0 -197.5 -58.5
t-145.5 -176.5t-55 -296q0 -141 31.5 -244t87 -170t127 -99.5t151.5 -32.5zM864 1599q-61 0 -97.5 22t-60 50.5t-44 50.5t-50.5 22q-42 0 -62.5 -31.5t-21.5 -95.5h-156q-2 99 25.5 164.5t80 98t120.5 32.5q60 0 95 -22t58.5 -51t44 -51t50.5 -22q42 0 64 32t23 96h155
q4 -143 -57 -219t-167 -76z" />
    <glyph glyph-name="Odieresis" unicode="&#xd6;" horiz-adv-x="1466" 
d="M732 -30q-177 0 -322 88t-231 259t-86 419q0 240 82 407t226.5 253.5t331.5 86.5q182 0 327 -86.5t229 -253.5t84 -407q0 -248 -83.5 -419t-228.5 -259t-329 -88zM732 188q112 0 202 58.5t143.5 179t53.5 308.5q0 178 -53 296t-143 176.5t-202 58.5q-107 0 -197.5 -58.5
t-145.5 -176.5t-55 -296q0 -141 31.5 -244t87 -170t127 -99.5t151.5 -32.5zM519 1600q-58 0 -102 46t-44 116q0 72 44 116t102 44q59 0 102 -44t43 -116q0 -70 -44 -116t-101 -46zM949 1600q-58 0 -102 46t-44 116q0 72 44 116t102 44q59 0 102 -44t43 -116q0 -70 -44 -116
t-101 -46z" />
    <glyph glyph-name="multiply" unicode="&#xd7;" horiz-adv-x="992" 
d="M702 322l-551 551l140 140l551 -550zM290 322l-140 141l551 550l140 -140z" />
    <glyph glyph-name="Oslash" unicode="&#xd8;" horiz-adv-x="1466" 
d="M732 -30q-177 0 -322 88t-231 259t-86 419q0 240 82 407t226.5 253.5t331.5 86.5q182 0 327 -86.5t229 -253.5t84 -407q0 -248 -83.5 -419t-228.5 -259t-329 -88zM732 188q112 0 202 58.5t143.5 179t53.5 308.5q0 178 -53 296t-143 176.5t-202 58.5q-107 0 -197.5 -58.5
t-145.5 -176.5t-55 -296q0 -141 31.5 -244t87 -170t127 -99.5t151.5 -32.5zM229 -79l120 238l38 42l550 1107l11 44l92 181h210l-111 -218l-40 -47l-560 -1128l-9 -40l-91 -179h-210z" />
    <glyph glyph-name="Ugrave" unicode="&#xd9;" horiz-adv-x="1346" 
d="M679 -20q-161 0 -282.5 64.5t-188.5 194.5t-67 326v889h242v-886q0 -104 21.5 -175t61 -114.5t94 -62.5t120.5 -19q61 0 112.5 19t90 62t60 114.5t21.5 175.5v886h241v-889q0 -196 -67.5 -326t-186.5 -194.5t-272 -64.5zM592 1618l-234 282h253l197 -282h-216z" />
    <glyph glyph-name="Uacute" unicode="&#xda;" horiz-adv-x="1346" 
d="M679 -20q-161 0 -282.5 64.5t-188.5 194.5t-67 326v889h242v-886q0 -104 21.5 -175t61 -114.5t94 -62.5t120.5 -19q61 0 112.5 19t90 62t60 114.5t21.5 175.5v886h241v-889q0 -196 -67.5 -326t-186.5 -194.5t-272 -64.5zM560 1618l197 282h253l-234 -282h-216z" />
    <glyph glyph-name="Ucircumflex" unicode="&#xdb;" horiz-adv-x="1346" 
d="M679 -20q-161 0 -282.5 64.5t-188.5 194.5t-67 326v889h242v-886q0 -104 21.5 -175t61 -114.5t94 -62.5t120.5 -19q61 0 112.5 19t90 62t60 114.5t21.5 175.5v886h241v-889q0 -196 -67.5 -326t-186.5 -194.5t-272 -64.5zM358 1618l219 282h193l219 -282h-183l-132 121
l-133 -121h-183z" />
    <glyph glyph-name="Udieresis" unicode="&#xdc;" horiz-adv-x="1346" 
d="M679 -20q-161 0 -282.5 64.5t-188.5 194.5t-67 326v889h242v-886q0 -104 21.5 -175t61 -114.5t94 -62.5t120.5 -19q61 0 112.5 19t90 62t60 114.5t21.5 175.5v886h241v-889q0 -196 -67.5 -326t-186.5 -194.5t-272 -64.5zM458 1600q-58 0 -102 46t-44 116q0 72 44 116
t102 44q59 0 102 -44t43 -116q0 -70 -44 -116t-101 -46zM888 1600q-58 0 -102 46t-44 116q0 72 44 116t102 44q59 0 102 -44t43 -116q0 -70 -44 -116t-101 -46z" />
    <glyph glyph-name="Yacute" unicode="&#xdd;" horiz-adv-x="1271" 
d="M520 466l-502 988h277l181 -392l149 -333h18l151 332l183 393h276l-501 -988h-232zM516 0v598h240v-598h-240zM523 1618l197 282h253l-234 -282h-216z" />
    <glyph glyph-name="Thorn" unicode="&#xde;" horiz-adv-x="1202" 
d="M479 258q-42 0 -63.5 19t-22.5 46l-66 92l70 56h238q155 0 218.5 66t63.5 202q0 144 -72 197t-225 53h-229l-86 218h110.5h127h100.5q258 0 386.5 -109.5t128.5 -352.5q0 -91 -26 -178t-83.5 -157t-154 -111t-236.5 -41h-179zM161 0v1454h236v-1454h-236z" />
    <glyph glyph-name="germandbls" unicode="&#xdf;" horiz-adv-x="1184" 
d="M133 0v1077q0 179 61.5 292t169 165.5t243.5 52.5q142 0 237 -52t142.5 -138t47.5 -191q0 -61 -22 -125t-78 -116t-157 -81q104 -16 171 -59t105 -100.5t53.5 -119.5t15.5 -118q0 -143 -57.5 -255t-170.5 -177t-278 -65q-30 0 -65.5 1.5t-73.5 3.5v211q27 -7 50.5 -9
t56.5 -3q164 0 225 76t61 208q0 96 -36.5 156t-107.5 88t-175 28h-48v202h46q136 0 196.5 58t60.5 173q0 77 -23 121.5t-68 64t-110 19.5q-86 0 -139 -34.5t-77 -104.5t-24 -177v-1072h-232z" />
    <glyph glyph-name="agrave" unicode="&#xe0;" horiz-adv-x="1104" 
d="M421 -12q-100 0 -177 37.5t-120.5 104.5t-43.5 155q0 97 35 160t101.5 100.5t156.5 57.5q64 14 135.5 23t132.5 14.5t94 7.5v44q0 111 -44.5 166.5t-150.5 55.5q-68 0 -114 -16.5t-69.5 -62t-25.5 -132.5h-215q-11 141 40.5 231.5t154 134t242.5 43.5q83 0 156.5 -18.5
t130.5 -63t90 -121.5t33 -195v-714h-231l3 245q-19 -111 -96 -184t-218 -73zM484 166q52 0 105.5 18t94 52t51.5 80v200q-40 -4 -94.5 -14t-93.5 -18q-112 -23 -161.5 -60.5t-49.5 -114.5q0 -44 20.5 -76.5t54.5 -49.5t73 -17zM415 1277l-235 279h253l198 -279h-216z" />
    <glyph glyph-name="aacute" unicode="&#xe1;" horiz-adv-x="1104" 
d="M421 -12q-100 0 -177 37.5t-120.5 104.5t-43.5 155q0 97 35 160t101.5 100.5t156.5 57.5q64 14 135.5 23t132.5 14.5t94 7.5v44q0 111 -44.5 166.5t-150.5 55.5q-68 0 -114 -16.5t-69.5 -62t-25.5 -132.5h-215q-11 141 40.5 231.5t154 134t242.5 43.5q83 0 156.5 -18.5
t130.5 -63t90 -121.5t33 -195v-714h-231l3 245q-19 -111 -96 -184t-218 -73zM484 166q52 0 105.5 18t94 52t51.5 80v200q-40 -4 -94.5 -14t-93.5 -18q-112 -23 -161.5 -60.5t-49.5 -114.5q0 -44 20.5 -76.5t54.5 -49.5t73 -17zM428 1277l197 278h253l-234 -278h-216z" />
    <glyph glyph-name="acircumflex" unicode="&#xe2;" horiz-adv-x="1104" 
d="M421 -12q-100 0 -177 37.5t-120.5 104.5t-43.5 155q0 97 35 160t101.5 100.5t156.5 57.5q64 14 135.5 23t132.5 14.5t94 7.5v44q0 111 -44.5 166.5t-150.5 55.5q-68 0 -114 -16.5t-69.5 -62t-25.5 -132.5h-215q-11 141 40.5 231.5t154 134t242.5 43.5q83 0 156.5 -18.5
t130.5 -63t90 -121.5t33 -195v-714h-231l3 245q-19 -111 -96 -184t-218 -73zM484 166q52 0 105.5 18t94 52t51.5 80v200q-40 -4 -94.5 -14t-93.5 -18q-112 -23 -161.5 -60.5t-49.5 -114.5q0 -44 20.5 -76.5t54.5 -49.5t73 -17zM238 1277l208 279h199l208 -279h-183l-124 116
l-125 -116h-183z" />
    <glyph glyph-name="atilde" unicode="&#xe3;" horiz-adv-x="1104" 
d="M421 -12q-100 0 -177 37.5t-120.5 104.5t-43.5 155q0 97 35 160t101.5 100.5t156.5 57.5q64 14 135.5 23t132.5 14.5t94 7.5v44q0 111 -44.5 166.5t-150.5 55.5q-68 0 -114 -16.5t-69.5 -62t-25.5 -132.5h-215q-11 141 40.5 231.5t154 134t242.5 43.5q83 0 156.5 -18.5
t130.5 -63t90 -121.5t33 -195v-714h-231l3 245q-19 -111 -96 -184t-218 -73zM484 166q52 0 105.5 18t94 52t51.5 80v200q-40 -4 -94.5 -14t-93.5 -18q-112 -23 -161.5 -60.5t-49.5 -114.5q0 -44 20.5 -76.5t54.5 -49.5t73 -17zM675 1255q-58 0 -93.5 22.5t-58 51t-42.5 50.5
t-48 22q-40 0 -60 -30t-21 -94h-150q-2 99 24.5 163.5t76.5 96t116 31.5q57 0 91.5 -21.5t56.5 -50.5t42 -51t48 -22q40 0 61.5 30t22.5 94h149q3 -144 -56 -218t-159 -74z" />
    <glyph glyph-name="adieresis" unicode="&#xe4;" horiz-adv-x="1104" 
d="M421 -12q-100 0 -177 37.5t-120.5 104.5t-43.5 155q0 97 35 160t101.5 100.5t156.5 57.5q64 14 135.5 23t132.5 14.5t94 7.5v44q0 111 -44.5 166.5t-150.5 55.5q-68 0 -114 -16.5t-69.5 -62t-25.5 -132.5h-215q-11 141 40.5 231.5t154 134t242.5 43.5q83 0 156.5 -18.5
t130.5 -63t90 -121.5t33 -195v-714h-231l3 245q-19 -111 -96 -184t-218 -73zM484 166q52 0 105.5 18t94 52t51.5 80v200q-40 -4 -94.5 -14t-93.5 -18q-112 -23 -161.5 -60.5t-49.5 -114.5q0 -44 20.5 -76.5t54.5 -49.5t73 -17zM349 1257q-57 0 -100.5 45.5t-43.5 112.5
q0 70 43.5 113.5t100.5 43.5t100 -43.5t43 -113.5q0 -67 -43 -112.5t-100 -45.5zM741 1257q-56 0 -100 45.5t-44 112.5q0 70 44 113.5t100 43.5q57 0 100.5 -43.5t43.5 -113.5q0 -67 -43.5 -112.5t-100.5 -45.5z" />
    <glyph glyph-name="aring" unicode="&#xe5;" horiz-adv-x="1104" 
d="M421 -12q-100 0 -177 37.5t-120.5 104.5t-43.5 155q0 97 35 160t101.5 100.5t156.5 57.5q64 14 135.5 23t132.5 14.5t94 7.5v44q0 111 -44.5 166.5t-150.5 55.5q-68 0 -114 -16.5t-69.5 -62t-25.5 -132.5h-215q-11 141 40.5 231.5t154 134t242.5 43.5q83 0 156.5 -18.5
t130.5 -63t90 -121.5t33 -195v-714h-231l3 245q-19 -111 -96 -184t-218 -73zM484 166q52 0 105.5 18t94 52t51.5 80v200q-40 -4 -94.5 -14t-93.5 -18q-112 -23 -161.5 -60.5t-49.5 -114.5q0 -44 20.5 -76.5t54.5 -49.5t73 -17zM545 1255q-98 0 -156 58.5t-58 148.5t58 148
t156 58q97 0 154.5 -58t57.5 -148t-57.5 -148.5t-154.5 -58.5zM545 1371q34 0 58.5 23.5t24.5 67.5q0 46 -24.5 69t-58.5 23t-58 -23t-24 -69q0 -44 24 -67.5t58 -23.5z" />
    <glyph glyph-name="ae" unicode="&#xe6;" horiz-adv-x="1765" 
d="M433 -13q-107 0 -186.5 36t-123 106.5t-43.5 170.5q0 119 68.5 192t225.5 110q70 17 143.5 25.5t133 13t84.5 7.5v44q0 117 -46 170t-161 53q-61 0 -105 -18t-67.5 -63.5t-24.5 -128.5h-215q-13 132 37 222.5t148.5 137.5t231.5 47q117 0 211.5 -42.5t144.5 -157.5
q61 113 156 157t203 44q136 0 239 -58.5t161 -171t58 -274.5q0 -32 -1.5 -56.5t-3.5 -39.5h-734q6 -175 79 -255t186 -80q94 0 147.5 44t65.5 94h228q-7 -102 -64.5 -176t-149.5 -113.5t-204 -39.5q-97 0 -182 32t-150 96.5t-102 160.5q-31 -137 -128 -213t-260 -76z
M490 166q48 0 100.5 18.5t93.5 52.5t51 79v200q-47 -5 -98.5 -14.5t-87.5 -17.5q-123 -27 -168 -63.5t-45 -103.5q0 -51 21 -84.5t55.5 -50t77.5 -16.5zM969 598q7 43 33 59.5t75 16.5h393q-2 113 -58 176.5t-174 63.5q-134 0 -196.5 -83t-72.5 -233z" />
    <glyph glyph-name="ccedilla" unicode="&#xe7;" horiz-adv-x="1073" 
d="M595 -19q-162 0 -278 71.5t-177.5 199.5t-61.5 297q0 178 63 304t175 192.5t258 66.5q145 0 243.5 -53.5t147.5 -143t45 -199.5h-227q-1 44 -14 80.5t-38.5 62t-64.5 39.5t-91 14q-140 1 -198.5 -96t-58.5 -262q0 -188 70.5 -280.5t220.5 -93.5q35 0 76.5 20.5t71 59
t28.5 92.5h225q4 -115 -54.5 -198t-154.5 -128t-206 -45zM584 -399q-45 0 -81.5 9t-80.5 28l1 143q52 -26 99 -26q54 0 68.5 23t14.5 59q0 46 -26.5 83.5t-86.5 79.5h71q122 -34 178 -89.5t56 -124.5q0 -85 -60.5 -135t-152.5 -50z" />
    <glyph glyph-name="egrave" unicode="&#xe8;" horiz-adv-x="1106" 
d="M584 -15q-158 0 -273.5 64.5t-177.5 190.5t-62 309q0 178 65.5 304.5t180.5 193t264 66.5q147 0 251.5 -58t159.5 -171.5t55 -278.5q0 -32 -1.5 -53t-3.5 -50h-736q9 -167 82 -245.5t179 -78.5q99 0 151.5 42.5t67.5 95.5h228q-9 -105 -66 -179.5t-150.5 -113
t-213.5 -38.5zM414 663h398q-3 120 -58 185.5t-181 65.5q-131 0 -195 -87.5t-72 -241.5q8 45 34 61.5t74 16.5zM454 1277l-235 279h253l198 -279h-216z" />
    <glyph glyph-name="eacute" unicode="&#xe9;" horiz-adv-x="1106" 
d="M584 -15q-158 0 -273.5 64.5t-177.5 190.5t-62 309q0 178 65.5 304.5t180.5 193t264 66.5q147 0 251.5 -58t159.5 -171.5t55 -278.5q0 -32 -1.5 -53t-3.5 -50h-736q9 -167 82 -245.5t179 -78.5q99 0 151.5 42.5t67.5 95.5h228q-9 -105 -66 -179.5t-150.5 -113
t-213.5 -38.5zM414 663h398q-3 120 -58 185.5t-181 65.5q-131 0 -195 -87.5t-72 -241.5q8 45 34 61.5t74 16.5zM467 1277l197 278h253l-234 -278h-216z" />
    <glyph glyph-name="ecircumflex" unicode="&#xea;" horiz-adv-x="1106" 
d="M584 -15q-158 0 -273.5 64.5t-177.5 190.5t-62 309q0 178 65.5 304.5t180.5 193t264 66.5q147 0 251.5 -58t159.5 -171.5t55 -278.5q0 -32 -1.5 -53t-3.5 -50h-736q9 -167 82 -245.5t179 -78.5q99 0 151.5 42.5t67.5 95.5h228q-9 -105 -66 -179.5t-150.5 -113
t-213.5 -38.5zM414 663h398q-3 120 -58 185.5t-181 65.5q-131 0 -195 -87.5t-72 -241.5q8 45 34 61.5t74 16.5zM276 1277l208 279h199l208 -279h-183l-124 116l-125 -116h-183z" />
    <glyph glyph-name="edieresis" unicode="&#xeb;" horiz-adv-x="1106" 
d="M584 -15q-158 0 -273.5 64.5t-177.5 190.5t-62 309q0 178 65.5 304.5t180.5 193t264 66.5q147 0 251.5 -58t159.5 -171.5t55 -278.5q0 -32 -1.5 -53t-3.5 -50h-736q9 -167 82 -245.5t179 -78.5q99 0 151.5 42.5t67.5 95.5h228q-9 -105 -66 -179.5t-150.5 -113
t-213.5 -38.5zM414 663h398q-3 120 -58 185.5t-181 65.5q-131 0 -195 -87.5t-72 -241.5q8 45 34 61.5t74 16.5zM387 1257q-57 0 -100.5 45.5t-43.5 112.5q0 70 43.5 113.5t100.5 43.5t100 -43.5t43 -113.5q0 -67 -43 -112.5t-100 -45.5zM779 1257q-56 0 -100 45.5t-44 112.5
q0 70 44 113.5t100 43.5q57 0 100.5 -43.5t43.5 -113.5q0 -67 -43.5 -112.5t-100.5 -45.5z" />
    <glyph glyph-name="igrave" unicode="&#xec;" horiz-adv-x="546" 
d="M154 0v1091h238l-4 -1091h-234zM144 1277l-235 279h253l198 -279h-216z" />
    <glyph glyph-name="iacute" unicode="&#xed;" horiz-adv-x="546" 
d="M154 0v1091h238l-4 -1091h-234zM157 1277l197 278h253l-234 -278h-216z" />
    <glyph glyph-name="icircumflex" unicode="&#xee;" horiz-adv-x="546" 
d="M154 0v1091h238l-4 -1091h-234zM-34 1277l208 279h199l208 -279h-183l-124 116l-125 -116h-183z" />
    <glyph glyph-name="idieresis" unicode="&#xef;" horiz-adv-x="546" 
d="M154 0v1091h238l-4 -1091h-234zM78 1257q-57 0 -100.5 45.5t-43.5 112.5q0 70 43.5 113.5t100.5 43.5t100 -43.5t43 -113.5q0 -67 -43 -112.5t-100 -45.5zM470 1257q-56 0 -100 45.5t-44 112.5q0 70 44 113.5t100 43.5q57 0 100.5 -43.5t43.5 -113.5q0 -67 -43.5 -112.5
t-100.5 -45.5z" />
    <glyph glyph-name="eth" unicode="&#xf0;" horiz-adv-x="1107" 
d="M558 -2q-140 0 -248.5 64t-170 177.5t-61.5 261.5q0 149 58.5 253t154 159t203.5 55q79 0 131.5 -25.5t85 -66t50 -86t27.5 -85.5l-16 -4q13 60 -9 151t-73 196t-124.5 213t-164.5 204.5t-192 167.5l-34 -78l404 31q90 -95 169.5 -206t141 -237t96.5 -266.5t35 -294.5
q0 -162 -37.5 -273t-103 -180t-148.5 -100t-174 -31zM556 200q63 0 114.5 30.5t82.5 103t31 201.5q0 26 -2 60t-5.5 60.5t-8.5 31.5q-24 27 -56.5 45.5t-72 29t-83.5 10.5q-105 0 -171.5 -63.5t-66.5 -214.5q0 -149 66 -221.5t172 -72.5zM390 1082l-8 221l189 103l40 17
l278 168l3 -221l-172 -83l-34 -12z" />
    <glyph glyph-name="ntilde" unicode="&#xf1;" horiz-adv-x="1174" 
d="M152 0v1091h202l26 -411l-17 83q12 90 47.5 170.5t106.5 130.5t190 50q155 0 240 -96.5t85 -294.5v-723h-236v641q0 94 -18.5 151t-59.5 82.5t-109 25.5q-74 0 -134.5 -43.5t-86.5 -98.5v-758h-236zM721 1255q-58 0 -93.5 22.5t-58 51t-42.5 50.5t-48 22q-40 0 -60 -30
t-21 -94h-150q-2 99 24.5 163.5t76.5 96t116 31.5q57 0 91.5 -21.5t56.5 -50.5t42 -51t48 -22q40 0 61.5 30t22.5 94h149q3 -144 -56 -218t-159 -74z" />
    <glyph glyph-name="ograve" unicode="&#xf2;" horiz-adv-x="1159" 
d="M577 -15q-151 0 -263 65t-174 191.5t-62 310.5q0 174 65.5 300t179.5 193.5t258 67.5q156 0 267.5 -67.5t171.5 -193.5t60 -300q0 -184 -66.5 -310.5t-180.5 -191.5t-256 -65zM581 186q115 0 188 86t73 280q0 180 -71 270t-194 90q-115 0 -187.5 -89t-72.5 -271
q0 -185 73.5 -275.5t190.5 -90.5zM450 1277l-235 279h253l198 -279h-216z" />
    <glyph glyph-name="oacute" unicode="&#xf3;" horiz-adv-x="1159" 
d="M577 -15q-151 0 -263 65t-174 191.5t-62 310.5q0 174 65.5 300t179.5 193.5t258 67.5q156 0 267.5 -67.5t171.5 -193.5t60 -300q0 -184 -66.5 -310.5t-180.5 -191.5t-256 -65zM581 186q115 0 188 86t73 280q0 180 -71 270t-194 90q-115 0 -187.5 -89t-72.5 -271
q0 -185 73.5 -275.5t190.5 -90.5zM463 1277l197 278h253l-234 -278h-216z" />
    <glyph glyph-name="ocircumflex" unicode="&#xf4;" horiz-adv-x="1159" 
d="M577 -15q-151 0 -263 65t-174 191.5t-62 310.5q0 174 65.5 300t179.5 193.5t258 67.5q156 0 267.5 -67.5t171.5 -193.5t60 -300q0 -184 -66.5 -310.5t-180.5 -191.5t-256 -65zM581 186q115 0 188 86t73 280q0 180 -71 270t-194 90q-115 0 -187.5 -89t-72.5 -271
q0 -185 73.5 -275.5t190.5 -90.5zM272 1277l208 279h199l208 -279h-183l-124 116l-125 -116h-183z" />
    <glyph glyph-name="otilde" unicode="&#xf5;" horiz-adv-x="1159" 
d="M577 -15q-151 0 -263 65t-174 191.5t-62 310.5q0 174 65.5 300t179.5 193.5t258 67.5q156 0 267.5 -67.5t171.5 -193.5t60 -300q0 -184 -66.5 -310.5t-180.5 -191.5t-256 -65zM581 186q115 0 188 86t73 280q0 180 -71 270t-194 90q-115 0 -187.5 -89t-72.5 -271
q0 -185 73.5 -275.5t190.5 -90.5zM710 1255q-58 0 -93.5 22.5t-58 51t-42.5 50.5t-48 22q-40 0 -60 -30t-21 -94h-150q-2 99 24.5 163.5t76.5 96t116 31.5q57 0 91.5 -21.5t56.5 -50.5t42 -51t48 -22q40 0 61.5 30t22.5 94h149q3 -144 -56 -218t-159 -74z" />
    <glyph glyph-name="odieresis" unicode="&#xf6;" horiz-adv-x="1159" 
d="M577 -15q-151 0 -263 65t-174 191.5t-62 310.5q0 174 65.5 300t179.5 193.5t258 67.5q156 0 267.5 -67.5t171.5 -193.5t60 -300q0 -184 -66.5 -310.5t-180.5 -191.5t-256 -65zM581 186q115 0 188 86t73 280q0 180 -71 270t-194 90q-115 0 -187.5 -89t-72.5 -271
q0 -185 73.5 -275.5t190.5 -90.5zM384 1257q-57 0 -100.5 45.5t-43.5 112.5q0 70 43.5 113.5t100.5 43.5t100 -43.5t43 -113.5q0 -67 -43 -112.5t-100 -45.5zM776 1257q-56 0 -100 45.5t-44 112.5q0 70 44 113.5t100 43.5q57 0 100.5 -43.5t43.5 -113.5q0 -67 -43.5 -112.5
t-100.5 -45.5z" />
    <glyph glyph-name="divide" unicode="&#xf7;" horiz-adv-x="1069" 
d="M150 571v190h769v-190h-769zM535 850q-58 0 -99 41t-41 106q0 63 41 104.5t99 41.5q59 0 99.5 -41.5t40.5 -104.5q0 -65 -40.5 -106t-99.5 -41zM536 189q-59 0 -100 41t-41 106q0 64 41 105t100 41q58 0 98.5 -41t40.5 -105q0 -65 -41 -106t-98 -41z" />
    <glyph glyph-name="oslash" unicode="&#xf8;" horiz-adv-x="1159" 
d="M577 -15q-151 0 -263 65t-174 191.5t-62 310.5q0 174 65.5 300t179.5 193.5t258 67.5q156 0 267.5 -67.5t171.5 -193.5t60 -300q0 -184 -66.5 -310.5t-180.5 -191.5t-256 -65zM581 186q115 0 188 86t73 280q0 180 -71 270t-194 90q-115 0 -187.5 -89t-72.5 -271
q0 -185 73.5 -275.5t190.5 -90.5zM134 -44l144 228l38 34l436 713l12 35l104 168h158l-123 -197l-40 -38l-446 -730l-10 -31l-115 -182h-158z" />
    <glyph glyph-name="ugrave" unicode="&#xf9;" horiz-adv-x="1164" 
d="M456 -22q-142 0 -228 99t-86 284v731h236v-668q0 -80 18 -132t57 -76t101 -24q75 0 135.5 43.5t85.5 98.5v758h236v-1092h-201l-27 412l18 -83q-12 -90 -47.5 -170t-107 -130.5t-190.5 -50.5zM451 1277l-235 279h253l198 -279h-216z" />
    <glyph glyph-name="uacute" unicode="&#xfa;" horiz-adv-x="1164" 
d="M456 -22q-142 0 -228 99t-86 284v731h236v-668q0 -80 18 -132t57 -76t101 -24q75 0 135.5 43.5t85.5 98.5v758h236v-1092h-201l-27 412l18 -83q-12 -90 -47.5 -170t-107 -130.5t-190.5 -50.5zM465 1277l197 278h253l-234 -278h-216z" />
    <glyph glyph-name="ucircumflex" unicode="&#xfb;" horiz-adv-x="1164" 
d="M456 -22q-142 0 -228 99t-86 284v731h236v-668q0 -80 18 -132t57 -76t101 -24q75 0 135.5 43.5t85.5 98.5v758h236v-1092h-201l-27 412l18 -83q-12 -90 -47.5 -170t-107 -130.5t-190.5 -50.5zM274 1277l208 279h199l208 -279h-183l-124 116l-125 -116h-183z" />
    <glyph glyph-name="udieresis" unicode="&#xfc;" horiz-adv-x="1164" 
d="M456 -22q-142 0 -228 99t-86 284v731h236v-668q0 -80 18 -132t57 -76t101 -24q75 0 135.5 43.5t85.5 98.5v758h236v-1092h-201l-27 412l18 -83q-12 -90 -47.5 -170t-107 -130.5t-190.5 -50.5zM385 1257q-57 0 -100.5 45.5t-43.5 112.5q0 70 43.5 113.5t100.5 43.5
t100 -43.5t43 -113.5q0 -67 -43 -112.5t-100 -45.5zM777 1257q-56 0 -100 45.5t-44 112.5q0 70 44 113.5t100 43.5q57 0 100.5 -43.5t43.5 -113.5q0 -67 -43.5 -112.5t-100.5 -45.5z" />
    <glyph glyph-name="yacute" unicode="&#xfd;" horiz-adv-x="1047" 
d="M138 -431v220h86q72 0 111.5 13t59 39t28.5 63q11 44 24.5 65.5t32.5 30.5h-78l-356 1091h262l125 -498l101 -361h9l91 360l125 499h260l-351 -1091q-32 -99 -69 -179t-86 -136t-119.5 -86t-169.5 -30h-86zM407 1277l197 278h253l-234 -278h-216z" />
    <glyph glyph-name="thorn" unicode="&#xfe;" horiz-adv-x="1186" 
d="M678 -12q-108 0 -172 36t-94 84.5t-38 85.5l-80 -4l93 79q6 -25 30.5 -48.5t70.5 -38t113 -14.5q111 0 184 87t73 291q0 176 -68 270.5t-175 94.5q-74 0 -122.5 -21t-73.5 -49t-32 -50v75q2 33 17.5 74.5t50.5 81t94 65t145 25.5q133 0 223 -71t136 -194.5t46 -280.5
q0 -145 -35 -253.5t-95.5 -180.5t-135.5 -108t-155 -36zM152 -403v1959h235v-607v-689l-13 -66l13 -195v-402h-235z" />
    <glyph glyph-name="ydieresis" unicode="&#xff;" horiz-adv-x="1047" 
d="M138 -431v220h86q72 0 111.5 13t59 39t28.5 63q11 44 24.5 65.5t32.5 30.5h-78l-356 1091h262l125 -498l101 -361h9l91 360l125 499h260l-351 -1091q-32 -99 -69 -179t-86 -136t-119.5 -86t-169.5 -30h-86zM328 1257q-57 0 -100.5 45.5t-43.5 112.5q0 70 43.5 113.5
t100.5 43.5t100 -43.5t43 -113.5q0 -67 -43 -112.5t-100 -45.5zM720 1257q-56 0 -100 45.5t-44 112.5q0 70 44 113.5t100 43.5q57 0 100.5 -43.5t43.5 -113.5q0 -67 -43.5 -112.5t-100.5 -45.5z" />
    <glyph glyph-name="Amacron" unicode="&#x100;" horiz-adv-x="1324" 
d="M28 0l479 1454h310l479 -1454h-251l-133 437l135 -95h-718l74 198h583l-75 -100l-157 510l-89 329h-8l-87 -329l-292 -950h-250zM388 1618v194h547l-3 -194h-544z" />
    <glyph glyph-name="amacron" unicode="&#x101;" horiz-adv-x="1104" 
d="M421 -12q-100 0 -177 37.5t-120.5 104.5t-43.5 155q0 97 35 160t101.5 100.5t156.5 57.5q64 14 135.5 23t132.5 14.5t94 7.5v44q0 111 -44.5 166.5t-150.5 55.5q-68 0 -114 -16.5t-69.5 -62t-25.5 -132.5h-215q-11 141 40.5 231.5t154 134t242.5 43.5q83 0 156.5 -18.5
t130.5 -63t90 -121.5t33 -195v-714h-231l3 245q-19 -111 -96 -184t-218 -73zM484 166q52 0 105.5 18t94 52t51.5 80v200q-40 -4 -94.5 -14t-93.5 -18q-112 -23 -161.5 -60.5t-49.5 -114.5q0 -44 20.5 -76.5t54.5 -49.5t73 -17zM291 1277v194h508l-3 -194h-505z" />
    <glyph glyph-name="Abreve" unicode="&#x102;" horiz-adv-x="1324" 
d="M28 0l479 1454h310l479 -1454h-251l-133 437l135 -95h-718l74 198h583l-75 -100l-157 510l-89 329h-8l-87 -329l-292 -950h-250zM662 1600q-136 0 -203.5 75.5t-67.5 224.5h172q-8 -87 19.5 -121.5t79.5 -34.5t79.5 34.5t19.5 121.5h172q0 -149 -67 -224.5t-204 -75.5z
" />
    <glyph glyph-name="abreve" unicode="&#x103;" horiz-adv-x="1104" 
d="M421 -12q-100 0 -177 37.5t-120.5 104.5t-43.5 155q0 97 35 160t101.5 100.5t156.5 57.5q64 14 135.5 23t132.5 14.5t94 7.5v44q0 111 -44.5 166.5t-150.5 55.5q-68 0 -114 -16.5t-69.5 -62t-25.5 -132.5h-215q-11 141 40.5 231.5t154 134t242.5 43.5q83 0 156.5 -18.5
t130.5 -63t90 -121.5t33 -195v-714h-231l3 245q-19 -111 -96 -184t-218 -73zM484 166q52 0 105.5 18t94 52t51.5 80v200q-40 -4 -94.5 -14t-93.5 -18q-112 -23 -161.5 -60.5t-49.5 -114.5q0 -44 20.5 -76.5t54.5 -49.5t73 -17zM545 1255q-132 0 -197 75.5t-65 225.5h172
q-7 -89 18.5 -123.5t71.5 -34.5q47 0 72.5 34.5t17.5 123.5h172q0 -150 -65 -225.5t-197 -75.5z" />
    <glyph glyph-name="Aogonek" unicode="&#x104;" horiz-adv-x="1324" 
d="M28 0l479 1454h310l479 -1454h-251l-133 437l135 -95h-718l74 198h583l-75 -100l-157 510l-89 329h-8l-87 -329l-292 -950h-250zM1134 -400q-93 0 -148.5 50t-55.5 134q0 46 24.5 89t85 77t167.5 50h90q-88 -43 -131 -85t-43 -90q0 -70 73 -70q55 0 98 22l1 -145
q-43 -19 -76.5 -25.5t-84.5 -6.5z" />
    <glyph glyph-name="aogonek" unicode="&#x105;" horiz-adv-x="1104" 
d="M421 -12q-100 0 -177 37.5t-120.5 104.5t-43.5 155q0 97 35 160t101.5 100.5t156.5 57.5q64 14 135.5 23t132.5 14.5t94 7.5v44q0 111 -44.5 166.5t-150.5 55.5q-68 0 -114 -16.5t-69.5 -62t-25.5 -132.5h-215q-11 141 40.5 231.5t154 134t242.5 43.5q83 0 156.5 -18.5
t130.5 -63t90 -121.5t33 -195v-714h-231l3 245q-19 -111 -96 -184t-218 -73zM484 166q52 0 105.5 18t94 52t51.5 80v200q-40 -4 -94.5 -14t-93.5 -18q-112 -23 -161.5 -60.5t-49.5 -114.5q0 -44 20.5 -76.5t54.5 -49.5t73 -17zM799 -400q-93 0 -148.5 50t-55.5 134
q0 46 24.5 89t85 77t167.5 50h90q-88 -43 -131 -85t-43 -90q0 -70 73 -70q55 0 98 22l1 -145q-43 -19 -76.5 -25.5t-84.5 -6.5z" />
    <glyph glyph-name="Cacute" unicode="&#x106;" horiz-adv-x="1370" 
d="M742 -21q-185 0 -331 85t-230.5 252t-84.5 414q0 232 82.5 400.5t229.5 259.5t341 91q139 0 261.5 -54t199.5 -163.5t81 -277.5h-241q-6 100 -51 161t-113.5 88t-147.5 27q-108 0 -198.5 -61t-146 -180t-55.5 -292q0 -200 57 -316t150 -165.5t200 -49.5q113 0 178 35
t94.5 93.5t34.5 126.5h241q-8 -149 -73.5 -255t-185.5 -162.5t-292 -56.5zM620 1618l197 282h253l-234 -282h-216z" />
    <glyph glyph-name="cacute" unicode="&#x107;" horiz-adv-x="1073" 
d="M595 -19q-162 0 -278 71.5t-177.5 199.5t-61.5 297q0 178 63 304t175 192.5t258 66.5q145 0 243.5 -53.5t147.5 -143t45 -199.5h-227q-1 44 -14 80.5t-38.5 62t-64.5 39.5t-91 14q-140 1 -198.5 -96t-58.5 -262q0 -188 70.5 -280.5t220.5 -93.5q35 0 76.5 20.5t71 59
t28.5 92.5h225q4 -115 -54.5 -198t-154.5 -128t-206 -45zM452 1277l197 278h253l-234 -278h-216z" />
    <glyph glyph-name="Cdotaccent" unicode="&#x10a;" horiz-adv-x="1370" 
d="M742 -21q-185 0 -331 85t-230.5 252t-84.5 414q0 232 82.5 400.5t229.5 259.5t341 91q139 0 261.5 -54t199.5 -163.5t81 -277.5h-241q-6 100 -51 161t-113.5 88t-147.5 27q-108 0 -198.5 -61t-146 -180t-55.5 -292q0 -200 57 -316t150 -165.5t200 -49.5q113 0 178 35
t94.5 93.5t34.5 126.5h241q-8 -149 -73.5 -255t-185.5 -162.5t-292 -56.5zM733 1600q-59 0 -102.5 45.5t-43.5 108.5q0 65 43.5 108.5t102.5 43.5q61 0 104 -43.5t43 -108.5q0 -63 -44 -108.5t-103 -45.5z" />
    <glyph glyph-name="cdotaccent" unicode="&#x10b;" horiz-adv-x="1073" 
d="M595 -19q-162 0 -278 71.5t-177.5 199.5t-61.5 297q0 178 63 304t175 192.5t258 66.5q145 0 243.5 -53.5t147.5 -143t45 -199.5h-227q-1 44 -14 80.5t-38.5 62t-64.5 39.5t-91 14q-140 1 -198.5 -96t-58.5 -262q0 -188 70.5 -280.5t220.5 -93.5q35 0 76.5 20.5t71 59
t28.5 92.5h225q4 -115 -54.5 -198t-154.5 -128t-206 -45zM569 1255q-64 0 -109.5 43t-45.5 112q0 74 45.5 116.5t109.5 42.5t109.5 -42.5t45.5 -116.5q0 -69 -45.5 -112t-109.5 -43z" />
    <glyph glyph-name="Ccaron" unicode="&#x10c;" horiz-adv-x="1370" 
d="M742 -21q-185 0 -331 85t-230.5 252t-84.5 414q0 232 82.5 400.5t229.5 259.5t341 91q139 0 261.5 -54t199.5 -163.5t81 -277.5h-241q-6 100 -51 161t-113.5 88t-147.5 27q-108 0 -198.5 -61t-146 -180t-55.5 -292q0 -200 57 -316t150 -165.5t200 -49.5q113 0 178 35
t94.5 93.5t34.5 126.5h241q-8 -149 -73.5 -255t-185.5 -162.5t-292 -56.5zM636 1618l-210 282h174l133 -155l133 155h174l-210 -282h-194z" />
    <glyph glyph-name="ccaron" unicode="&#x10d;" horiz-adv-x="1073" 
d="M595 -19q-162 0 -278 71.5t-177.5 199.5t-61.5 297q0 178 63 304t175 192.5t258 66.5q145 0 243.5 -53.5t147.5 -143t45 -199.5h-227q-1 44 -14 80.5t-38.5 62t-64.5 39.5t-91 14q-140 1 -198.5 -96t-58.5 -262q0 -188 70.5 -280.5t220.5 -93.5q35 0 76.5 20.5t71 59
t28.5 92.5h225q4 -115 -54.5 -198t-154.5 -128t-206 -45zM469 1277l-208 279h174l133 -137l134 137h174l-208 -279h-199z" />
    <glyph glyph-name="Dcaron" unicode="&#x10e;" horiz-adv-x="1354" 
d="M368 0v228h232q122 0 222 52t159.5 164t59.5 291q0 187 -59 296.5t-159 157t-224 47.5h-239v218h245q201 0 354.5 -76t241 -234.5t87.5 -406.5q0 -242 -91 -406t-245 -247.5t-345 -83.5h-239zM161 0v1454h239v-1454h-239zM574 1618l-210 282h174l133 -155l133 155h174
l-210 -282h-194z" />
    <glyph glyph-name="dcaron" unicode="&#x10f;" horiz-adv-x="1194" 
d="M513 -12q-141 0 -236 73t-143 200.5t-48 290.5q0 185 62.5 309.5t161.5 187.5t211 63q109 0 171 -36t91 -84t37 -86l69 -9l-82 -85q-8 25 -31.5 48.5t-67 38.5t-112.5 15q-117 0 -193 -86t-76 -281q0 -175 69.5 -271t181.5 -96q76 0 123.5 25t73.5 57.5t32 53.5l10 -34
l-10 -36q-5 -32 -20 -75.5t-47.5 -85.5t-87.5 -69.5t-139 -27.5zM808 0l-1 1556h235v-1556h-234zM1121 1277l30 330h214l-61 -330h-183z" />
    <glyph glyph-name="Dcroat" unicode="&#x110;" horiz-adv-x="1354" 
d="M368 0v228h232q122 0 222 52t159.5 164t59.5 291q0 187 -59 296.5t-159 157t-224 47.5h-239v218h245q201 0 354.5 -76t241 -234.5t87.5 -406.5q0 -242 -91 -406t-245 -247.5t-345 -83.5h-239zM161 0v1454h239v-1454h-239zM79 616v226h582l-3 -226h-579z" />
    <glyph glyph-name="dcroat" unicode="&#x111;" horiz-adv-x="1191" 
d="M512 -12q-141 0 -236 70.5t-143 198t-48 295.5q0 185 62.5 309.5t161.5 187.5t211 63q109 0 171 -36t91 -84t37 -86l69 -9l-82 -85q-6 27 -31 49.5t-70 37.5t-113 15q-118 0 -192 -86t-74 -281q0 -182 69.5 -274.5t181.5 -92.5q76 0 123.5 25t73.5 57.5t32 53.5l10 -34
l-10 -36q-5 -32 -20 -75.5t-47.5 -85.5t-87.5 -69.5t-139 -27.5zM807 0l-1 1556h235v-1556h-234zM531 1223v188h598l-1 -188h-597z" />
    <glyph glyph-name="Emacron" unicode="&#x112;" horiz-adv-x="1132" 
d="M161 0v1454h885v-220h-750l99 108v-549l-99 69h695v-217h-654l58 76v-608l-99 109h761v-222h-896zM336 1618v194h547l-3 -194h-544z" />
    <glyph glyph-name="emacron" unicode="&#x113;" horiz-adv-x="1106" 
d="M584 -15q-158 0 -273.5 64.5t-177.5 190.5t-62 309q0 178 65.5 304.5t180.5 193t264 66.5q147 0 251.5 -58t159.5 -171.5t55 -278.5q0 -32 -1.5 -53t-3.5 -50h-736q9 -167 82 -245.5t179 -78.5q99 0 151.5 42.5t67.5 95.5h228q-9 -105 -66 -179.5t-150.5 -113
t-213.5 -38.5zM414 663h398q-3 120 -58 185.5t-181 65.5q-131 0 -195 -87.5t-72 -241.5q8 45 34 61.5t74 16.5zM330 1277v194h508l-3 -194h-505z" />
    <glyph glyph-name="Ebreve" unicode="&#x114;" horiz-adv-x="1132" 
d="M161 0v1454h885v-220h-750l99 108v-549l-99 69h695v-217h-654l58 76v-608l-99 109h761v-222h-896zM610 1600q-136 0 -203.5 75.5t-67.5 224.5h172q-8 -87 19.5 -121.5t79.5 -34.5t79.5 34.5t19.5 121.5h172q0 -149 -67 -224.5t-204 -75.5z" />
    <glyph glyph-name="ebreve" unicode="&#x115;" horiz-adv-x="1106" 
d="M584 -15q-158 0 -273.5 64.5t-177.5 190.5t-62 309q0 178 65.5 304.5t180.5 193t264 66.5q147 0 251.5 -58t159.5 -171.5t55 -278.5q0 -32 -1.5 -53t-3.5 -50h-736q9 -167 82 -245.5t179 -78.5q99 0 151.5 42.5t67.5 95.5h228q-9 -105 -66 -179.5t-150.5 -113
t-213.5 -38.5zM414 663h398q-3 120 -58 185.5t-181 65.5q-131 0 -195 -87.5t-72 -241.5q8 45 34 61.5t74 16.5zM584 1255q-132 0 -197 75.5t-65 225.5h172q-7 -89 18.5 -123.5t71.5 -34.5q47 0 72.5 34.5t17.5 123.5h172q0 -150 -65 -225.5t-197 -75.5z" />
    <glyph glyph-name="Edotaccent" unicode="&#x116;" horiz-adv-x="1132" 
d="M161 0v1454h885v-220h-750l99 108v-549l-99 69h695v-217h-654l58 76v-608l-99 109h761v-222h-896zM610 1600q-59 0 -102.5 45.5t-43.5 108.5q0 65 43.5 108.5t102.5 43.5q61 0 104 -43.5t43 -108.5q0 -63 -44 -108.5t-103 -45.5z" />
    <glyph glyph-name="edotaccent" unicode="&#x117;" horiz-adv-x="1106" 
d="M584 -15q-158 0 -273.5 64.5t-177.5 190.5t-62 309q0 178 65.5 304.5t180.5 193t264 66.5q147 0 251.5 -58t159.5 -171.5t55 -278.5q0 -32 -1.5 -53t-3.5 -50h-736q9 -167 82 -245.5t179 -78.5q99 0 151.5 42.5t67.5 95.5h228q-9 -105 -66 -179.5t-150.5 -113
t-213.5 -38.5zM414 663h398q-3 120 -58 185.5t-181 65.5q-131 0 -195 -87.5t-72 -241.5q8 45 34 61.5t74 16.5zM584 1255q-64 0 -109.5 43t-45.5 112q0 74 45.5 116.5t109.5 42.5t109.5 -42.5t45.5 -116.5q0 -69 -45.5 -112t-109.5 -43z" />
    <glyph glyph-name="Eogonek" unicode="&#x118;" horiz-adv-x="1132" 
d="M161 0v1454h885v-220h-750l99 108v-549l-99 69h695v-217h-654l58 76v-608l-99 109h761v-222h-896zM897 -400q-93 0 -148.5 50t-55.5 134q0 46 24.5 89t85 77t167.5 50h90q-88 -43 -131 -85t-43 -90q0 -70 73 -70q55 0 98 22l1 -145q-43 -19 -76.5 -25.5t-84.5 -6.5z" />
    <glyph glyph-name="eogonek" unicode="&#x119;" horiz-adv-x="1105" 
d="M729 -401q-92 0 -148 51.5t-56 115.5q0 73 33.5 118.5t89 77t121.5 59.5l77 31q-39 -31 -69 -63t-45.5 -68.5t-15.5 -84.5q0 -41 21.5 -61t55.5 -20q21 0 47.5 5t50.5 17l1 -144q-43 -19 -82.5 -26.5t-80.5 -7.5zM584 -15q-158 0 -273.5 64.5t-177.5 190.5t-62 309
q0 178 65.5 304.5t180.5 193t264 66.5q147 0 251.5 -58t159.5 -171.5t55 -278.5q0 -28 -1.5 -52.5t-3.5 -39.5l-231 159q-2 121 -57 181.5t-181 60.5q-139 0 -201 -99t-64 -269q-1 -190 72.5 -279t186.5 -89q99 0 151.5 42.5t67.5 95.5h228q-9 -105 -66 -179.5t-150.5 -113
t-213.5 -38.5zM279 513l34 94q5 41 36 54t68 13h562l63 -161h-763z" />
    <glyph glyph-name="Ecaron" unicode="&#x11a;" horiz-adv-x="1132" 
d="M161 0v1454h885v-220h-750l99 108v-549l-99 69h695v-217h-654l58 76v-608l-99 109h761v-222h-896zM513 1618l-210 282h174l133 -155l133 155h174l-210 -282h-194z" />
    <glyph glyph-name="ecaron" unicode="&#x11b;" horiz-adv-x="1106" 
d="M584 -15q-158 0 -273.5 64.5t-177.5 190.5t-62 309q0 178 65.5 304.5t180.5 193t264 66.5q147 0 251.5 -58t159.5 -171.5t55 -278.5q0 -32 -1.5 -53t-3.5 -50h-736q9 -167 82 -245.5t179 -78.5q99 0 151.5 42.5t67.5 95.5h228q-9 -105 -66 -179.5t-150.5 -113
t-213.5 -38.5zM414 663h398q-3 120 -58 185.5t-181 65.5q-131 0 -195 -87.5t-72 -241.5q8 45 34 61.5t74 16.5zM484 1277l-208 279h174l133 -137l134 137h174l-208 -279h-199z" />
    <glyph glyph-name="Gbreve" unicode="&#x11e;" horiz-adv-x="1427" 
d="M771 -20q-205 0 -358 91.5t-236.5 260t-83.5 400.5q0 231 82.5 399t231.5 259t346 91q135 0 250 -49.5t191 -151t95 -258.5h-239q-7 50 -31.5 93.5t-63 76.5t-91 51.5t-116.5 18.5q-94 0 -170.5 -36t-130.5 -104.5t-83 -167t-29 -223.5q0 -167 52 -286t149.5 -182.5
t235.5 -63.5q57 0 114.5 10t108 30t83.5 50v274h-301v210h525l-2 -606q-108 -83 -240.5 -135t-288.5 -52zM742 1600q-136 0 -203.5 75.5t-67.5 224.5h172q-8 -87 19.5 -121.5t79.5 -34.5t79.5 34.5t19.5 121.5h172q0 -149 -67 -224.5t-204 -75.5z" />
    <glyph glyph-name="gbreve" unicode="&#x11f;" horiz-adv-x="1170" 
d="M588 -446q-133 0 -239.5 43.5t-164.5 132.5t-45 223h228q-1 -57 14 -102.5t63 -72.5t146 -27q85 0 130.5 24t61.5 73t16 127v296q-9 -47 -39 -99t-93 -87.5t-170 -35.5q-97 0 -173 43t-129 116t-80.5 164.5t-27.5 189.5q0 182 60.5 304t156.5 184t203 62q95 0 153.5 -26
t91.5 -63t48 -73l1 141h231v-1114q0 -148 -57.5 -241t-157.5 -136.5t-228 -45.5zM577 238q75 0 121 20.5t70 49t30 49.5v457q-10 24 -37 47t-71 38t-108 15q-111 0 -182 -82t-71 -257q0 -159 70.5 -248t177.5 -89zM539 1255q-132 0 -197 75.5t-65 225.5h172
q-7 -89 18.5 -123.5t71.5 -34.5q47 0 72.5 34.5t17.5 123.5h172q0 -150 -65 -225.5t-197 -75.5z" />
    <glyph glyph-name="Gdotaccent" unicode="&#x120;" horiz-adv-x="1427" 
d="M771 -20q-205 0 -358 91.5t-236.5 260t-83.5 400.5q0 231 82.5 399t231.5 259t346 91q135 0 250 -49.5t191 -151t95 -258.5h-239q-7 50 -31.5 93.5t-63 76.5t-91 51.5t-116.5 18.5q-94 0 -170.5 -36t-130.5 -104.5t-83 -167t-29 -223.5q0 -167 52 -286t149.5 -182.5
t235.5 -63.5q57 0 114.5 10t108 30t83.5 50v274h-301v210h525l-2 -606q-108 -83 -240.5 -135t-288.5 -52zM742 1600q-59 0 -102.5 45.5t-43.5 108.5q0 65 43.5 108.5t102.5 43.5q61 0 104 -43.5t43 -108.5q0 -63 -44 -108.5t-103 -45.5z" />
    <glyph glyph-name="gdotaccent" unicode="&#x121;" horiz-adv-x="1170" 
d="M588 -446q-133 0 -239.5 43.5t-164.5 132.5t-45 223h228q-1 -57 14 -102.5t63 -72.5t146 -27q85 0 130.5 24t61.5 73t16 127v296q-9 -47 -39 -99t-93 -87.5t-170 -35.5q-97 0 -173 43t-129 116t-80.5 164.5t-27.5 189.5q0 182 60.5 304t156.5 184t203 62q95 0 153.5 -26
t91.5 -63t48 -73l1 141h231v-1114q0 -148 -57.5 -241t-157.5 -136.5t-228 -45.5zM577 238q75 0 121 20.5t70 49t30 49.5v457q-10 24 -37 47t-71 38t-108 15q-111 0 -182 -82t-71 -257q0 -159 70.5 -248t177.5 -89zM539 1255q-64 0 -109.5 43t-45.5 112q0 74 45.5 116.5
t109.5 42.5t109.5 -42.5t45.5 -116.5q0 -69 -45.5 -112t-109.5 -43z" />
    <glyph glyph-name="uni0122" unicode="&#x122;" horiz-adv-x="1427" 
d="M771 -20q-205 0 -358 91.5t-236.5 260t-83.5 400.5q0 231 82.5 399t231.5 259t346 91q135 0 250 -49.5t191 -151t95 -258.5h-239q-7 50 -31.5 93.5t-63 76.5t-91 51.5t-116.5 18.5q-94 0 -170.5 -36t-130.5 -104.5t-83 -167t-29 -223.5q0 -167 52 -286t149.5 -182.5
t235.5 -63.5q57 0 114.5 10t108 30t83.5 50v274h-301v210h525l-2 -606q-108 -83 -240.5 -135t-288.5 -52zM536 -457q11 43 28.5 119t17.5 199v33h222v-48q0 -26 -7.5 -70t-20 -91t-26.5 -85.5t-27 -56.5h-187z" />
    <glyph glyph-name="uni0123" unicode="&#x123;" horiz-adv-x="1170" 
d="M588 -446q-133 0 -239.5 43.5t-164.5 132.5t-45 223h228q-1 -57 14 -102.5t63 -72.5t146 -27q85 0 130.5 24t61.5 73t16 127v296q-9 -47 -39 -99t-93 -87.5t-170 -35.5q-97 0 -173 43t-129 116t-80.5 164.5t-27.5 189.5q0 182 60.5 304t156.5 184t203 62q95 0 153.5 -26
t91.5 -63t48 -73l1 141h231v-1114q0 -148 -57.5 -241t-157.5 -136.5t-228 -45.5zM577 238q75 0 121 20.5t70 49t30 49.5v457q-10 24 -37 47t-71 38t-108 15q-111 0 -182 -82t-71 -257q0 -159 70.5 -248t177.5 -89zM428 1277v45q0 37 10.5 85.5t26.5 92.5t33 67h196
q-13 -44 -24.5 -108.5t-11.5 -151.5v-30h-230z" />
    <glyph glyph-name="Hbar" unicode="&#x126;" horiz-adv-x="1375" 
d="M976 0v1454h236v-1454h-236zM163 0v1454h236v-1454h-236zM330 529v204h686l-3 -204h-683zM-18 938v204h1411l-3 -204h-1408z" />
    <glyph glyph-name="hbar" unicode="&#x127;" horiz-adv-x="1164" 
d="M151 0v1556h234v-465l-16 -311l9 -88l-13 71q12 90 46.5 170.5t104 130.5t188.5 50q155 0 239.5 -96.5t84.5 -294.5v-723h-237v641q0 139 -41 199t-145 60q-74 0 -132 -48.5t-87 -107.5v-744h-235zM53 1223v188h610v-188h-610z" />
    <glyph glyph-name="Itilde" unicode="&#x128;" horiz-adv-x="549" 
d="M154 0v1454h241v-1454h-241zM405 1599q-61 0 -97.5 22t-60 50.5t-44 50.5t-50.5 22q-42 0 -62.5 -31.5t-21.5 -95.5h-156q-2 99 25.5 164.5t80 98t120.5 32.5q60 0 95 -22t58.5 -51t44 -51t50.5 -22q42 0 64 32t23 96h155q4 -143 -57 -219t-167 -76z" />
    <glyph glyph-name="itilde" unicode="&#x129;" horiz-adv-x="546" 
d="M154 0v1091h238l-4 -1091h-234zM404 1255q-58 0 -93.5 22.5t-58 51t-42.5 50.5t-48 22q-40 0 -60 -30t-21 -94h-150q-2 99 24.5 163.5t76.5 96t116 31.5q57 0 91.5 -21.5t56.5 -50.5t42 -51t48 -22q40 0 61.5 30t22.5 94h149q3 -144 -56 -218t-159 -74z" />
    <glyph glyph-name="Imacron" unicode="&#x12a;" horiz-adv-x="549" 
d="M154 0v1454h241v-1454h-241zM21 1640v194h508l-3 -194h-505z" />
    <glyph glyph-name="imacron" unicode="&#x12b;" horiz-adv-x="546" 
d="M154 0v1091h238l-4 -1091h-234zM20 1277v194h508l-3 -194h-505z" />
    <glyph glyph-name="Ibreve" unicode="&#x12c;" horiz-adv-x="549" 
d="M154 0v1454h241v-1454h-241zM275 1600q-136 0 -203.5 75.5t-67.5 224.5h172q-8 -87 19.5 -121.5t79.5 -34.5t79.5 34.5t19.5 121.5h172q0 -149 -67 -224.5t-204 -75.5z" />
    <glyph glyph-name="ibreve" unicode="&#x12d;" horiz-adv-x="546" 
d="M154 0v1091h238l-4 -1091h-234zM274 1255q-132 0 -197 75.5t-65 225.5h172q-7 -89 18.5 -123.5t71.5 -34.5q47 0 72.5 34.5t17.5 123.5h172q0 -150 -65 -225.5t-197 -75.5z" />
    <glyph glyph-name="Iogonek" unicode="&#x12e;" horiz-adv-x="549" 
d="M154 0v1454h241v-1454h-241zM232 -400q-93 0 -148.5 50t-55.5 134q0 46 24.5 89t85 77t167.5 50h90q-88 -43 -131 -85t-43 -90q0 -70 73 -70q55 0 98 22l1 -145q-43 -19 -76.5 -25.5t-84.5 -6.5z" />
    <glyph glyph-name="iogonek" unicode="&#x12f;" horiz-adv-x="546" 
d="M154 0v1091h238l-4 -1091h-234zM274 1255q-64 0 -109.5 43t-45.5 112q0 74 45.5 116.5t109.5 42.5t109.5 -42.5t45.5 -116.5q0 -69 -45.5 -112t-109.5 -43zM225 -400q-93 0 -148.5 50t-55.5 134q0 46 24.5 89t85 77t167.5 50h90q-88 -43 -131 -85t-43 -90q0 -70 73 -70
q55 0 98 22l1 -145q-43 -19 -76.5 -25.5t-84.5 -6.5z" />
    <glyph glyph-name="Idotaccent" unicode="&#x130;" horiz-adv-x="549" 
d="M154 0v1454h241v-1454h-241zM274 1600q-59 0 -102.5 45.5t-43.5 108.5q0 65 43.5 108.5t102.5 43.5q61 0 104 -43.5t43 -108.5q0 -63 -44 -108.5t-103 -45.5z" />
    <glyph glyph-name="dotlessi" unicode="&#x131;" horiz-adv-x="546" 
d="M154 0v1091h238l-4 -1091h-234z" />
    <glyph glyph-name="IJ" unicode="&#x132;" horiz-adv-x="1565" 
d="M154 0v1454h241v-1454h-241zM1006 -30q-117 0 -216.5 38.5t-160 133.5t-64.5 265h225q-1 -115 52 -168t159 -53q61 0 105 18t67 73.5t23 168.5v1008h242v-988q0 -175 -48.5 -284t-144.5 -160.5t-239 -51.5z" />
    <glyph glyph-name="ij" unicode="&#x133;" horiz-adv-x="1085" 
d="M154 0v1091h239l-3 -1091h-236zM275 1253q-65 0 -110 45.5t-45 116.5q0 70 45 114t110 44q63 0 108.5 -44t45.5 -114q0 -71 -45.5 -116.5t-108.5 -45.5zM678 -460q-57 0 -94.5 9t-69.5 20v216q13 -5 38.5 -12t53.5 -7q35 0 61 23t26 81v1221h239l-4 -1143
q0 -24 0.5 -48.5t0.5 -48.5q0 -79 -21 -150t-75 -116t-155 -45zM811 1253q-64 0 -109.5 45t-45.5 116t45.5 115t109.5 44t109.5 -44t45.5 -115t-45.5 -116t-109.5 -45z" />
    <glyph glyph-name="uni0136" unicode="&#x136;" horiz-adv-x="1257" 
d="M392 403l-32 230l177 281l383 540h296l-503 -672l-76 -63zM161 0v1454h239v-1454h-239zM964 0l-430 776l185 117l521 -893h-276zM475 -457q11 43 28.5 119t17.5 199v33h222v-48q0 -26 -7.5 -70t-20 -91t-26.5 -85.5t-27 -56.5h-187z" />
    <glyph glyph-name="uni0137" unicode="&#x137;" horiz-adv-x="1078" 
d="M780 0l-412 595l215 31l105 -118l396 -508h-304zM152 0v1556h234v-809l-14 -149v-8l14 -155v-435h-234zM584 562l-216 33l181 254l187 242h312l-361 -407zM358 -457q11 43 28.5 119t17.5 199v33h222v-48q0 -26 -7.5 -70t-20 -91t-26.5 -85.5t-27 -56.5h-187z" />
    <glyph glyph-name="Lacute" unicode="&#x139;" horiz-adv-x="1070" 
d="M161 0v1454h238v-1356l-115 126h721v-224h-844zM165 1618l197 282h253l-234 -282h-216z" />
    <glyph glyph-name="lacute" unicode="&#x13a;" horiz-adv-x="545" 
d="M154 0v1556h236v-1556h-236zM160 1700l197 282h253l-234 -282h-216z" />
    <glyph glyph-name="uni013B" unicode="&#x13b;" horiz-adv-x="1070" 
d="M161 0v1454h238v-1356l-115 126h721v-224h-844zM354 -457q11 43 28.5 119t17.5 199v33h222v-48q0 -26 -7.5 -70t-20 -91t-26.5 -85.5t-27 -56.5h-187z" />
    <glyph glyph-name="uni013C" unicode="&#x13c;" horiz-adv-x="545" 
d="M154 0v1556h236v-1556h-236zM91 -457q11 43 28.5 119t17.5 199v33h222v-48q0 -26 -7.5 -70t-20 -91t-26.5 -85.5t-27 -56.5h-187z" />
    <glyph glyph-name="Lcaron" unicode="&#x13d;" horiz-adv-x="1070" 
d="M161 0v1454h238v-1356l-115 126h721v-224h-844zM649 1277l30 330h214l-61 -330h-183z" />
    <glyph glyph-name="lcaron" unicode="&#x13e;" horiz-adv-x="545" 
d="M154 0v1556h236v-1556h-236zM475 1277l30 330h214l-61 -330h-183z" />
    <glyph glyph-name="Ldot" unicode="&#x13f;" horiz-adv-x="1316" 
d="M161 0v1454h238v-1356l-115 126h721v-224h-844zM1103 646q-64 0 -108.5 44.5t-44.5 116.5q0 70 44.5 115t108.5 45t108.5 -45t44.5 -115q0 -72 -44.5 -116.5t-108.5 -44.5z" />
    <glyph glyph-name="ldot" unicode="&#x140;" horiz-adv-x="933" 
d="M154 0v1556h236v-1556h-236zM730 616q-64 0 -108.5 44.5t-44.5 116.5q0 70 44.5 115t108.5 45t108.5 -45t44.5 -115q0 -72 -44.5 -116.5t-108.5 -44.5z" />
    <glyph glyph-name="Lslash" unicode="&#x141;" horiz-adv-x="1070" 
d="M161 0v1454h238v-1356l-115 126h721v-224h-844zM44 563v227l212 107l72 20l372 184l-4 -230l-359 -176l-72 -21z" />
    <glyph glyph-name="lslash" unicode="&#x142;" horiz-adv-x="545" 
d="M154 0v1556h236v-1556h-236zM27 566v228l506 316l-4 -227z" />
    <glyph glyph-name="Nacute" unicode="&#x143;" horiz-adv-x="1414" 
d="M161 0v1454h264l492 -880l132 -305h8l-38 323v862h235v-1454h-265l-487 872l-128 298h-9l31 -339v-831h-235zM592 1618l197 282h253l-234 -282h-216z" />
    <glyph glyph-name="nacute" unicode="&#x144;" horiz-adv-x="1174" 
d="M152 0v1091h202l26 -411l-17 83q12 90 47.5 170.5t106.5 130.5t190 50q155 0 240 -96.5t85 -294.5v-723h-236v641q0 94 -18.5 151t-59.5 82.5t-109 25.5q-74 0 -134.5 -43.5t-86.5 -98.5v-758h-236zM475 1277l197 278h253l-234 -278h-216z" />
    <glyph glyph-name="uni0145" unicode="&#x145;" horiz-adv-x="1414" 
d="M161 0v1454h264l492 -880l132 -305h8l-38 323v862h235v-1454h-265l-487 872l-128 298h-9l31 -339v-831h-235zM539 -457q11 43 28.5 119t17.5 199v33h222v-48q0 -26 -7.5 -70t-20 -91t-26.5 -85.5t-27 -56.5h-187z" />
    <glyph glyph-name="uni0146" unicode="&#x146;" horiz-adv-x="1174" 
d="M152 0v1091h202l26 -411l-17 83q12 90 47.5 170.5t106.5 130.5t190 50q155 0 240 -96.5t85 -294.5v-723h-236v641q0 94 -18.5 151t-59.5 82.5t-109 25.5q-74 0 -134.5 -43.5t-86.5 -98.5v-758h-236zM406 -457q11 43 28.5 119t17.5 199v33h222v-48q0 -26 -7.5 -70t-20 -91
t-26.5 -85.5t-27 -56.5h-187z" />
    <glyph glyph-name="Ncaron" unicode="&#x147;" horiz-adv-x="1414" 
d="M161 0v1454h264l492 -880l132 -305h8l-38 323v862h235v-1454h-265l-487 872l-128 298h-9l31 -339v-831h-235zM608 1618l-210 282h174l133 -155l133 155h174l-210 -282h-194z" />
    <glyph glyph-name="ncaron" unicode="&#x148;" horiz-adv-x="1174" 
d="M152 0v1091h202l26 -411l-17 83q12 90 47.5 170.5t106.5 130.5t190 50q155 0 240 -96.5t85 -294.5v-723h-236v641q0 94 -18.5 151t-59.5 82.5t-109 25.5q-74 0 -134.5 -43.5t-86.5 -98.5v-758h-236zM492 1277l-208 279h174l133 -137l134 137h174l-208 -279h-199z" />
    <glyph glyph-name="Eng" unicode="&#x14a;" horiz-adv-x="1442" 
d="M847 -462q-8 0 -24 1t-33 4v213q15 -3 29.5 -4t22.5 -1q60 0 103 16.5t67 68t25 156.5l-545 880l-103 289h-21l29 -315v-846h-234v1454h248l544 -879l117 -291h11l-38 307v863h234v-1454q-3 -161 -53 -263.5t-144.5 -150.5t-234.5 -48z" />
    <glyph glyph-name="eng" unicode="&#x14b;" horiz-adv-x="1159" 
d="M773 -460q-57 0 -94.5 9t-69.5 20v216q13 -5 38.5 -12t52.5 -7q36 0 62 23t26 81v771q0 94 -19 151t-59.5 82.5t-107.5 25.5q-74 0 -134 -43.5t-86 -98.5v-758h-236v1091h202l17 -276q17 79 54 147.5t104.5 110t174.5 41.5q155 0 239.5 -96.5t85.5 -294.5v-775
q0 -24 0.5 -48.5t0.5 -48.5q0 -79 -21 -150t-75 -116t-155 -45z" />
    <glyph glyph-name="Omacron" unicode="&#x14c;" horiz-adv-x="1466" 
d="M732 -30q-177 0 -322 88t-231 259t-86 419q0 240 82 407t226.5 253.5t331.5 86.5q182 0 327 -86.5t229 -253.5t84 -407q0 -248 -83.5 -419t-228.5 -259t-329 -88zM732 188q112 0 202 58.5t143.5 179t53.5 308.5q0 178 -53 296t-143 176.5t-202 58.5q-107 0 -197.5 -58.5
t-145.5 -176.5t-55 -296q0 -141 31.5 -244t87 -170t127 -99.5t151.5 -32.5zM460 1618v194h547l-3 -194h-544z" />
    <glyph glyph-name="omacron" unicode="&#x14d;" horiz-adv-x="1159" 
d="M577 -15q-151 0 -263 65t-174 191.5t-62 310.5q0 174 65.5 300t179.5 193.5t258 67.5q156 0 267.5 -67.5t171.5 -193.5t60 -300q0 -184 -66.5 -310.5t-180.5 -191.5t-256 -65zM581 186q115 0 188 86t73 280q0 180 -71 270t-194 90q-115 0 -187.5 -89t-72.5 -271
q0 -185 73.5 -275.5t190.5 -90.5zM326 1277v194h508l-3 -194h-505z" />
    <glyph glyph-name="Obreve" unicode="&#x14e;" horiz-adv-x="1466" 
d="M732 -30q-177 0 -322 88t-231 259t-86 419q0 240 82 407t226.5 253.5t331.5 86.5q182 0 327 -86.5t229 -253.5t84 -407q0 -248 -83.5 -419t-228.5 -259t-329 -88zM732 188q112 0 202 58.5t143.5 179t53.5 308.5q0 178 -53 296t-143 176.5t-202 58.5q-107 0 -197.5 -58.5
t-145.5 -176.5t-55 -296q0 -141 31.5 -244t87 -170t127 -99.5t151.5 -32.5zM734 1600q-136 0 -203.5 75.5t-67.5 224.5h172q-8 -87 19.5 -121.5t79.5 -34.5t79.5 34.5t19.5 121.5h172q0 -149 -67 -224.5t-204 -75.5z" />
    <glyph glyph-name="obreve" unicode="&#x14f;" horiz-adv-x="1159" 
d="M577 -15q-151 0 -263 65t-174 191.5t-62 310.5q0 174 65.5 300t179.5 193.5t258 67.5q156 0 267.5 -67.5t171.5 -193.5t60 -300q0 -184 -66.5 -310.5t-180.5 -191.5t-256 -65zM581 186q115 0 188 86t73 280q0 180 -71 270t-194 90q-115 0 -187.5 -89t-72.5 -271
q0 -185 73.5 -275.5t190.5 -90.5zM580 1255q-132 0 -197 75.5t-65 225.5h172q-7 -89 18.5 -123.5t71.5 -34.5q47 0 72.5 34.5t17.5 123.5h172q0 -150 -65 -225.5t-197 -75.5z" />
    <glyph glyph-name="Ohungarumlaut" unicode="&#x150;" horiz-adv-x="1466" 
d="M732 -30q-177 0 -322 88t-231 259t-86 419q0 240 82 407t226.5 253.5t331.5 86.5q182 0 327 -86.5t229 -253.5t84 -407q0 -248 -83.5 -419t-228.5 -259t-329 -88zM732 188q112 0 202 58.5t143.5 179t53.5 308.5q0 178 -53 296t-143 176.5t-202 58.5q-107 0 -197.5 -58.5
t-145.5 -176.5t-55 -296q0 -141 31.5 -244t87 -170t127 -99.5t151.5 -32.5zM814 1618l163 282h231l-200 -282h-194zM464 1618l161 282h231l-198 -282h-194z" />
    <glyph glyph-name="ohungarumlaut" unicode="&#x151;" horiz-adv-x="1159" 
d="M577 -15q-151 0 -263 65t-174 191.5t-62 310.5q0 174 65.5 300t179.5 193.5t258 67.5q156 0 267.5 -67.5t171.5 -193.5t60 -300q0 -184 -66.5 -310.5t-180.5 -191.5t-256 -65zM581 186q115 0 188 86t73 280q0 180 -71 270t-194 90q-115 0 -187.5 -89t-72.5 -271
q0 -185 73.5 -275.5t190.5 -90.5zM662 1277l163 279h231l-199 -279h-195zM314 1277l151 279h231l-188 -279h-194z" />
    <glyph glyph-name="OE" unicode="&#x152;" horiz-adv-x="2071" 
d="M701 -20q-168 0 -306 88t-220 257t-82 413q0 240 79.5 406t216 252.5t306.5 86.5q104 0 183.5 -28.5t136 -77.5t88 -109t37.5 -124t-13 -123l-31 14l7 419h882v-220h-653v-372h604v-217h-604v-423h664v-222h-892l-8 375l28 7q19 -103 -11.5 -178.5t-94 -125t-146.5 -74
t-171 -24.5zM719 199q106 0 193 56.5t138.5 174.5t51.5 301q0 182 -51 300t-137.5 175.5t-194.5 57.5q-109 0 -195.5 -58.5t-137.5 -176.5t-51 -298q0 -181 51 -299.5t138.5 -175.5t194.5 -57z" />
    <glyph glyph-name="oe" unicode="&#x153;" horiz-adv-x="1878" 
d="M557 -15q-140 0 -248.5 65.5t-169.5 190t-61 301.5q0 182 64.5 309.5t176 194.5t254.5 67q140 0 237 -52t154 -143q63 93 162.5 144t232.5 51q137 0 240 -58t161.5 -170.5t58.5 -275.5q0 -32 -2 -56.5t-3 -39.5h-738q8 -178 81.5 -256.5t185.5 -78.5q95 0 148.5 44
t65.5 94h228q-13 -158 -131.5 -244.5t-295.5 -86.5q-140 0 -240.5 51t-160.5 143q-62 -93 -162.5 -143.5t-237.5 -50.5zM576 186q80 0 140 37.5t93 117.5t33 207q0 183 -69 273.5t-198 90.5q-118 0 -188 -88.5t-70 -271.5q0 -184 70.5 -275t188.5 -91zM1080 605
q6 42 38 55.5t70 13.5h395q-2 76 -27.5 129.5t-76.5 82t-128 28.5q-126 0 -194.5 -80t-76.5 -229z" />
    <glyph glyph-name="Racute" unicode="&#x154;" horiz-adv-x="1246" 
d="M933 0l-343 572h-219l-67 15l29 160v32h239q89 0 142 29t76.5 83t23.5 129q0 87 -31.5 132.5t-85.5 62.5t-121 17l-187 1l-8 55l-78 166h89h90.5h106.5q139 0 244 -43.5t164 -135t59 -235.5q0 -96 -35.5 -186.5t-109.5 -156t-190 -88.5l-15 15q43 0 71 -6.5t52 -28.5
t53 -67l338 -522h-287zM161 0v1454h234v-1454h-234zM456 1618l197 282h253l-234 -282h-216z" />
    <glyph glyph-name="racute" unicode="&#x155;" horiz-adv-x="786" 
d="M152 0v1091h202l26 -420l-21 58q7 66 26.5 134t56 125t94 91.5t140.5 34.5q20 0 40 -2t37 -7v-252q-34 11 -72.5 14.5t-70.5 3.5q-39 0 -84 -15.5t-83 -46.5t-55 -77v-732h-236zM307 1277l197 278h253l-234 -278h-216z" />
    <glyph glyph-name="uni0156" unicode="&#x156;" horiz-adv-x="1246" 
d="M933 0l-343 572h-219l-67 15l29 160v32h239q89 0 142 29t76.5 83t23.5 129q0 87 -31.5 132.5t-85.5 62.5t-121 17l-187 1l-8 55l-78 166h89h90.5h106.5q139 0 244 -43.5t164 -135t59 -235.5q0 -96 -35.5 -186.5t-109.5 -156t-190 -88.5l-15 15q43 0 71 -6.5t52 -28.5
t53 -67l338 -522h-287zM161 0v1454h234v-1454h-234zM437 -457q11 43 28.5 119t17.5 199v33h222v-48q0 -26 -7.5 -70t-20 -91t-26.5 -85.5t-27 -56.5h-187z" />
    <glyph glyph-name="uni0157" unicode="&#x157;" horiz-adv-x="786" 
d="M152 0v1091h202l26 -420l-21 58q7 66 26.5 134t56 125t94 91.5t140.5 34.5q20 0 40 -2t37 -7v-252q-34 11 -72.5 14.5t-70.5 3.5q-39 0 -84 -15.5t-83 -46.5t-55 -77v-732h-236zM99 -457q11 43 28.5 119t17.5 199v33h222v-48q0 -26 -7.5 -70t-20 -91t-26.5 -85.5
t-27 -56.5h-187z" />
    <glyph glyph-name="Rcaron" unicode="&#x158;" horiz-adv-x="1246" 
d="M933 0l-343 572h-219l-67 15l29 160v32h239q89 0 142 29t76.5 83t23.5 129q0 87 -31.5 132.5t-85.5 62.5t-121 17l-187 1l-8 55l-78 166h89h90.5h106.5q139 0 244 -43.5t164 -135t59 -235.5q0 -96 -35.5 -186.5t-109.5 -156t-190 -88.5l-15 15q43 0 71 -6.5t52 -28.5
t53 -67l338 -522h-287zM161 0v1454h234v-1454h-234zM472 1618l-210 282h174l133 -155l133 155h174l-210 -282h-194z" />
    <glyph glyph-name="rcaron" unicode="&#x159;" horiz-adv-x="786" 
d="M152 0v1091h202l26 -420l-21 58q7 66 26.5 134t56 125t94 91.5t140.5 34.5q20 0 40 -2t37 -7v-252q-34 11 -72.5 14.5t-70.5 3.5q-39 0 -84 -15.5t-83 -46.5t-55 -77v-732h-236zM324 1277l-208 279h174l133 -137l134 137h174l-208 -279h-199z" />
    <glyph glyph-name="Sacute" unicode="&#x15a;" horiz-adv-x="1151" 
d="M590 -20q-160 0 -277 51t-182 153.5t-68 257.5h228q4 -84 41.5 -141t106 -85t165.5 -28q93 0 152 22t87 62.5t28 95.5q0 60 -34 101.5t-107.5 78t-194.5 78.5q-125 43 -218.5 105t-145 147.5t-51.5 200.5q0 194 127 296t348 102q153 0 248 -47t143.5 -138.5t64.5 -226.5
h-229q-9 69 -37 114t-76.5 67.5t-121.5 22.5q-113 0 -174 -45.5t-61 -135.5q0 -51 19.5 -93t81 -83t185.5 -90q96 -38 180.5 -72.5t149 -79.5t101.5 -112t38 -170q2 -198 -129.5 -303t-387.5 -105zM462 1618l197 282h253l-234 -282h-216z" />
    <glyph glyph-name="sacute" unicode="&#x15b;" horiz-adv-x="1027" 
d="M519 -17q-123 0 -219.5 36t-153 111.5t-62.5 193.5h228q13 -84 67.5 -119t134.5 -35q58 0 103.5 11.5t72 39t26.5 74.5q0 33 -14.5 54.5t-44 37.5t-74 30t-102.5 31q-104 30 -189 71t-135 107.5t-50 173.5q0 146 108 228.5t278 82.5q110 0 198.5 -31.5t145.5 -104
t74 -196.5l-228 1q-15 58 -44 89.5t-66.5 44t-81.5 12.5q-48 0 -83 -15t-54 -42t-19 -65q0 -44 25.5 -73.5t77 -51t128.5 -44.5q62 -18 128 -39.5t123 -54.5t92 -87.5t35 -141.5q0 -155 -116.5 -242t-308.5 -87zM395 1277l197 278h253l-234 -278h-216z" />
    <glyph glyph-name="Scedilla" unicode="&#x15e;" horiz-adv-x="1151" 
d="M590 -20q-160 0 -277 51t-182 153.5t-68 257.5h228q4 -84 41.5 -141t106 -85t165.5 -28q93 0 152 22t87 62.5t28 95.5q0 60 -34 101.5t-107.5 78t-194.5 78.5q-125 43 -218.5 105t-145 147.5t-51.5 200.5q0 194 127 296t348 102q153 0 248 -47t143.5 -138.5t64.5 -226.5
h-229q-9 69 -37 114t-76.5 67.5t-121.5 22.5q-113 0 -174 -45.5t-61 -135.5q0 -51 19.5 -93t81 -83t185.5 -90q96 -38 180.5 -72.5t149 -79.5t101.5 -112t38 -170q2 -198 -129.5 -303t-387.5 -105zM654 -413q-47 0 -88.5 9.5t-87.5 28.5l1 149q54 -26 110 -26q36 0 56 19
t20 54q0 47 -43.5 91.5t-136.5 87.5h209q83 -34 126.5 -91t43.5 -129q0 -88 -58 -140.5t-152 -52.5z" />
    <glyph glyph-name="scedilla" unicode="&#x15f;" horiz-adv-x="1027" 
d="M519 -17q-123 0 -219.5 36t-153 111.5t-62.5 193.5h228q13 -84 67.5 -119t134.5 -35q58 0 103.5 11.5t72 39t26.5 74.5q0 33 -14.5 54.5t-44 37.5t-74 30t-102.5 31q-104 30 -189 71t-135 107.5t-50 173.5q0 146 108 228.5t278 82.5q110 0 198.5 -31.5t145.5 -104
t74 -196.5l-228 1q-15 58 -44 89.5t-66.5 44t-81.5 12.5q-48 0 -83 -15t-54 -42t-19 -65q0 -44 25.5 -73.5t77 -51t128.5 -44.5q62 -18 128 -39.5t123 -54.5t92 -87.5t35 -141.5q0 -155 -116.5 -242t-308.5 -87zM530 -399q-45 0 -81.5 9t-80.5 28l1 143q52 -26 99 -26
q54 0 68.5 23t14.5 59q0 46 -26.5 83.5t-86.5 79.5h71q122 -34 178 -89.5t56 -124.5q0 -85 -60.5 -135t-152.5 -50z" />
    <glyph glyph-name="Scaron" unicode="&#x160;" horiz-adv-x="1151" 
d="M590 -20q-160 0 -277 51t-182 153.5t-68 257.5h228q4 -84 41.5 -141t106 -85t165.5 -28q93 0 152 22t87 62.5t28 95.5q0 60 -34 101.5t-107.5 78t-194.5 78.5q-125 43 -218.5 105t-145 147.5t-51.5 200.5q0 194 127 296t348 102q153 0 248 -47t143.5 -138.5t64.5 -226.5
h-229q-9 69 -37 114t-76.5 67.5t-121.5 22.5q-113 0 -174 -45.5t-61 -135.5q0 -51 19.5 -93t81 -83t185.5 -90q96 -38 180.5 -72.5t149 -79.5t101.5 -112t38 -170q2 -198 -129.5 -303t-387.5 -105zM478 1618l-210 282h174l133 -155l133 155h174l-210 -282h-194z" />
    <glyph glyph-name="scaron" unicode="&#x161;" horiz-adv-x="1027" 
d="M519 -17q-123 0 -219.5 36t-153 111.5t-62.5 193.5h228q13 -84 67.5 -119t134.5 -35q58 0 103.5 11.5t72 39t26.5 74.5q0 33 -14.5 54.5t-44 37.5t-74 30t-102.5 31q-104 30 -189 71t-135 107.5t-50 173.5q0 146 108 228.5t278 82.5q110 0 198.5 -31.5t145.5 -104
t74 -196.5l-228 1q-15 58 -44 89.5t-66.5 44t-81.5 12.5q-48 0 -83 -15t-54 -42t-19 -65q0 -44 25.5 -73.5t77 -51t128.5 -44.5q62 -18 128 -39.5t123 -54.5t92 -87.5t35 -141.5q0 -155 -116.5 -242t-308.5 -87zM413 1277l-208 279h174l133 -137l134 137h174l-208 -279h-199
z" />
    <glyph glyph-name="uni0162" unicode="&#x162;" horiz-adv-x="1117" 
d="M439 0v1146q0 36 14.5 58t41.5 30h-427v220h981v-220h-370v-1234h-240zM617 -413q-47 0 -88.5 9.5t-87.5 28.5l1 149q54 -26 110 -26q36 0 56 19t20 54q0 47 -43.5 91.5t-136.5 87.5h209q83 -34 126.5 -91t43.5 -129q0 -88 -58 -140.5t-152 -52.5z" />
    <glyph glyph-name="uni0163" unicode="&#x163;" horiz-adv-x="789" 
d="M484 -16q-130 0 -202.5 66.5t-72.5 190.5v552q0 33 14 59.5t41 33.5l-55 162v29l53 327h180v-1104q0 -58 25.5 -81t95.5 -23q45 0 83 0.5t69 1.5v-201q-52 -9 -114 -11t-117 -2zM66 886v205h651v-205h-651zM546 -399q-45 0 -81.5 9t-80.5 28l1 143q52 -26 99 -26
q54 0 68.5 23t14.5 59q0 46 -26.5 83.5t-86.5 79.5h71q122 -34 178 -89.5t56 -124.5q0 -85 -60.5 -135t-152.5 -50z" />
    <glyph glyph-name="Tcaron" unicode="&#x164;" horiz-adv-x="1117" 
d="M439 0v1146q0 36 14.5 58t41.5 30h-427v220h981v-220h-370v-1234h-240zM462 1618l-210 282h174l133 -155l133 155h174l-210 -282h-194z" />
    <glyph glyph-name="tcaron" unicode="&#x165;" horiz-adv-x="789" 
d="M484 -16q-130 0 -202.5 66.5t-72.5 190.5v552q0 33 14 59.5t41 33.5l-55 162v29l53 327h180v-1104q0 -58 25.5 -81t95.5 -23q45 0 83 0.5t69 1.5v-201q-52 -9 -114 -11t-117 -2zM66 886v205h651v-205h-651zM549 1277l30 330h214l-61 -330h-183z" />
    <glyph glyph-name="Tbar" unicode="&#x166;" horiz-adv-x="1117" 
d="M439 0v1146q0 36 14.5 58t41.5 30h-427v220h981v-220h-370v-1234h-240zM183 615v228h756l-4 -228h-752z" />
    <glyph glyph-name="tbar" unicode="&#x167;" horiz-adv-x="788" 
d="M484 -12q-129 0 -201.5 64.5t-73.5 188.5v551q0 33 14 59.5t41 33.5l-55 162v29l54 328h180v-1100q0 -59 25 -81.5t95 -22.5q44 0 76.5 0.5t63.5 0.5v-200q-52 -10 -108 -11.5t-111 -1.5zM67 469l-1 206h648v-206h-647zM66 885v206h651v-206h-651z" />
    <glyph glyph-name="Utilde" unicode="&#x168;" horiz-adv-x="1346" 
d="M679 -20q-161 0 -282.5 64.5t-188.5 194.5t-67 326v889h242v-886q0 -104 21.5 -175t61 -114.5t94 -62.5t120.5 -19q61 0 112.5 19t90 62t60 114.5t21.5 175.5v886h241v-889q0 -196 -67.5 -326t-186.5 -194.5t-272 -64.5zM803 1599q-61 0 -97.5 22t-60 50.5t-44 50.5
t-50.5 22q-42 0 -62.5 -31.5t-21.5 -95.5h-156q-2 99 25.5 164.5t80 98t120.5 32.5q60 0 95 -22t58.5 -51t44 -51t50.5 -22q42 0 64 32t23 96h155q4 -143 -57 -219t-167 -76z" />
    <glyph glyph-name="utilde" unicode="&#x169;" horiz-adv-x="1164" 
d="M456 -22q-142 0 -228 99t-86 284v731h236v-668q0 -80 18 -132t57 -76t101 -24q75 0 135.5 43.5t85.5 98.5v758h236v-1092h-201l-27 412l18 -83q-12 -90 -47.5 -170t-107 -130.5t-190.5 -50.5zM711 1255q-58 0 -93.5 22.5t-58 51t-42.5 50.5t-48 22q-40 0 -60 -30t-21 -94
h-150q-2 99 24.5 163.5t76.5 96t116 31.5q57 0 91.5 -21.5t56.5 -50.5t42 -51t48 -22q40 0 61.5 30t22.5 94h149q3 -144 -56 -218t-159 -74z" />
    <glyph glyph-name="Umacron" unicode="&#x16a;" horiz-adv-x="1346" 
d="M679 -20q-161 0 -282.5 64.5t-188.5 194.5t-67 326v889h242v-886q0 -104 21.5 -175t61 -114.5t94 -62.5t120.5 -19q61 0 112.5 19t90 62t60 114.5t21.5 175.5v886h241v-889q0 -196 -67.5 -326t-186.5 -194.5t-272 -64.5zM399 1618v194h547l-3 -194h-544z" />
    <glyph glyph-name="umacron" unicode="&#x16b;" horiz-adv-x="1164" 
d="M456 -22q-142 0 -228 99t-86 284v731h236v-668q0 -80 18 -132t57 -76t101 -24q75 0 135.5 43.5t85.5 98.5v758h236v-1092h-201l-27 412l18 -83q-12 -90 -47.5 -170t-107 -130.5t-190.5 -50.5zM327 1277v194h508l-3 -194h-505z" />
    <glyph glyph-name="Ubreve" unicode="&#x16c;" horiz-adv-x="1346" 
d="M679 -20q-161 0 -282.5 64.5t-188.5 194.5t-67 326v889h242v-886q0 -104 21.5 -175t61 -114.5t94 -62.5t120.5 -19q61 0 112.5 19t90 62t60 114.5t21.5 175.5v886h241v-889q0 -196 -67.5 -326t-186.5 -194.5t-272 -64.5zM673 1600q-136 0 -203.5 75.5t-67.5 224.5h172
q-8 -87 19.5 -121.5t79.5 -34.5t79.5 34.5t19.5 121.5h172q0 -149 -67 -224.5t-204 -75.5z" />
    <glyph glyph-name="ubreve" unicode="&#x16d;" horiz-adv-x="1164" 
d="M456 -22q-142 0 -228 99t-86 284v731h236v-668q0 -80 18 -132t57 -76t101 -24q75 0 135.5 43.5t85.5 98.5v758h236v-1092h-201l-27 412l18 -83q-12 -90 -47.5 -170t-107 -130.5t-190.5 -50.5zM581 1255q-132 0 -197 75.5t-65 225.5h172q-7 -89 18.5 -123.5t71.5 -34.5
q47 0 72.5 34.5t17.5 123.5h172q0 -150 -65 -225.5t-197 -75.5z" />
    <glyph glyph-name="Uring" unicode="&#x16e;" horiz-adv-x="1346" 
d="M679 -20q-161 0 -282.5 64.5t-188.5 194.5t-67 326v889h242v-886q0 -104 21.5 -175t61 -114.5t94 -62.5t120.5 -19q61 0 112.5 19t90 62t60 114.5t21.5 175.5v886h241v-889q0 -196 -67.5 -326t-186.5 -194.5t-272 -64.5zM673 1600q-93 0 -147 54.5t-54 137.5
q0 82 54 135.5t147 53.5q92 0 145.5 -53.5t53.5 -135.5q0 -83 -53.5 -137.5t-145.5 -54.5zM673 1703q33 0 56.5 22t23.5 67t-23.5 66.5t-56.5 21.5q-34 0 -57 -21.5t-23 -66.5t23 -67t57 -22z" />
    <glyph glyph-name="uring" unicode="&#x16f;" horiz-adv-x="1164" 
d="M456 -22q-142 0 -228 99t-86 284v731h236v-668q0 -80 18 -132t57 -76t101 -24q75 0 135.5 43.5t85.5 98.5v758h236v-1092h-201l-27 412l18 -83q-12 -90 -47.5 -170t-107 -130.5t-190.5 -50.5zM581 1255q-98 0 -156 58.5t-58 148.5t58 148t156 58q97 0 154.5 -58
t57.5 -148t-57.5 -148.5t-154.5 -58.5zM581 1371q34 0 58.5 23.5t24.5 67.5q0 46 -24.5 69t-58.5 23t-58 -23t-24 -69q0 -44 24 -67.5t58 -23.5z" />
    <glyph glyph-name="Uhungarumlaut" unicode="&#x170;" horiz-adv-x="1346" 
d="M679 -20q-161 0 -282.5 64.5t-188.5 194.5t-67 326v889h242v-886q0 -104 21.5 -175t61 -114.5t94 -62.5t120.5 -19q61 0 112.5 19t90 62t60 114.5t21.5 175.5v886h241v-889q0 -196 -67.5 -326t-186.5 -194.5t-272 -64.5zM753 1618l163 282h231l-200 -282h-194zM403 1618
l161 282h231l-198 -282h-194z" />
    <glyph glyph-name="uhungarumlaut" unicode="&#x171;" horiz-adv-x="1164" 
d="M456 -22q-142 0 -228 99t-86 284v731h236v-668q0 -80 18 -132t57 -76t101 -24q75 0 135.5 43.5t85.5 98.5v758h236v-1092h-201l-27 412l18 -83q-12 -90 -47.5 -170t-107 -130.5t-190.5 -50.5zM663 1277l163 279h231l-199 -279h-195zM315 1277l151 279h231l-188 -279h-194
z" />
    <glyph glyph-name="Uogonek" unicode="&#x172;" horiz-adv-x="1346" 
d="M679 -20q-161 0 -282.5 64.5t-188.5 194.5t-67 326v889h242v-886q0 -104 21.5 -175t61 -114.5t94 -62.5t120.5 -19q61 0 112.5 19t90 62t60 114.5t21.5 175.5v886h241v-889q0 -196 -67.5 -326t-186.5 -194.5t-272 -64.5zM699 -390q-92 0 -147.5 50t-55.5 134
q0 46 24.5 85.5t85 69t167.5 45.5l90 16q-88 -43 -131 -85t-43 -90q0 -70 73 -70q55 0 98 22l1 -145q-43 -19 -76.5 -25.5t-85.5 -6.5z" />
    <glyph glyph-name="uogonek" unicode="&#x173;" horiz-adv-x="1164" 
d="M456 -22q-142 0 -228 99t-86 284v731h236v-668q0 -80 18 -132t57 -76t101 -24q75 0 135.5 43.5t85.5 98.5v758h236v-1092h-201l-27 412l18 -83q-12 -90 -47.5 -170t-107 -130.5t-190.5 -50.5zM848 -400q-93 0 -148.5 50t-55.5 134q0 46 24.5 89t85 77t167.5 50h90
q-88 -43 -131 -85t-43 -90q0 -70 73 -70q55 0 98 22l1 -145q-43 -19 -76.5 -25.5t-84.5 -6.5z" />
    <glyph glyph-name="Wcircumflex" unicode="&#x174;" horiz-adv-x="1900" 
d="M401 0l-372 1454h259l144 -691l112 -564h10l106 564l143 691h276l144 -691l106 -564h10l120 564l152 691h260l-390 -1454h-308l-168 754l-61 364h-5l-62 -364l-167 -754h-309zM635 1618l219 282h193l219 -282h-183l-132 121l-133 -121h-183z" />
    <glyph glyph-name="wcircumflex" unicode="&#x175;" horiz-adv-x="1663" 
d="M355 0l-331 1091h259l136 -542l67 -348l12 -1l54 350l131 541h297l129 -543l53 -359l15 1l68 358l136 543h258l-330 -1091h-276l-131 520l-61 316h-17l-64 -317l-130 -519h-275zM525 1277l208 279h199l208 -279h-183l-124 116l-125 -116h-183z" />
    <glyph glyph-name="Ycircumflex" unicode="&#x176;" horiz-adv-x="1271" 
d="M520 466l-502 988h277l181 -392l149 -333h18l151 332l183 393h276l-501 -988h-232zM516 0v598h240v-598h-240zM320 1618l219 282h193l219 -282h-183l-132 121l-133 -121h-183z" />
    <glyph glyph-name="ycircumflex" unicode="&#x177;" horiz-adv-x="1047" 
d="M138 -431v220h86q72 0 111.5 13t59 39t28.5 63q11 44 24.5 65.5t32.5 30.5h-78l-356 1091h262l125 -498l101 -361h9l91 360l125 499h260l-351 -1091q-32 -99 -69 -179t-86 -136t-119.5 -86t-169.5 -30h-86zM216 1277l208 279h199l208 -279h-183l-124 116l-125 -116h-183z
" />
    <glyph glyph-name="Ydieresis" unicode="&#x178;" horiz-adv-x="1271" 
d="M520 466l-502 988h277l181 -392l149 -333h18l151 332l183 393h276l-501 -988h-232zM516 0v598h240v-598h-240zM421 1600q-58 0 -102 46t-44 116q0 72 44 116t102 44q59 0 102 -44t43 -116q0 -70 -44 -116t-101 -46zM851 1600q-58 0 -102 46t-44 116q0 72 44 116t102 44
q59 0 102 -44t43 -116q0 -70 -44 -116t-101 -46z" />
    <glyph glyph-name="Zacute" unicode="&#x179;" horiz-adv-x="1203" 
d="M54 0l618 1098l116 148l-131 -6h-520v214h1012l-621 -1109l-111 -147l203 7h497v-205h-1063zM518 1618l197 282h253l-234 -282h-216z" />
    <glyph glyph-name="zacute" unicode="&#x17a;" horiz-adv-x="954" 
d="M28 0l455 764q32 53 65 89.5t73 59.5l29 -5q-56 -4 -116 -9t-109 -5h-325v197h816l-457 -769q-35 -59 -80.5 -99t-92.5 -68l-10 32q53 2 109.5 7t102.5 5h407v-199h-867zM368 1277l197 278h253l-234 -278h-216z" />
    <glyph glyph-name="Zdotaccent" unicode="&#x17b;" horiz-adv-x="1203" 
d="M54 0l618 1098l116 148l-131 -6h-520v214h1012l-621 -1109l-111 -147l203 7h497v-205h-1063zM631 1600q-59 0 -102.5 45.5t-43.5 108.5q0 65 43.5 108.5t102.5 43.5q61 0 104 -43.5t43 -108.5q0 -63 -44 -108.5t-103 -45.5z" />
    <glyph glyph-name="zdotaccent" unicode="&#x17c;" horiz-adv-x="954" 
d="M28 0l455 764q32 53 65 89.5t73 59.5l29 -5q-56 -4 -116 -9t-109 -5h-325v197h816l-457 -769q-35 -59 -80.5 -99t-92.5 -68l-10 32q53 2 109.5 7t102.5 5h407v-199h-867zM485 1255q-64 0 -109.5 43t-45.5 112q0 74 45.5 116.5t109.5 42.5t109.5 -42.5t45.5 -116.5
q0 -69 -45.5 -112t-109.5 -43z" />
    <glyph glyph-name="Zcaron" unicode="&#x17d;" horiz-adv-x="1203" 
d="M54 0l618 1098l116 148l-131 -6h-520v214h1012l-621 -1109l-111 -147l203 7h497v-205h-1063zM534 1618l-210 282h174l133 -155l133 155h174l-210 -282h-194z" />
    <glyph glyph-name="zcaron" unicode="&#x17e;" horiz-adv-x="954" 
d="M28 0l455 764q32 53 65 89.5t73 59.5l29 -5q-56 -4 -116 -9t-109 -5h-325v197h816l-457 -769q-35 -59 -80.5 -99t-92.5 -68l-10 32q53 2 109.5 7t102.5 5h407v-199h-867zM385 1277l-208 279h174l133 -137l134 137h174l-208 -279h-199z" />
    <glyph glyph-name="uni018F" unicode="&#x18f;" horiz-adv-x="1392" 
d="M673 -20q-73 0 -154 17t-158.5 58.5t-140 114t-99.5 182t-37 264.5l-2 160l244 -96v-100q1 -97 26 -168.5t70.5 -119t109.5 -71t144 -23.5q130 0 218.5 62.5t133 182t44.5 288.5q0 167 -44.5 286t-132 182.5t-217.5 63.5q-92 0 -161 -25t-111 -73t-55 -122h-245
q22 152 104 249t203.5 143t261.5 46q202 0 345 -91t219 -259t76 -399q0 -232 -76.5 -400.5t-220 -260t-345.5 -91.5zM122 572l-40 204h1082v-204h-1042z" />
    <glyph glyph-name="Gcaron" unicode="&#x1e6;" horiz-adv-x="1427" 
d="M771 -20q-205 0 -358 91.5t-236.5 260t-83.5 400.5q0 231 82.5 399t231.5 259t346 91q135 0 250 -49.5t191 -151t95 -258.5h-239q-7 50 -31.5 93.5t-63 76.5t-91 51.5t-116.5 18.5q-94 0 -170.5 -36t-130.5 -104.5t-83 -167t-29 -223.5q0 -167 52 -286t149.5 -182.5
t235.5 -63.5q57 0 114.5 10t108 30t83.5 50v274h-301v210h525l-2 -606q-108 -83 -240.5 -135t-288.5 -52zM645 1618l-210 282h174l133 -155l133 155h174l-210 -282h-194z" />
    <glyph glyph-name="gcaron" unicode="&#x1e7;" horiz-adv-x="1170" 
d="M588 -446q-133 0 -239.5 43.5t-164.5 132.5t-45 223h228q-1 -57 14 -102.5t63 -72.5t146 -27q85 0 130.5 24t61.5 73t16 127v296q-9 -47 -39 -99t-93 -87.5t-170 -35.5q-97 0 -173 43t-129 116t-80.5 164.5t-27.5 189.5q0 182 60.5 304t156.5 184t203 62q95 0 153.5 -26
t91.5 -63t48 -73l1 141h231v-1114q0 -148 -57.5 -241t-157.5 -136.5t-228 -45.5zM577 238q75 0 121 20.5t70 49t30 49.5v457q-10 24 -37 47t-71 38t-108 15q-111 0 -182 -82t-71 -257q0 -159 70.5 -248t177.5 -89zM439 1277l-208 279h174l133 -137l134 137h174l-208 -279
h-199z" />
    <glyph glyph-name="uni01F4" unicode="&#x1f4;" horiz-adv-x="1427" 
d="M771 -20q-205 0 -358 91.5t-236.5 260t-83.5 400.5q0 231 82.5 399t231.5 259t346 91q135 0 250 -49.5t191 -151t95 -258.5h-239q-7 50 -31.5 93.5t-63 76.5t-91 51.5t-116.5 18.5q-94 0 -170.5 -36t-130.5 -104.5t-83 -167t-29 -223.5q0 -167 52 -286t149.5 -182.5
t235.5 -63.5q57 0 114.5 10t108 30t83.5 50v274h-301v210h525l-2 -606q-108 -83 -240.5 -135t-288.5 -52zM629 1618l197 282h253l-234 -282h-216z" />
    <glyph glyph-name="uni01F5" unicode="&#x1f5;" horiz-adv-x="1170" 
d="M588 -446q-133 0 -239.5 43.5t-164.5 132.5t-45 223h228q-1 -57 14 -102.5t63 -72.5t146 -27q85 0 130.5 24t61.5 73t16 127v296q-9 -47 -39 -99t-93 -87.5t-170 -35.5q-97 0 -173 43t-129 116t-80.5 164.5t-27.5 189.5q0 182 60.5 304t156.5 184t203 62q95 0 153.5 -26
t91.5 -63t48 -73l1 141h231v-1114q0 -148 -57.5 -241t-157.5 -136.5t-228 -45.5zM577 238q75 0 121 20.5t70 49t30 49.5v457q-10 24 -37 47t-71 38t-108 15q-111 0 -182 -82t-71 -257q0 -159 70.5 -248t177.5 -89zM422 1277l197 278h253l-234 -278h-216z" />
    <glyph glyph-name="Aringacute" unicode="&#x1fa;" horiz-adv-x="1324" 
d="M28 0l479 1454h310l479 -1454h-251l-133 437l135 -95h-718l74 198h583l-75 -100l-157 510l-89 329h-8l-87 -329l-292 -950h-250zM669 1434q-89 0 -141 53.5t-52 134.5t52 133t141 52q87 0 139 -52t52 -133t-52 -134.5t-139 -53.5zM669 1534q29 0 51.5 22t22.5 66
t-22.5 65.5t-51.5 21.5q-30 0 -52.5 -21.5t-22.5 -65.5t22.5 -66t52.5 -22zM646 1729l113 202h216l-167 -202h-162z" />
    <glyph glyph-name="aringacute" unicode="&#x1fb;" horiz-adv-x="1104" 
d="M421 -12q-100 0 -177 37.5t-120.5 104.5t-43.5 155q0 97 35 160t101.5 100.5t156.5 57.5q64 14 135.5 23t132.5 14.5t94 7.5v44q0 111 -44.5 166.5t-150.5 55.5q-68 0 -114 -16.5t-69.5 -62t-25.5 -132.5h-215q-11 141 40.5 231.5t154 134t242.5 43.5q83 0 156.5 -18.5
t130.5 -63t90 -121.5t33 -195v-714h-231l3 245q-19 -111 -96 -184t-218 -73zM484 166q52 0 105.5 18t94 52t51.5 80v200q-40 -4 -94.5 -14t-93.5 -18q-112 -23 -161.5 -60.5t-49.5 -114.5q0 -44 20.5 -76.5t54.5 -49.5t73 -17zM551 1071q-89 0 -141 53.5t-52 134.5t52 133
t141 52q87 0 139 -52t52 -133t-52 -134.5t-139 -53.5zM551 1171q29 0 51.5 22t22.5 66t-22.5 65.5t-51.5 21.5q-30 0 -52.5 -21.5t-22.5 -65.5t22.5 -66t52.5 -22zM528 1366l113 202h216l-167 -202h-162z" />
    <glyph glyph-name="AEacute" unicode="&#x1fc;" horiz-adv-x="1857" 
d="M-57 0l759 1454h207l71 -27h-69l-120 -286l-583 -1141h-265zM294 370l70 206h585v-206h-655zM883 0v1454h888v-220h-753l100 108v-549l-100 69h704v-217h-663l59 76v-608l-100 109h764v-222h-899zM862 1618l197 282h253l-234 -282h-216z" />
    <glyph glyph-name="aeacute" unicode="&#x1fd;" horiz-adv-x="1765" 
d="M433 -13q-107 0 -186.5 36t-123 106.5t-43.5 170.5q0 119 68.5 192t225.5 110q70 17 143.5 25.5t133 13t84.5 7.5v44q0 117 -46 170t-161 53q-61 0 -105 -18t-67.5 -63.5t-24.5 -128.5h-215q-13 132 37 222.5t148.5 137.5t231.5 47q117 0 211.5 -42.5t144.5 -157.5
q61 113 156 157t203 44q136 0 239 -58.5t161 -171t58 -274.5q0 -32 -1.5 -56.5t-3.5 -39.5h-734q6 -175 79 -255t186 -80q94 0 147.5 44t65.5 94h228q-7 -102 -64.5 -176t-149.5 -113.5t-204 -39.5q-97 0 -182 32t-150 96.5t-102 160.5q-31 -137 -128 -213t-260 -76z
M490 166q48 0 100.5 18.5t93.5 52.5t51 79v200q-47 -5 -98.5 -14.5t-87.5 -17.5q-123 -27 -168 -63.5t-45 -103.5q0 -51 21 -84.5t55.5 -50t77.5 -16.5zM969 598q7 43 33 59.5t75 16.5h393q-2 113 -58 176.5t-174 63.5q-134 0 -196.5 -83t-72.5 -233zM767 1277l197 278h253
l-234 -278h-216z" />
    <glyph glyph-name="Oslashacute" unicode="&#x1fe;" horiz-adv-x="1466" 
d="M732 -30q-177 0 -322 88t-231 259t-86 419q0 240 82 407t226.5 253.5t331.5 86.5q182 0 327 -86.5t229 -253.5t84 -407q0 -248 -83.5 -419t-228.5 -259t-329 -88zM732 188q112 0 202 58.5t143.5 179t53.5 308.5q0 178 -53 296t-143 176.5t-202 58.5q-107 0 -197.5 -58.5
t-145.5 -176.5t-55 -296q0 -141 31.5 -244t87 -170t127 -99.5t151.5 -32.5zM229 -79l120 238l38 42l550 1107l11 44l92 181h210l-111 -218l-40 -47l-560 -1128l-9 -40l-91 -179h-210zM621 1618l197 282h253l-234 -282h-216z" />
    <glyph glyph-name="oslashacute" unicode="&#x1ff;" horiz-adv-x="1159" 
d="M577 -15q-151 0 -263 65t-174 191.5t-62 310.5q0 174 65.5 300t179.5 193.5t258 67.5q156 0 267.5 -67.5t171.5 -193.5t60 -300q0 -184 -66.5 -310.5t-180.5 -191.5t-256 -65zM581 186q115 0 188 86t73 280q0 180 -71 270t-194 90q-115 0 -187.5 -89t-72.5 -271
q0 -185 73.5 -275.5t190.5 -90.5zM134 -44l144 228l38 34l436 713l12 35l104 168h158l-123 -197l-40 -38l-446 -730l-10 -31l-115 -182h-158zM463 1277l197 278h253l-234 -278h-216z" />
    <glyph glyph-name="uni0218" unicode="&#x218;" horiz-adv-x="1151" 
d="M590 -20q-160 0 -277 51t-182 153.5t-68 257.5h228q4 -84 41.5 -141t106 -85t165.5 -28q93 0 152 22t87 62.5t28 95.5q0 60 -34 101.5t-107.5 78t-194.5 78.5q-125 43 -218.5 105t-145 147.5t-51.5 200.5q0 194 127 296t348 102q153 0 248 -47t143.5 -138.5t64.5 -226.5
h-229q-9 69 -37 114t-76.5 67.5t-121.5 22.5q-113 0 -174 -45.5t-61 -135.5q0 -51 19.5 -93t81 -83t185.5 -90q96 -38 180.5 -72.5t149 -79.5t101.5 -112t38 -170q2 -198 -129.5 -303t-387.5 -105zM414 -457q11 43 28.5 119t17.5 199v33h222v-48q0 -26 -7.5 -70t-20 -91
t-26.5 -85.5t-27 -56.5h-187z" />
    <glyph glyph-name="uni0219" unicode="&#x219;" horiz-adv-x="1027" 
d="M519 -17q-123 0 -219.5 36t-153 111.5t-62.5 193.5h228q13 -84 67.5 -119t134.5 -35q58 0 103.5 11.5t72 39t26.5 74.5q0 33 -14.5 54.5t-44 37.5t-74 30t-102.5 31q-104 30 -189 71t-135 107.5t-50 173.5q0 146 108 228.5t278 82.5q110 0 198.5 -31.5t145.5 -104
t74 -196.5l-228 1q-15 58 -44 89.5t-66.5 44t-81.5 12.5q-48 0 -83 -15t-54 -42t-19 -65q0 -44 25.5 -73.5t77 -51t128.5 -44.5q62 -18 128 -39.5t123 -54.5t92 -87.5t35 -141.5q0 -155 -116.5 -242t-308.5 -87zM334 -457q11 43 28.5 119t17.5 199v33h222v-48
q0 -26 -7.5 -70t-20 -91t-26.5 -85.5t-27 -56.5h-187z" />
    <glyph glyph-name="uni021A" unicode="&#x21a;" horiz-adv-x="1117" 
d="M439 0v1146q0 36 14.5 58t41.5 30h-427v220h981v-220h-370v-1234h-240zM377 -457q11 43 28.5 119t17.5 199v33h222v-48q0 -26 -7.5 -70t-20 -91t-26.5 -85.5t-27 -56.5h-187z" />
    <glyph glyph-name="uni021B" unicode="&#x21b;" horiz-adv-x="789" 
d="M484 -16q-130 0 -202.5 66.5t-72.5 190.5v552q0 33 14 59.5t41 33.5l-55 162v29l53 327h180v-1104q0 -58 25.5 -81t95.5 -23q45 0 83 0.5t69 1.5v-201q-52 -9 -114 -11t-117 -2zM66 886v205h651v-205h-651zM349 -457q11 43 28.5 119t17.5 199v33h222v-48q0 -26 -7.5 -70
t-20 -91t-26.5 -85.5t-27 -56.5h-187z" />
    <glyph glyph-name="uni0232" unicode="&#x232;" horiz-adv-x="1271" 
d="M520 466l-502 988h277l181 -392l149 -333h18l151 332l183 393h276l-501 -988h-232zM516 0v598h240v-598h-240zM362 1618v194h547l-3 -194h-544z" />
    <glyph glyph-name="uni0233" unicode="&#x233;" horiz-adv-x="1047" 
d="M138 -431v220h86q72 0 111.5 13t59 39t28.5 63q11 44 24.5 65.5t32.5 30.5h-78l-356 1091h262l125 -498l101 -361h9l91 360l125 499h260l-351 -1091q-32 -99 -69 -179t-86 -136t-119.5 -86t-169.5 -30h-86zM270 1277v194h508l-3 -194h-505z" />
    <glyph glyph-name="uni0237" unicode="&#x237;" horiz-adv-x="588" 
d="M180 -460q-57 0 -94.5 9t-69.5 20v216q13 -5 38.5 -12t53.5 -7q35 0 61 23t26 81v1221h240l-5 -1143q0 -24 0.5 -48.5t0.5 -48.5q0 -79 -21 -150t-75 -116t-155 -45z" />
    <glyph glyph-name="uni0259" unicode="&#x259;" horiz-adv-x="1106" 
d="M522 1106q159 0 274 -64.5t177 -190t62 -309.5q0 -178 -65 -304.5t-180.5 -193t-263.5 -66.5q-147 0 -251.5 58t-160 172t-55.5 278q0 32 2 53t3 50h736q-8 167 -81 245.5t-180 78.5q-99 0 -151.5 -42.5t-67.5 -95.5h-228q10 106 67 180t150.5 112.5t212.5 38.5zM692 428
h-398q3 -119 58.5 -185t180.5 -66q132 0 195.5 87.5t71.5 241.5q-8 -45 -34 -61.5t-74 -16.5z" />
    <glyph glyph-name="circumflex" unicode="&#x2c6;" horiz-adv-x="915" 
d="M150 1277l208 279h199l208 -279h-183l-124 116l-125 -116h-183z" />
    <glyph glyph-name="caron" unicode="&#x2c7;" horiz-adv-x="867" 
d="M334 1277l-208 279h174l133 -137l134 137h174l-208 -279h-199z" />
    <glyph glyph-name="breve" unicode="&#x2d8;" horiz-adv-x="794" 
d="M397 1255q-132 0 -197 75.5t-65 225.5h172q-7 -89 18.5 -123.5t71.5 -34.5q47 0 72.5 34.5t17.5 123.5h172q0 -150 -65 -225.5t-197 -75.5z" />
    <glyph glyph-name="dotaccent" unicode="&#x2d9;" horiz-adv-x="546" 
d="M274 1255q-64 0 -109.5 43t-45.5 112q0 74 45.5 116.5t109.5 42.5t109.5 -42.5t45.5 -116.5q0 -69 -45.5 -112t-109.5 -43z" />
    <glyph glyph-name="ring" unicode="&#x2da;" horiz-adv-x="627" 
d="M314 1255q-98 0 -156 58.5t-58 148.5t58 148t156 58q97 0 154.5 -58t57.5 -148t-57.5 -148.5t-154.5 -58.5zM314 1371q34 0 58.5 23.5t24.5 67.5q0 46 -24.5 69t-58.5 23t-58 -23t-24 -69q0 -44 24 -67.5t58 -23.5z" />
    <glyph glyph-name="ogonek" unicode="&#x2db;" horiz-adv-x="526" 
d="M265 -400q-93 0 -148.5 50t-55.5 134q0 46 24.5 89t85 77t167.5 50h90q-88 -43 -131 -85t-43 -90q0 -70 73 -70q55 0 98 22l1 -145q-43 -19 -76.5 -25.5t-84.5 -6.5z" />
    <glyph glyph-name="tilde" unicode="&#x2dc;" horiz-adv-x="988" 
d="M623 1255q-58 0 -93.5 22.5t-58 51t-42.5 50.5t-48 22q-40 0 -60 -30t-21 -94h-150q-2 99 24.5 163.5t76.5 96t116 31.5q57 0 91.5 -21.5t56.5 -50.5t42 -51t48 -22q40 0 61.5 30t22.5 94h149q3 -144 -56 -218t-159 -74z" />
    <glyph glyph-name="hungarumlaut" unicode="&#x2dd;" horiz-adv-x="1003" 
d="M489 1277l163 279h231l-199 -279h-195zM141 1277l151 279h231l-188 -279h-194z" />
    <glyph glyph-name="gravecomb" unicode="&#x300;" 
d="M385 1277l-235 279h253l198 -279h-216z" />
    <glyph glyph-name="acutecomb" unicode="&#x301;" 
d="M150 1277l197 278h253l-234 -278h-216z" />
    <glyph glyph-name="uni0302" unicode="&#x302;" 
d="M150 1277l208 279h199l208 -279h-183l-124 116l-125 -116h-183z" />
    <glyph glyph-name="tildecomb" unicode="&#x303;" 
d="M623 1255q-58 0 -93.5 22.5t-58 51t-42.5 50.5t-48 22q-40 0 -60 -30t-21 -94h-150q-2 99 24.5 163.5t76.5 96t116 31.5q57 0 91.5 -21.5t56.5 -50.5t42 -51t48 -22q40 0 61.5 30t22.5 94h149q3 -144 -56 -218t-159 -74z" />
    <glyph glyph-name="uni0304" unicode="&#x304;" 
d="M128 1277v194h508l-3 -194h-505z" />
    <glyph glyph-name="uni0306" unicode="&#x306;" 
d="M397 1255q-132 0 -197 75.5t-65 225.5h172q-7 -89 18.5 -123.5t71.5 -34.5q47 0 72.5 34.5t17.5 123.5h172q0 -150 -65 -225.5t-197 -75.5z" />
    <glyph glyph-name="uni0307" unicode="&#x307;" 
d="M274 1255q-64 0 -109.5 43t-45.5 112q0 74 45.5 116.5t109.5 42.5t109.5 -42.5t45.5 -116.5q0 -69 -45.5 -112t-109.5 -43z" />
    <glyph glyph-name="uni0308" unicode="&#x308;" 
d="M294 1257q-57 0 -100.5 45.5t-43.5 112.5q0 70 43.5 113.5t100.5 43.5t100 -43.5t43 -113.5q0 -67 -43 -112.5t-100 -45.5zM686 1257q-56 0 -100 45.5t-44 112.5q0 70 44 113.5t100 43.5q57 0 100.5 -43.5t43.5 -113.5q0 -67 -43.5 -112.5t-100.5 -45.5z" />
    <glyph glyph-name="uni030A" unicode="&#x30a;" 
d="M314 1255q-98 0 -156 58.5t-58 148.5t58 148t156 58q97 0 154.5 -58t57.5 -148t-57.5 -148.5t-154.5 -58.5zM314 1371q34 0 58.5 23.5t24.5 67.5q0 46 -24.5 69t-58.5 23t-58 -23t-24 -69q0 -44 24 -67.5t58 -23.5z" />
    <glyph glyph-name="uni030B" unicode="&#x30b;" 
d="M489 1277l163 279h231l-199 -279h-195zM141 1277l151 279h231l-188 -279h-194z" />
    <glyph glyph-name="uni030C" unicode="&#x30c;" 
d="M334 1277l-208 279h174l133 -137l134 137h174l-208 -279h-199z" />
    <glyph glyph-name="uni0312" unicode="&#x312;" 
d="M150 1277v45q0 37 10.5 85.5t26.5 92.5t33 67h196q-13 -44 -24.5 -108.5t-11.5 -151.5v-30h-230z" />
    <glyph glyph-name="dotbelowcomb" unicode="&#x323;" 
d="M297 -434q-59 0 -103 45.5t-44 116.5q0 72 44 116t103 44t102.5 -44t43.5 -116q0 -71 -44.5 -116.5t-101.5 -45.5z" />
    <glyph glyph-name="uni0326" unicode="&#x326;" 
d="M97 -457q11 43 28.5 119t17.5 199v33h222v-48q0 -26 -7.5 -70t-20 -91t-26.5 -85.5t-27 -56.5h-187z" />
    <glyph glyph-name="uni0327" unicode="&#x327;" 
d="M321 -399q-45 0 -81.5 9t-80.5 28l1 143q52 -26 99 -26q54 0 68.5 23t14.5 59q0 46 -26.5 83.5t-86.5 79.5h71q122 -34 178 -89.5t56 -124.5q0 -85 -60.5 -135t-152.5 -50z" />
    <glyph glyph-name="uni0328" unicode="&#x328;" 
d="M265 -400q-93 0 -148.5 50t-55.5 134q0 46 24.5 89t85 77t167.5 50h90q-88 -43 -131 -85t-43 -90q0 -70 73 -70q55 0 98 22l1 -145q-43 -19 -76.5 -25.5t-84.5 -6.5z" />
    <glyph glyph-name="uni032D" unicode="&#x32d;" 
d="M150 -364l207 278h194l206 -278h-170l-133 168l-133 -168h-171z" />
    <glyph glyph-name="uni0331" unicode="&#x331;" 
d="M150 -304v190h504l-3 -190h-501z" />
    <glyph glyph-name="Wgrave" unicode="&#x1e80;" horiz-adv-x="1900" 
d="M401 0l-372 1454h259l144 -691l112 -564h10l106 564l143 691h276l144 -691l106 -564h10l120 564l152 691h260l-390 -1454h-308l-168 754l-61 364h-5l-62 -364l-167 -754h-309zM869 1618l-234 282h253l197 -282h-216z" />
    <glyph glyph-name="wgrave" unicode="&#x1e81;" horiz-adv-x="1663" 
d="M355 0l-331 1091h259l136 -542l67 -348l12 -1l54 350l131 541h297l129 -543l53 -359l15 1l68 358l136 543h258l-330 -1091h-276l-131 520l-61 316h-17l-64 -317l-130 -519h-275zM702 1277l-235 279h253l198 -279h-216z" />
    <glyph glyph-name="Wacute" unicode="&#x1e82;" horiz-adv-x="1900" 
d="M401 0l-372 1454h259l144 -691l112 -564h10l106 564l143 691h276l144 -691l106 -564h10l120 564l152 691h260l-390 -1454h-308l-168 754l-61 364h-5l-62 -364l-167 -754h-309zM837 1618l197 282h253l-234 -282h-216z" />
    <glyph glyph-name="wacute" unicode="&#x1e83;" horiz-adv-x="1663" 
d="M355 0l-331 1091h259l136 -542l67 -348l12 -1l54 350l131 541h297l129 -543l53 -359l15 1l68 358l136 543h258l-330 -1091h-276l-131 520l-61 316h-17l-64 -317l-130 -519h-275zM715 1277l197 278h253l-234 -278h-216z" />
    <glyph glyph-name="Wdieresis" unicode="&#x1e84;" horiz-adv-x="1900" 
d="M401 0l-372 1454h259l144 -691l112 -564h10l106 564l143 691h276l144 -691l106 -564h10l120 564l152 691h260l-390 -1454h-308l-168 754l-61 364h-5l-62 -364l-167 -754h-309zM735 1600q-58 0 -102 46t-44 116q0 72 44 116t102 44q59 0 102 -44t43 -116q0 -70 -44 -116
t-101 -46zM1165 1600q-58 0 -102 46t-44 116q0 72 44 116t102 44q59 0 102 -44t43 -116q0 -70 -44 -116t-101 -46z" />
    <glyph glyph-name="wdieresis" unicode="&#x1e85;" horiz-adv-x="1663" 
d="M355 0l-331 1091h259l136 -542l67 -348l12 -1l54 350l131 541h297l129 -543l53 -359l15 1l68 358l136 543h258l-330 -1091h-276l-131 520l-61 316h-17l-64 -317l-130 -519h-275zM636 1257q-57 0 -100.5 45.5t-43.5 112.5q0 70 43.5 113.5t100.5 43.5t100 -43.5t43 -113.5
q0 -67 -43 -112.5t-100 -45.5zM1028 1257q-56 0 -100 45.5t-44 112.5q0 70 44 113.5t100 43.5q57 0 100.5 -43.5t43.5 -113.5q0 -67 -43.5 -112.5t-100.5 -45.5z" />
    <glyph glyph-name="uni1E9E" unicode="&#x1e9e;" horiz-adv-x="1298" 
d="M517 0l-1 209q34 -7 78 -12t103 -5q104 0 159.5 37.5t76.5 96t21 118.5q0 80 -27.5 129t-92 71.5t-173.5 22.5h-96l256 516l41 73l-56 -15h-408v-1241h-237v1454h1044l-246 -489q-22 -44 -51.5 -78.5t-77.5 -35.5q115 -7 186 -48t109 -102t52 -130t14 -131
q0 -130 -51 -232.5t-158 -162t-275 -59.5q-59 0 -110 5t-80 9z" />
    <glyph glyph-name="uni1ECA" unicode="&#x1eca;" horiz-adv-x="549" 
d="M154 0v1454h241v-1454h-241zM275 -434q-59 0 -103 45.5t-44 116.5q0 72 44 116t103 44t102.5 -44t43.5 -116q0 -71 -44.5 -116.5t-101.5 -45.5z" />
    <glyph glyph-name="uni1ECB" unicode="&#x1ecb;" horiz-adv-x="549" 
d="M154 0v1091h239l-3 -1091h-236zM275 1253q-65 0 -110 45.5t-45 116.5q0 70 45 114t110 44q63 0 108.5 -44t45.5 -114q0 -71 -45.5 -116.5t-108.5 -45.5zM275 -434q-59 0 -103 45.5t-44 116.5q0 72 44 116t103 44t102.5 -44t43.5 -116q0 -71 -44.5 -116.5t-101.5 -45.5z
" />
    <glyph glyph-name="uni1ECC" unicode="&#x1ecc;" horiz-adv-x="1466" 
d="M732 -30q-177 0 -322 88t-231 259t-86 419q0 240 82 407t226.5 253.5t331.5 86.5q182 0 327 -86.5t229 -253.5t84 -407q0 -248 -83.5 -419t-228.5 -259t-329 -88zM732 188q112 0 202 58.5t143.5 179t53.5 308.5q0 178 -53 296t-143 176.5t-202 58.5q-107 0 -197.5 -58.5
t-145.5 -176.5t-55 -296q0 -141 31.5 -244t87 -170t127 -99.5t151.5 -32.5zM734 -434q-59 0 -103 45.5t-44 116.5q0 72 44 116t103 44t102.5 -44t43.5 -116q0 -71 -44.5 -116.5t-101.5 -45.5z" />
    <glyph glyph-name="uni1ECD" unicode="&#x1ecd;" horiz-adv-x="1159" 
d="M577 -15q-151 0 -263 65t-174 191.5t-62 310.5q0 174 65.5 300t179.5 193.5t258 67.5q156 0 267.5 -67.5t171.5 -193.5t60 -300q0 -184 -66.5 -310.5t-180.5 -191.5t-256 -65zM581 186q115 0 188 86t73 280q0 180 -71 270t-194 90q-115 0 -187.5 -89t-72.5 -271
q0 -185 73.5 -275.5t190.5 -90.5zM580 -434q-59 0 -103 45.5t-44 116.5q0 72 44 116t103 44t102.5 -44t43.5 -116q0 -71 -44.5 -116.5t-101.5 -45.5z" />
    <glyph glyph-name="uni1EE4" unicode="&#x1ee4;" horiz-adv-x="1346" 
d="M679 -20q-161 0 -282.5 64.5t-188.5 194.5t-67 326v889h242v-886q0 -104 21.5 -175t61 -114.5t94 -62.5t120.5 -19q61 0 112.5 19t90 62t60 114.5t21.5 175.5v886h241v-889q0 -196 -67.5 -326t-186.5 -194.5t-272 -64.5zM672 -434q-59 0 -103 45.5t-44 116.5q0 72 44 116
t103 44t102.5 -44t43.5 -116q0 -71 -44.5 -116.5t-101.5 -45.5z" />
    <glyph glyph-name="uni1EE5" unicode="&#x1ee5;" horiz-adv-x="1164" 
d="M456 -22q-142 0 -228 99t-86 284v731h236v-668q0 -80 18 -132t57 -76t101 -24q75 0 135.5 43.5t85.5 98.5v758h236v-1092h-201l-27 412l18 -83q-12 -90 -47.5 -170t-107 -130.5t-190.5 -50.5zM582 -434q-59 0 -103 45.5t-44 116.5q0 72 44 116t103 44t102.5 -44
t43.5 -116q0 -71 -44.5 -116.5t-101.5 -45.5z" />
    <glyph glyph-name="Ygrave" unicode="&#x1ef2;" horiz-adv-x="1271" 
d="M520 466l-502 988h277l181 -392l149 -333h18l151 332l183 393h276l-501 -988h-232zM516 0v598h240v-598h-240zM555 1618l-234 282h253l197 -282h-216z" />
    <glyph glyph-name="ygrave" unicode="&#x1ef3;" horiz-adv-x="1047" 
d="M138 -431v220h86q72 0 111.5 13t59 39t28.5 63q11 44 24.5 65.5t32.5 30.5h-78l-356 1091h262l125 -498l101 -361h9l91 360l125 499h260l-351 -1091q-32 -99 -69 -179t-86 -136t-119.5 -86t-169.5 -30h-86zM394 1277l-235 279h253l198 -279h-216z" />
    <glyph glyph-name="uni1EF8" unicode="&#x1ef8;" horiz-adv-x="1271" 
d="M520 466l-502 988h277l181 -392l149 -333h18l151 332l183 393h276l-501 -988h-232zM516 0v598h240v-598h-240zM766 1599q-61 0 -97.5 22t-60 50.5t-44 50.5t-50.5 22q-42 0 -62.5 -31.5t-21.5 -95.5h-156q-2 99 25.5 164.5t80 98t120.5 32.5q60 0 95 -22t58.5 -51t44 -51
t50.5 -22q42 0 64 32t23 96h155q4 -143 -57 -219t-167 -76z" />
    <glyph glyph-name="uni1EF9" unicode="&#x1ef9;" horiz-adv-x="1047" 
d="M138 -431v220h86q72 0 111.5 13t59 39t28.5 63q11 44 24.5 65.5t32.5 30.5h-78l-356 1091h262l125 -498l101 -361h9l91 360l125 499h260l-351 -1091q-32 -99 -69 -179t-86 -136t-119.5 -86t-169.5 -30h-86zM654 1255q-58 0 -93.5 22.5t-58 51t-42.5 50.5t-48 22
q-40 0 -60 -30t-21 -94h-150q-2 99 24.5 163.5t76.5 96t116 31.5q57 0 91.5 -21.5t56.5 -50.5t42 -51t48 -22q40 0 61.5 30t22.5 94h149q3 -144 -56 -218t-159 -74z" />
    <glyph glyph-name="uni2000" unicode="&#x2000;" horiz-adv-x="1000" 
 />
    <glyph glyph-name="uni2001" unicode="&#x2001;" horiz-adv-x="2000" 
 />
    <glyph glyph-name="uni2002" unicode="&#x2002;" horiz-adv-x="1000" 
 />
    <glyph glyph-name="uni2003" unicode="&#x2003;" horiz-adv-x="2000" 
 />
    <glyph glyph-name="uni2004" unicode="&#x2004;" horiz-adv-x="666" 
 />
    <glyph glyph-name="uni2005" unicode="&#x2005;" horiz-adv-x="500" 
 />
    <glyph glyph-name="uni2006" unicode="&#x2006;" horiz-adv-x="333" 
 />
    <glyph glyph-name="uni2007" unicode="&#x2007;" horiz-adv-x="1156" 
 />
    <glyph glyph-name="uni2008" unicode="&#x2008;" horiz-adv-x="429" 
 />
    <glyph glyph-name="uni2009" unicode="&#x2009;" horiz-adv-x="280" 
 />
    <glyph glyph-name="uni200A" unicode="&#x200a;" horiz-adv-x="140" 
 />
    <glyph glyph-name="uni200B" unicode="&#x200b;" 
 />
    <glyph glyph-name="endash" unicode="&#x2013;" horiz-adv-x="1161" 
d="M150 566v190h861l-3 -190h-858z" />
    <glyph glyph-name="emdash" unicode="&#x2014;" horiz-adv-x="1879" 
d="M150 573v176h1579l-3 -176h-1576z" />
    <glyph glyph-name="quoteleft" unicode="&#x2018;" horiz-adv-x="607" 
d="M129 757v366q0 76 15.5 151.5t50 138t93 100.5t142.5 38h39v-161h-30q-67 -2 -95.5 -58t-33.5 -186v-91h101v-298h-282z" />
    <glyph glyph-name="quoteright" unicode="&#x2019;" horiz-adv-x="609" 
d="M138 749v162h32q67 2 95.5 58t33.5 186v101h-102v295h283v-373q0 -76 -15 -151.5t-49.5 -138.5t-92.5 -101t-145 -38h-40z" />
    <glyph glyph-name="quotesinglbase" unicode="&#x201a;" horiz-adv-x="609" 
d="M138 -525v162h32q67 2 95.5 58t33.5 186v101h-102v296h283v-373q0 -77 -15 -152.5t-49.5 -138t-92.5 -101t-145 -38.5h-40z" />
    <glyph glyph-name="quotedblleft" unicode="&#x201c;" horiz-adv-x="1077" 
d="M129 729v365q0 76 15.5 151.5t50 138t93 101t142.5 38.5h39v-162h-30q-67 -2 -95.5 -58t-33.5 -186v-91h101v-297h-282zM599 729v365q0 76 15.5 151.5t50 138t92.5 101t143 38.5h39v-162h-30q-67 -2 -95.5 -58t-33.5 -186v-91h101v-297h-282z" />
    <glyph glyph-name="quotedblright" unicode="&#x201d;" horiz-adv-x="1069" 
d="M138 721v161h32q67 2 95.5 58t33.5 186v101h-102v296h283v-373q0 -76 -15 -152t-49.5 -138.5t-92.5 -100.5t-145 -38h-40zM598 721v161h31q68 2 96.5 58t33.5 186v101h-102v296h283v-373q0 -76 -15 -152t-49.5 -138.5t-92.5 -100.5t-145 -38h-40z" />
    <glyph glyph-name="quotedblbase" unicode="&#x201e;" horiz-adv-x="1069" 
d="M138 -525v162h32q67 2 95.5 58t33.5 186v101h-102v296h283v-373q0 -77 -15 -152.5t-49.5 -138t-92.5 -101t-145 -38.5h-40zM598 -525v162h31q68 2 96.5 58t33.5 186v101h-102v296h283v-373q0 -77 -15 -152.5t-49.5 -138t-92.5 -101t-145 -38.5h-40z" />
    <glyph glyph-name="dagger" unicode="&#x2020;" horiz-adv-x="1140" 
d="M462 153v1454h215v-1454h-215zM200 1244h740v-209h-740v209z" />
    <glyph glyph-name="daggerdbl" unicode="&#x2021;" horiz-adv-x="1140" 
d="M462 153v1454h215v-1454h-215zM200 1307h740v-215h-740v215zM200 828h740v-215h-740v215z" />
    <glyph glyph-name="bullet" unicode="&#x2022;" horiz-adv-x="771" 
d="M386 407q-102 0 -169 71.5t-67 177.5q0 107 67.5 178.5t168.5 71.5t168 -71.5t67 -178.5q0 -106 -67 -177.5t-168 -71.5z" />
    <glyph glyph-name="ellipsis" unicode="&#x2026;" horiz-adv-x="1339" 
d="M214 -15q-64 0 -108.5 44.5t-44.5 116.5q0 70 44.5 115t108.5 45q65 0 109 -45t44 -115q0 -72 -44.5 -116.5t-108.5 -44.5zM671 -15q-64 0 -108.5 44.5t-44.5 116.5q0 70 44.5 115t108.5 45q65 0 109 -45t44 -115q0 -72 -44.5 -116.5t-108.5 -44.5zM1124 -15
q-64 0 -108.5 44.5t-44.5 116.5q0 70 44.5 115t108.5 45q65 0 109 -45t44 -115q0 -72 -44.5 -116.5t-108.5 -44.5z" />
    <glyph glyph-name="uni202F" unicode="&#x202f;" horiz-adv-x="71" 
 />
    <glyph glyph-name="guilsinglleft" unicode="&#x2039;" horiz-adv-x="776" 
d="M383 252l-233 297v8l233 297h243l-183 -217q-29 -34 -52 -53.5t-81 -30.5q59 -11 82 -30.5t51 -52.5l183 -218h-243z" />
    <glyph glyph-name="guilsinglright" unicode="&#x203a;" horiz-adv-x="776" 
d="M150 252l183 218q28 32 49 52t75 31q-54 11 -75 31t-49 53l-183 217h243l233 -297v-8l-233 -297h-243z" />
    <glyph glyph-name="fraction" unicode="&#x2044;" horiz-adv-x="545" 
d="M-121 0l769 1454h184l-769 -1454h-184z" />
    <glyph glyph-name="uni205F" unicode="&#x205f;" horiz-adv-x="444" 
 />
    <glyph glyph-name="uni2070" unicode="&#x2070;" horiz-adv-x="859" 
d="M430 896q-165 0 -267.5 117t-102.5 383q0 257 102.5 375t267.5 118t267 -118t102 -375q0 -265 -102 -382.5t-267 -117.5zM430 1088q72 0 113 67t41 239q0 170 -41 236t-113 66t-113.5 -66.5t-41.5 -235.5q0 -172 41.5 -239t113.5 -67z" />
    <glyph glyph-name="uni2074" unicode="&#x2074;" horiz-adv-x="835" 
d="M486 910v171h-495l363 789h324l-3 -3l1 -616h129v-170h-128v-171h-191zM251 1223q14 17 30.5 22.5t41.5 5.5h224q-38 0 -49.5 24.5t-11.5 65.5v181l3 216l-91 -224l-101 -189z" />
    <glyph glyph-name="uni2075" unicode="&#x2075;" horiz-adv-x="795" 
d="M389 897q-103 0 -183.5 37.5t-124 107.5t-36.5 167h199q6 -62 44 -92t110 -30q71 0 107.5 41t36.5 117t-37 106.5t-102 30.5q-62 0 -100 -24.5t-59 -49.5l-182 55l61 507h574v-190h-410l-59 -283q14 42 36 71.5t53 47.5q27 14 62.5 21.5t79.5 7.5q74 0 142 -28t112 -93
t44 -177q0 -159 -100.5 -254.5t-267.5 -95.5z" />
    <glyph glyph-name="uni2076" unicode="&#x2076;" horiz-adv-x="817" 
d="M422 896q-102 0 -183.5 47.5t-129 138t-47.5 219.5q0 103 32.5 196t80.5 169t97.5 128.5t83.5 75.5h281q-42 -30 -103 -84t-121 -122t-101.5 -142.5t-44.5 -147.5l-5 5q7 20 22.5 51t42.5 61.5t68.5 52t101.5 21.5q81 0 143 -34t98 -105t36 -180q0 -99 -47.5 -178.5
t-127.5 -125.5t-177 -46zM420 1083q49 0 81.5 23.5t48.5 60.5t16 78q0 85 -37.5 125t-102.5 40q-56 0 -92.5 -14t-61.5 -38q-5 -13 -6 -43.5t-1 -43.5q0 -74 37.5 -131t117.5 -57z" />
    <glyph glyph-name="uni2077" unicode="&#x2077;" horiz-adv-x="761" 
d="M165 910l271 683q18 47 49 70.5t69 29t76 -2.5l6 -5h-585v185h608h71l-338 -960h-227z" />
    <glyph glyph-name="uni2078" unicode="&#x2078;" horiz-adv-x="861" 
d="M430 896q-102 0 -185 31.5t-131.5 92.5t-48.5 149q0 113 66.5 172.5t184.5 68.5q-109 14 -161.5 77.5t-52.5 136.5q0 122 82 193.5t246 71.5q165 0 246.5 -72t81.5 -193q0 -75 -53 -138.5t-160 -77.5q117 -7 184 -66.5t67 -172.5q0 -88 -49 -149t-131.5 -92.5
t-185.5 -31.5zM430 1075q67 0 117 30t50 91q0 70 -47.5 101.5t-119.5 31.5t-119.5 -30.5t-47.5 -102.5q0 -61 49 -91t118 -30zM430 1483q69 0 101 36t32 83q0 57 -38 85t-95 28q-59 0 -95.5 -28t-36.5 -85q0 -47 30 -83t102 -36z" />
    <glyph glyph-name="uni2079" unicode="&#x2079;" horiz-adv-x="817" 
d="M184 910q42 30 102.5 84t120 122.5t100.5 143t42 147.5h9q-8 -20 -22.5 -51.5t-40 -63.5t-67 -53.5t-104.5 -21.5q-77 0 -141 36t-102 108t-38 180q0 102 48 179t128.5 120.5t176.5 43.5q102 0 183 -46.5t128 -137.5t47 -222q0 -103 -31 -196t-78.5 -168.5t-96 -128
t-83.5 -75.5h-281zM390 1372q55 0 92 13.5t62 40.5q5 13 6 42t1 42q0 77 -37.5 132t-116.5 55q-73 0 -109.5 -46.5t-36.5 -108.5q0 -82 37 -126t102 -44z" />
    <glyph glyph-name="uni2080" unicode="&#x2080;" horiz-adv-x="859" 
d="M430 -214q-165 0 -267.5 117t-102.5 383q0 257 102.5 375t267.5 118t267 -118t102 -375q0 -265 -102 -382.5t-267 -117.5zM430 -22q72 0 113 67t41 239q0 170 -41 236t-113 66t-113.5 -66.5t-41.5 -235.5q0 -172 41.5 -239t113.5 -67z" />
    <glyph glyph-name="uni2081" unicode="&#x2081;" horiz-adv-x="579" 
d="M255 -200l2 783l54 177h158v-960h-214zM51 461v201q32 0 68 3.5t73 13.5q37 11 67 30.5t52 50.5l-51 -175q-7 -26 -18 -54.5t-46 -48.5q-26 -13 -55 -17t-90 -4z" />
    <glyph glyph-name="uni2082" unicode="&#x2082;" horiz-adv-x="791" 
d="M25 -200q17 20 57.5 70t90 111t95.5 118.5l74 92.5q61 78 102.5 129t62 89t20.5 78q0 46 -29.5 80t-101.5 34q-70 0 -110.5 -46.5t-19.5 -144.5h-195q-17 130 21 211.5t118.5 119t188.5 37.5q162 0 243.5 -74t81.5 -191q0 -75 -24 -135.5t-61.5 -112t-76.5 -99.5
q-35 -43 -66 -80t-58.5 -70t-55.5 -66q23 23 53.5 29.5t84.5 6.5h202v-187h-697z" />
    <glyph glyph-name="uni2083" unicode="&#x2083;" horiz-adv-x="825" 
d="M399 -214q-104 0 -188.5 35t-131.5 105t-40 175h197q-3 -71 43.5 -102t123.5 -31q58 0 106 28.5t48 89.5q0 66 -46.5 95.5t-107.5 29.5h-105v168h98q68 0 98 35t30 76q0 58 -37 85t-83 27q-64 0 -98 -30t-31 -91h-202q1 142 81 220t251 78q162 0 243 -72t81 -189
q0 -77 -51.5 -141t-141.5 -79q102 -7 166.5 -66t64.5 -169q0 -120 -96.5 -198.5t-271.5 -78.5z" />
    <glyph glyph-name="uni2084" unicode="&#x2084;" horiz-adv-x="835" 
d="M486 -200v171h-495l363 789h324l-3 -3l1 -616h129v-170h-128v-171h-191zM251 113q14 17 30.5 22.5t41.5 5.5h224q-38 0 -49.5 24.5t-11.5 65.5v181l3 216l-91 -224l-101 -189z" />
    <glyph glyph-name="uni2085" unicode="&#x2085;" horiz-adv-x="795" 
d="M389 -213q-103 0 -183.5 37.5t-124 107.5t-36.5 167h199q6 -62 44 -92t110 -30q71 0 107.5 41t36.5 117t-37 106.5t-102 30.5q-62 0 -100 -24.5t-59 -49.5l-182 55l61 507h574v-190h-410l-59 -283q14 42 36 71.5t53 47.5q27 14 62.5 21.5t79.5 7.5q74 0 142 -28t112 -93
t44 -177q0 -159 -100.5 -254.5t-267.5 -95.5z" />
    <glyph glyph-name="uni2086" unicode="&#x2086;" horiz-adv-x="817" 
d="M422 -214q-102 0 -183.5 47.5t-129 138t-47.5 219.5q0 103 32.5 196t80.5 169t97.5 128.5t83.5 75.5h281q-42 -30 -103 -84t-121 -122t-101.5 -142.5t-44.5 -147.5l-5 5q7 20 22.5 51t42.5 61.5t68.5 52t101.5 21.5q81 0 143 -34t98 -105t36 -180q0 -99 -47.5 -178.5
t-127.5 -125.5t-177 -46zM420 -27q49 0 81.5 23.5t48.5 60.5t16 78q0 85 -37.5 125t-102.5 40q-56 0 -92.5 -14t-61.5 -38q-5 -13 -6 -43.5t-1 -43.5q0 -74 37.5 -131t117.5 -57z" />
    <glyph glyph-name="uni2087" unicode="&#x2087;" horiz-adv-x="761" 
d="M165 -200l271 683q18 47 49 70.5t69 29t76 -2.5l6 -5h-585v185h608h71l-338 -960h-227z" />
    <glyph glyph-name="uni2088" unicode="&#x2088;" horiz-adv-x="861" 
d="M430 -214q-102 0 -185 31.5t-131.5 92.5t-48.5 149q0 113 66.5 172.5t184.5 68.5q-109 14 -161.5 77.5t-52.5 136.5q0 122 82 193.5t246 71.5q165 0 246.5 -72t81.5 -193q0 -75 -53 -138.5t-160 -77.5q117 -7 184 -66.5t67 -172.5q0 -88 -49 -149t-131.5 -92.5
t-185.5 -31.5zM430 -35q67 0 117 30t50 91q0 70 -47.5 101.5t-119.5 31.5t-119.5 -30.5t-47.5 -102.5q0 -61 49 -91t118 -30zM430 373q69 0 101 36t32 83q0 57 -38 85t-95 28q-59 0 -95.5 -28t-36.5 -85q0 -47 30 -83t102 -36z" />
    <glyph glyph-name="uni2089" unicode="&#x2089;" horiz-adv-x="817" 
d="M184 -200q42 30 102.5 84t120 122.5t100.5 143t42 147.5h9q-8 -20 -22.5 -51.5t-40 -63.5t-67 -53.5t-104.5 -21.5q-77 0 -141 36t-102 108t-38 180q0 102 48 179t128.5 120.5t176.5 43.5q102 0 183 -46.5t128 -137.5t47 -222q0 -103 -31 -196t-78.5 -168.5t-96 -128
t-83.5 -75.5h-281zM390 262q55 0 92 13.5t62 40.5q5 13 6 42t1 42q0 77 -37.5 132t-116.5 55q-73 0 -109.5 -46.5t-36.5 -108.5q0 -82 37 -126t102 -44z" />
    <glyph glyph-name="Euro" unicode="&#x20ac;" horiz-adv-x="1501" 
d="M856 -21q-184 0 -330 87.5t-231 259t-85 422.5q0 234 83 397.5t230 249.5t339 86q156 0 284 -53.5t206 -163t82 -277.5h-240q-6 100 -51.5 161.5t-120.5 89t-169 27.5q-107 0 -197.5 -57t-146 -171.5t-55.5 -289.5q0 -206 57 -326.5t150 -173t200 -52.5q128 0 198.5 36
t101 95t35.5 127h240q-7 -149 -73.5 -255t-192.5 -162.5t-314 -56.5zM38 449v186h832v-186h-832zM78 799v186h841v-186h-841z" />
    <glyph glyph-name="trademark" unicode="&#x2122;" horiz-adv-x="1593" 
d="M733 890v564h283l67 -364l6 -64l4 64l68 364h282v-564h-164v292l7 184h-3l-36 -198l-74 -278h-170l-73 278l-37 198h-3l8 -184v-292h-165zM302 890v534h166v-534h-166zM150 1306v148h468v-148h-468z" />
    <glyph glyph-name="oneeighth" unicode="&#x215b;" horiz-adv-x="1946" 
d="M255 476l2 783l54 177h158v-960h-214zM51 1137v201q32 0 68 3.5t73 13.5q37 11 67 30t52 51l-51 -176q-7 -26 -18 -54.5t-46 -47.5q-26 -13 -55 -17t-90 -4zM419 0l769 1454h184l-769 -1454h-184zM1515 -14q-102 0 -185 31.5t-131.5 92.5t-48.5 149q0 113 66.5 172.5
t184.5 68.5q-109 14 -161.5 77.5t-52.5 136.5q0 122 82 193.5t246 71.5q165 0 246.5 -72t81.5 -193q0 -75 -53 -138.5t-160 -77.5q117 -7 184 -66.5t67 -172.5q0 -88 -49 -149t-131.5 -92.5t-185.5 -31.5zM1515 165q67 0 117 30t50 91q0 70 -47.5 101.5t-119.5 31.5
t-119.5 -30.5t-47.5 -102.5q0 -61 49 -91t118 -30zM1515 573q69 0 101 36t32 83q0 57 -38 85t-95 28q-59 0 -95.5 -28t-36.5 -85q0 -47 30 -83t102 -36z" />
    <glyph glyph-name="threeeighths" unicode="&#x215c;" horiz-adv-x="2127" 
d="M399 461q-104 0 -188.5 35.5t-131.5 105.5t-40 174h197q-3 -70 43.5 -101.5t123.5 -31.5q58 0 106 28.5t48 90.5q0 65 -46.5 94.5t-107.5 29.5h-105v168h98q68 0 98 35t30 76q0 58 -37 85.5t-83 27.5q-64 0 -98 -30.5t-31 -91.5h-202q1 143 81 221t251 78q162 0 243 -72
t81 -190q0 -76 -51.5 -140.5t-141.5 -79.5q102 -6 166.5 -65t64.5 -169q0 -121 -96.5 -199.5t-271.5 -78.5zM592 0l769 1454h184l-769 -1454h-184zM1696 -14q-102 0 -185 31.5t-131.5 92.5t-48.5 149q0 113 66.5 172.5t184.5 68.5q-109 14 -161.5 77.5t-52.5 136.5
q0 122 82 193.5t246 71.5q165 0 246.5 -72t81.5 -193q0 -75 -53 -138.5t-160 -77.5q117 -7 184 -66.5t67 -172.5q0 -88 -49 -149t-131.5 -92.5t-185.5 -31.5zM1696 165q67 0 117 30t50 91q0 70 -47.5 101.5t-119.5 31.5t-119.5 -30.5t-47.5 -102.5q0 -61 49 -91t118 -30z
M1696 573q69 0 101 36t32 83q0 57 -38 85t-95 28q-59 0 -95.5 -28t-36.5 -85q0 -47 30 -83t102 -36z" />
    <glyph glyph-name="fiveeighths" unicode="&#x215d;" horiz-adv-x="2144" 
d="M389 462q-103 0 -183.5 38t-124 108t-36.5 167h199q6 -63 44 -93t110 -30q71 0 107.5 41.5t36.5 116.5q0 76 -37 107t-102 31q-62 0 -100 -25t-59 -49l-182 55l61 507h574v-191h-410l-59 -283q14 43 36 72.5t53 46.5q27 14 62.5 21.5t79.5 7.5q74 0 142 -28t112 -92.5
t44 -176.5q0 -159 -100.5 -255t-267.5 -96zM601 0l769 1454h184l-769 -1454h-184zM1713 -14q-102 0 -185 31.5t-131.5 92.5t-48.5 149q0 113 66.5 172.5t184.5 68.5q-109 14 -161.5 77.5t-52.5 136.5q0 122 82 193.5t246 71.5q165 0 246.5 -72t81.5 -193q0 -75 -53 -138.5
t-160 -77.5q117 -7 184 -66.5t67 -172.5q0 -88 -49 -149t-131.5 -92.5t-185.5 -31.5zM1713 165q67 0 117 30t50 91q0 70 -47.5 101.5t-119.5 31.5t-119.5 -30.5t-47.5 -102.5q0 -61 49 -91t118 -30zM1713 573q69 0 101 36t32 83q0 57 -38 85t-95 28q-59 0 -95.5 -28
t-36.5 -85q0 -47 30 -83t102 -36z" />
    <glyph glyph-name="seveneighths" unicode="&#x215e;" horiz-adv-x="1977" 
d="M165 476l271 683q18 47 49 70t69 28.5t76 -2.5l6 -4h-585v185h608h71l-338 -960h-227zM415 0l769 1454h184l-769 -1454h-184zM1546 -14q-102 0 -185 31.5t-131.5 92.5t-48.5 149q0 113 66.5 172.5t184.5 68.5q-109 14 -161.5 77.5t-52.5 136.5q0 122 82 193.5t246 71.5
q165 0 246.5 -72t81.5 -193q0 -75 -53 -138.5t-160 -77.5q117 -7 184 -66.5t67 -172.5q0 -88 -49 -149t-131.5 -92.5t-185.5 -31.5zM1546 165q67 0 117 30t50 91q0 70 -47.5 101.5t-119.5 31.5t-119.5 -30.5t-47.5 -102.5q0 -61 49 -91t118 -30zM1546 573q69 0 101 36t32 83
q0 57 -38 85t-95 28q-59 0 -95.5 -28t-36.5 -85q0 -47 30 -83t102 -36z" />
    <glyph glyph-name="minus" unicode="&#x2212;" horiz-adv-x="1069" 
d="M150 573v189h769v-189h-769z" />
    <glyph glyph-name="uni2215" unicode="&#x2215;" horiz-adv-x="545" 
d="M-121 0l769 1454h184l-769 -1454h-184z" />
    <glyph glyph-name="uni004A0301" horiz-adv-x="1022" 
d="M463 -30q-117 0 -216.5 38.5t-160 133.5t-64.5 265h225q-1 -115 52 -168t159 -53q61 0 105 18t67 73.5t23 168.5v1008h242v-988q0 -175 -48.5 -284t-144.5 -160.5t-239 -51.5zM659 1618l197 282h253l-234 -282h-216z" />
    <glyph glyph-name="G.ss02" horiz-adv-x="1405" 
d="M768 -19q-204 0 -355.5 91t-235.5 260t-84 401q0 230 82 397.5t228 259t337 91.5q141 0 257 -47.5t192.5 -144t99.5 -242.5l-243 -8q-10 68 -48 118t-100 77.5t-144 27.5q-126 0 -220 -63.5t-146 -182t-52 -284.5q0 -125 29.5 -223.5t86 -168t137.5 -105.5t185 -36
q85 0 143 21.5t96.5 55t64.5 69.5v240h-257v212h479v-797h-176l-21 140q-60 -78 -140.5 -118.5t-194.5 -40.5z" />
    <glyph glyph-name="uni01F4.ss02" horiz-adv-x="1405" 
d="M768 -19q-204 0 -355.5 91t-235.5 260t-84 401q0 230 82 397.5t228 259t337 91.5q141 0 257 -47.5t192.5 -144t99.5 -242.5l-243 -8q-10 68 -48 118t-100 77.5t-144 27.5q-126 0 -220 -63.5t-146 -182t-52 -284.5q0 -125 29.5 -223.5t86 -168t137.5 -105.5t185 -36
q85 0 143 21.5t96.5 55t64.5 69.5v240h-257v212h479v-797h-176l-21 140q-60 -78 -140.5 -118.5t-194.5 -40.5zM621 1618l197 282h253l-234 -282h-216z" />
    <glyph glyph-name="Gbreve.ss02" horiz-adv-x="1409" 
d="M716 1600q-136 0 -203.5 75.5t-67.5 224.5h172q-8 -87 19.5 -121.5t79.5 -34.5t79.5 34.5t19.5 121.5h172q0 -149 -67 -224.5t-204 -75.5zM768 -19q-204 0 -355.5 91t-235.5 260t-84 401q0 230 82 397.5t228 259t337 91.5q141 0 257 -47.5t192.5 -144t99.5 -242.5
l-243 -8q-10 68 -48 118t-100 77.5t-144 27.5q-126 0 -220 -63.5t-146 -182t-52 -284.5q0 -125 29.5 -223.5t86 -168t137.5 -105.5t185 -36q85 0 143 21.5t96.5 55t64.5 69.5v240h-257v212h479v-797h-176l-21 140q-60 -78 -140.5 -118.5t-194.5 -40.5z" />
    <glyph glyph-name="Gcaron.ss02" horiz-adv-x="1409" 
d="M619 1618l-210 282h174l133 -155l133 155h174l-210 -282h-194zM768 -19q-204 0 -355.5 91t-235.5 260t-84 401q0 230 82 397.5t228 259t337 91.5q141 0 257 -47.5t192.5 -144t99.5 -242.5l-243 -8q-10 68 -48 118t-100 77.5t-144 27.5q-126 0 -220 -63.5t-146 -182
t-52 -284.5q0 -125 29.5 -223.5t86 -168t137.5 -105.5t185 -36q85 0 143 21.5t96.5 55t64.5 69.5v240h-257v212h479v-797h-176l-21 140q-60 -78 -140.5 -118.5t-194.5 -40.5z" />
    <glyph glyph-name="uni0122.ss02" horiz-adv-x="1405" 
d="M768 -19q-204 0 -355.5 91t-235.5 260t-84 401q0 230 82 397.5t228 259t337 91.5q141 0 257 -47.5t192.5 -144t99.5 -242.5l-243 -8q-10 68 -48 118t-100 77.5t-144 27.5q-126 0 -220 -63.5t-146 -182t-52 -284.5q0 -125 29.5 -223.5t86 -168t137.5 -105.5t185 -36
q85 0 143 21.5t96.5 55t64.5 69.5v240h-257v212h479v-797h-176l-21 140q-60 -78 -140.5 -118.5t-194.5 -40.5zM569 -457q11 43 28.5 119t17.5 199v33h222v-48q0 -26 -7.5 -70t-20 -91t-26.5 -85.5t-27 -56.5h-187z" />
    <glyph glyph-name="Gdotaccent.ss02" horiz-adv-x="1405" 
d="M768 -19q-204 0 -355.5 91t-235.5 260t-84 401q0 230 82 397.5t228 259t337 91.5q141 0 257 -47.5t192.5 -144t99.5 -242.5l-243 -8q-10 68 -48 118t-100 77.5t-144 27.5q-126 0 -220 -63.5t-146 -182t-52 -284.5q0 -125 29.5 -223.5t86 -168t137.5 -105.5t185 -36
q85 0 143 21.5t96.5 55t64.5 69.5v240h-257v212h479v-797h-176l-21 140q-60 -78 -140.5 -118.5t-194.5 -40.5zM734 1600q-59 0 -102.5 45.5t-43.5 108.5q0 65 43.5 108.5t102.5 43.5q61 0 104 -43.5t43 -108.5q0 -63 -44 -108.5t-103 -45.5z" />
    <glyph glyph-name="i.loclTRK" horiz-adv-x="546" 
d="M154 0v1091h238l-4 -1091h-234zM274 1255q-64 0 -109.5 43t-45.5 112q0 74 45.5 116.5t109.5 42.5t109.5 -42.5t45.5 -116.5q0 -69 -45.5 -112t-109.5 -43z" />
    <glyph glyph-name="uni006A0301" horiz-adv-x="588" 
d="M180 -460q-57 0 -94.5 9t-69.5 20v216q13 -5 38.5 -12t53.5 -7q35 0 61 23t26 81v1221h240l-5 -1143q0 -24 0.5 -48.5t0.5 -48.5q0 -79 -21 -150t-75 -116t-155 -45zM203 1277l197 278h253l-234 -278h-216z" />
    <glyph glyph-name="g.ss02.alt" horiz-adv-x="981" 
d="M689 1069l-11 10q8 92 43.5 145.5t86 77t99.5 23.5q20 0 41 -2t37 -7v-217q-34 4 -64 7t-53 3q-15 0 -47 0.5t-68.5 -7t-63.5 -33.5zM534 -455q-155 0 -268.5 40t-175.5 110t-62 161q0 73 36.5 121t91.5 73.5t108 28.5l51 -4q-14 -15 -29.5 -36t-25 -50.5t-9.5 -67.5
q0 -53 25 -94t85.5 -64.5t167.5 -23.5q133 0 196 38.5t63 115.5q0 52 -35 76.5t-133 37.5l-239 35q-129 19 -193.5 54t-86 76t-21.5 75q0 56 32 93t78 57.5t91 28t71 4.5q-28 -14 -46.5 -35.5t-18.5 -64.5q0 -44 29 -65.5t104 -32.5l242 -34q147 -20 224 -66t105 -107.5
t28 -128.5q0 -83 -33 -148t-96 -110t-152.5 -69t-203.5 -24zM534 384q-188 0 -302.5 98.5t-114.5 264.5q0 113 52.5 195t147.5 126t219 42q119 -1 212.5 -45t147.5 -125t54 -196q0 -166 -114.5 -263t-301.5 -97zM535 563q97 0 146 46.5t49 135.5q0 90 -49.5 138t-147.5 48
q-97 0 -146.5 -46.5t-49.5 -134.5q0 -91 50 -139t148 -48z" />
    <glyph glyph-name="g.ss02" horiz-adv-x="979" 
d="M534 -455q-155 0 -268.5 40t-175.5 110t-62 161q0 73 36.5 121t91.5 73.5t108 28.5l51 -4q-14 -15 -29.5 -36t-25 -50.5t-9.5 -67.5q0 -53 25 -94t85.5 -64.5t167.5 -23.5q133 0 196 38.5t63 115.5q0 52 -35 76.5t-133 37.5l-239 35q-129 19 -193.5 54t-86 76t-21.5 75
q0 56 32 93t78 57.5t91 28t71 4.5q-28 -14 -46.5 -35.5t-18.5 -64.5q0 -44 29 -65.5t104 -32.5l242 -34q147 -20 224 -66t105 -107.5t28 -128.5q0 -83 -33 -148t-96 -110t-152.5 -69t-203.5 -24zM534 384q-188 0 -302.5 98.5t-114.5 264.5q0 113 52.5 195t147.5 126t219 42
q119 -1 212.5 -45t147.5 -125t54 -196q0 -166 -114.5 -263t-301.5 -97zM535 563q97 0 146 46.5t49 135.5q0 90 -49.5 138t-147.5 48q-97 0 -146.5 -46.5t-49.5 -134.5q0 -91 50 -139t148 -48zM646 1072l-13 10q9 91 49.5 144.5t99 77t121.5 23.5q20 0 38 -2t30 -7v-218
q-33 6 -59.5 10t-69.5 4h-61.5t-70.5 -8.5t-64 -33.5z" />
    <glyph glyph-name="uni01F5.ss02" horiz-adv-x="981" 
d="M689 1069l-11 10q8 92 43.5 145.5t86 77t99.5 23.5q20 0 41 -2t37 -7v-217q-34 4 -64 7t-53 3q-15 0 -47 0.5t-68.5 -7t-63.5 -33.5zM534 -455q-155 0 -268.5 40t-175.5 110t-62 161q0 73 36.5 121t91.5 73.5t108 28.5l51 -4q-14 -15 -29.5 -36t-25 -50.5t-9.5 -67.5
q0 -53 25 -94t85.5 -64.5t167.5 -23.5q133 0 196 38.5t63 115.5q0 52 -35 76.5t-133 37.5l-239 35q-129 19 -193.5 54t-86 76t-21.5 75q0 56 32 93t78 57.5t91 28t71 4.5q-28 -14 -46.5 -35.5t-18.5 -64.5q0 -44 29 -65.5t104 -32.5l242 -34q147 -20 224 -66t105 -107.5
t28 -128.5q0 -83 -33 -148t-96 -110t-152.5 -69t-203.5 -24zM534 384q-188 0 -302.5 98.5t-114.5 264.5q0 113 52.5 195t147.5 126t219 42q119 -1 212.5 -45t147.5 -125t54 -196q0 -166 -114.5 -263t-301.5 -97zM535 563q97 0 146 46.5t49 135.5q0 90 -49.5 138t-147.5 48
q-97 0 -146.5 -46.5t-49.5 -134.5q0 -91 50 -139t148 -48zM384 1277l197 278h253l-234 -278h-216z" />
    <glyph glyph-name="gbreve.ss02" horiz-adv-x="1170" 
d="M538 1255q-132 0 -197 75.5t-65 225.5h172q-7 -89 18.5 -123.5t71.5 -34.5q47 0 72.5 34.5t17.5 123.5h172q0 -150 -65 -225.5t-197 -75.5zM689 1069l-11 10q8 92 43.5 145.5t86 77t99.5 23.5q20 0 41 -2t37 -7v-217q-34 4 -64 7t-53 3q-15 0 -47 0.5t-68.5 -7
t-63.5 -33.5zM534 -455q-155 0 -268.5 40t-175.5 110t-62 161q0 73 36.5 121t91.5 73.5t108 28.5l51 -4q-14 -15 -29.5 -36t-25 -50.5t-9.5 -67.5q0 -53 25 -94t85.5 -64.5t167.5 -23.5q133 0 196 38.5t63 115.5q0 52 -35 76.5t-133 37.5l-239 35q-129 19 -193.5 54t-86 76
t-21.5 75q0 56 32 93t78 57.5t91 28t71 4.5q-28 -14 -46.5 -35.5t-18.5 -64.5q0 -44 29 -65.5t104 -32.5l242 -34q147 -20 224 -66t105 -107.5t28 -128.5q0 -83 -33 -148t-96 -110t-152.5 -69t-203.5 -24zM534 384q-188 0 -302.5 98.5t-114.5 264.5q0 113 52.5 195
t147.5 126t219 42q119 -1 212.5 -45t147.5 -125t54 -196q0 -166 -114.5 -263t-301.5 -97zM535 563q97 0 146 46.5t49 135.5q0 90 -49.5 138t-147.5 48q-97 0 -146.5 -46.5t-49.5 -134.5q0 -91 50 -139t148 -48z" />
    <glyph glyph-name="gcaron.ss02" horiz-adv-x="981" 
d="M689 1069l-11 10q8 92 43.5 145.5t86 77t99.5 23.5q20 0 41 -2t37 -7v-217q-34 4 -64 7t-53 3q-15 0 -47 0.5t-68.5 -7t-63.5 -33.5zM534 -455q-155 0 -268.5 40t-175.5 110t-62 161q0 73 36.5 121t91.5 73.5t108 28.5l51 -4q-14 -15 -29.5 -36t-25 -50.5t-9.5 -67.5
q0 -53 25 -94t85.5 -64.5t167.5 -23.5q133 0 196 38.5t63 115.5q0 52 -35 76.5t-133 37.5l-239 35q-129 19 -193.5 54t-86 76t-21.5 75q0 56 32 93t78 57.5t91 28t71 4.5q-28 -14 -46.5 -35.5t-18.5 -64.5q0 -44 29 -65.5t104 -32.5l242 -34q147 -20 224 -66t105 -107.5
t28 -128.5q0 -83 -33 -148t-96 -110t-152.5 -69t-203.5 -24zM534 384q-188 0 -302.5 98.5t-114.5 264.5q0 113 52.5 195t147.5 126t219 42q119 -1 212.5 -45t147.5 -125t54 -196q0 -166 -114.5 -263t-301.5 -97zM535 563q97 0 146 46.5t49 135.5q0 90 -49.5 138t-147.5 48
q-97 0 -146.5 -46.5t-49.5 -134.5q0 -91 50 -139t148 -48zM402 1277l-208 279h174l133 -137l134 137h174l-208 -279h-199z" />
    <glyph glyph-name="uni0123.ss02" horiz-adv-x="981" 
d="M689 1069l-11 10q8 92 43.5 145.5t86 77t99.5 23.5q20 0 41 -2t37 -7v-217q-34 4 -64 7t-53 3q-15 0 -47 0.5t-68.5 -7t-63.5 -33.5zM534 -455q-155 0 -268.5 40t-175.5 110t-62 161q0 73 36.5 121t91.5 73.5t108 28.5l51 -4q-14 -15 -29.5 -36t-25 -50.5t-9.5 -67.5
q0 -53 25 -94t85.5 -64.5t167.5 -23.5q133 0 196 38.5t63 115.5q0 52 -35 76.5t-133 37.5l-239 35q-129 19 -193.5 54t-86 76t-21.5 75q0 56 32 93t78 57.5t91 28t71 4.5q-28 -14 -46.5 -35.5t-18.5 -64.5q0 -44 29 -65.5t104 -32.5l242 -34q147 -20 224 -66t105 -107.5
t28 -128.5q0 -83 -33 -148t-96 -110t-152.5 -69t-203.5 -24zM534 384q-188 0 -302.5 98.5t-114.5 264.5q0 113 52.5 195t147.5 126t219 42q119 -1 212.5 -45t147.5 -125t54 -196q0 -166 -114.5 -263t-301.5 -97zM535 563q97 0 146 46.5t49 135.5q0 90 -49.5 138t-147.5 48
q-97 0 -146.5 -46.5t-49.5 -134.5q0 -91 50 -139t148 -48zM390 1277v45q0 37 10.5 85.5t26.5 92.5t33 67h196q-13 -44 -24.5 -108.5t-11.5 -151.5v-30h-230z" />
    <glyph glyph-name="gdotaccent.ss02" horiz-adv-x="981" 
d="M689 1069l-11 10q8 92 43.5 145.5t86 77t99.5 23.5q20 0 41 -2t37 -7v-217q-34 4 -64 7t-53 3q-15 0 -47 0.5t-68.5 -7t-63.5 -33.5zM534 -455q-155 0 -268.5 40t-175.5 110t-62 161q0 73 36.5 121t91.5 73.5t108 28.5l51 -4q-14 -15 -29.5 -36t-25 -50.5t-9.5 -67.5
q0 -53 25 -94t85.5 -64.5t167.5 -23.5q133 0 196 38.5t63 115.5q0 52 -35 76.5t-133 37.5l-239 35q-129 19 -193.5 54t-86 76t-21.5 75q0 56 32 93t78 57.5t91 28t71 4.5q-28 -14 -46.5 -35.5t-18.5 -64.5q0 -44 29 -65.5t104 -32.5l242 -34q147 -20 224 -66t105 -107.5
t28 -128.5q0 -83 -33 -148t-96 -110t-152.5 -69t-203.5 -24zM534 384q-188 0 -302.5 98.5t-114.5 264.5q0 113 52.5 195t147.5 126t219 42q119 -1 212.5 -45t147.5 -125t54 -196q0 -166 -114.5 -263t-301.5 -97zM535 563q97 0 146 46.5t49 135.5q0 90 -49.5 138t-147.5 48
q-97 0 -146.5 -46.5t-49.5 -134.5q0 -91 50 -139t148 -48zM501 1255q-64 0 -109.5 43t-45.5 112q0 74 45.5 116.5t109.5 42.5t109.5 -42.5t45.5 -116.5q0 -69 -45.5 -112t-109.5 -43z" />
    <glyph glyph-name="zero.lf" horiz-adv-x="1190" 
d="M597 -29q-154 0 -270.5 77.5t-181.5 246t-65 441.5q0 262 65 426.5t181.5 242.5t270.5 78q153 0 269 -78t180 -242.5t64 -426.5q0 -273 -64 -441.5t-180 -246t-269 -77.5zM597 188q80 0 141 51t96 170t35 325q0 196 -35 312.5t-96 168t-141 51.5q-79 0 -141.5 -52
t-98.5 -168t-36 -312q0 -206 36 -325t98 -170t142 -51z" />
    <glyph glyph-name="one.lf" horiz-adv-x="824" 
d="M382 0l2 1266l60 188h181v-1454h-243zM80 1089v232q53 0 97.5 4.5t78.5 14.5q49 14 97 36.5t91 77.5l-47 -178q-22 -54 -42.5 -92t-63.5 -61q-39 -21 -79 -27.5t-132 -6.5z" />
    <glyph glyph-name="two.lf" horiz-adv-x="1092" 
d="M31 0q60 74 119.5 147.5t117.5 146.5t114.5 145t111.5 144q76 97 139 175t101 153t38 164q0 100 -59 154t-158 52q-74 -1 -132.5 -31t-88 -99.5t-16.5 -186.5h-221q-21 181 31.5 296t165 169.5t271.5 54.5q138 0 236 -46t150 -135t51 -216q0 -113 -33 -198t-87.5 -161.5
t-120.5 -164.5q-53 -72 -108 -142.5t-107 -135.5t-98 -122q33 40 86.5 46t151.5 6h313v-215h-968z" />
    <glyph glyph-name="three.lf" horiz-adv-x="1122" 
d="M554 -29q-103 0 -197 26t-165.5 82.5t-109.5 146t-30 217.5h232q-6 -122 59.5 -192t208.5 -70q74 0 136 23.5t99.5 72t37.5 125.5q0 135 -79 192t-198 57h-152v202h150q76 0 126 31.5t75 82.5t25 111q0 99 -62 151t-155 52q-98 0 -161.5 -56.5t-56.5 -188.5h-233
q-1 154 49 253.5t151 147t252 47.5q224 0 334.5 -110.5t110.5 -283.5q0 -73 -30 -144.5t-93.5 -123t-163.5 -67.5q163 -13 252.5 -101.5t89.5 -255.5q0 -138 -64.5 -233.5t-177.5 -144.5t-260 -49z" />
    <glyph glyph-name="four.lf" horiz-adv-x="1115" 
d="M668 0v269h-689l574 1185h338l-4 -5l5 -975h189v-205h-188v-269h-225zM296 442q19 15 42.5 23.5t49.5 8.5h357q-51 0 -64 39t-13 84v373l10 286l-115 -265l-205 -437z" />
    <glyph glyph-name="five.lf" horiz-adv-x="1128" 
d="M560 -29q-165 0 -276.5 66t-164 172.5t-42.5 229.5h231q-1 -61 24.5 -118.5t82.5 -94.5t154 -37q65 0 123 23.5t94 83t36 167.5q0 145 -66 209t-186 64q-84 0 -158 -23.5t-126 -66.5l-183 66l93 742h798v-220h-598l-93 -471q17 48 42 75t55 47q35 23 90 37.5t129 14.5
q84 0 163 -23.5t142.5 -77.5t101.5 -145t38 -227q0 -141 -62.5 -252.5t-175 -176t-266.5 -64.5z" />
    <glyph glyph-name="six.lf" horiz-adv-x="1124" 
d="M586 -29q-142 0 -255.5 68.5t-179 202.5t-65.5 329q0 170 43.5 312.5t109.5 254.5t135 191.5t119 124.5h334q-49 -42 -113 -100t-130 -131t-123.5 -160t-95.5 -188t-45 -216l-2 31q15 53 42 103.5t69 91t100.5 64t134.5 23.5q131 0 222.5 -60.5t139 -171t47.5 -261.5
q0 -108 -37 -201t-102.5 -161.5t-154 -107t-193.5 -38.5zM584 183q74 0 131 38t89 104.5t32 149.5q0 134 -61.5 213.5t-187.5 79.5q-60 0 -108 -16.5t-84.5 -44.5t-63.5 -60q-5 -9 -6 -50.5t-1 -66.5q0 -57 14.5 -118t45.5 -113t80.5 -84t119.5 -32z" />
    <glyph glyph-name="seven.lf" horiz-adv-x="1048" 
d="M246 0l418 1106q18 48 51.5 80.5t79.5 48.5t103 15l22 -14h-860v218h861h97l-513 -1454h-259z" />
    <glyph glyph-name="eight.lf" horiz-adv-x="1216" 
d="M608 -29q-150 0 -265 48t-180.5 142t-65.5 231q0 173 89 261.5t255 103.5q-98 11 -162.5 60.5t-96 118.5t-31.5 140q0 189 112.5 298.5t344.5 109.5q234 0 345.5 -110.5t111.5 -297.5q0 -71 -31.5 -140.5t-95 -119t-161.5 -61.5q164 -13 253 -102.5t89 -260.5
q0 -137 -66 -231t-181 -142t-264 -48zM608 180q115 0 198 55t83 170q0 132 -80 189t-201 57t-201 -55.5t-80 -190.5q0 -115 82.5 -170t198.5 -55zM608 854q75 0 125.5 31.5t76.5 82t26 109.5q0 101 -64 152.5t-164 51.5q-103 0 -165.5 -51.5t-62.5 -152.5q0 -59 23 -109.5
t73 -82t132 -31.5z" />
    <glyph glyph-name="nine.lf" horiz-adv-x="1125" 
d="M297 0q50 42 114.5 101t131 134.5t124.5 164t96 189t44 210.5l10 2q-17 -62 -42 -117.5t-62.5 -98t-93.5 -66.5t-137 -24q-123 0 -220.5 62t-154 173t-56.5 256q0 116 38.5 208t106.5 156.5t157 98.5t190 34q139 0 251.5 -64.5t178.5 -197t66 -337.5q0 -170 -43 -313
t-108.5 -255t-134.5 -191.5t-120 -124.5h-336zM536 697q60 0 108 16t85 46.5t63 73.5q5 9 5.5 40t0.5 63q0 88 -27.5 164t-84 124t-144.5 48q-75 0 -132.5 -35.5t-89.5 -99t-32 -146.5q0 -125 61.5 -209.5t186.5 -84.5z" />
    <glyph glyph-name="one.ss01" horiz-adv-x="718" 
d="M299 0l2 1269q-15 -17 -41 -30t-60 -13l-200 -2v230h541v-1454h-242z" />
    <glyph glyph-name="two.ss01" horiz-adv-x="1089" 
d="M70 0v134q0 136 61 233.5t162.5 177t220.5 157.5q131 87 196 166t65 196q0 103 -56.5 156t-145.5 53q-72 0 -132 -26t-90.5 -91.5t-15.5 -182.5h-221q-23 174 31 287.5t164 168.5t256 55q218 0 326 -114t108 -306q0 -89 -40 -179.5t-116 -175.5t-185 -157
q-86 -57 -167.5 -112t-134 -113t-52.5 -127v-38q10 40 42 48.5t66 8.5h577v-219h-919z" />
    <glyph glyph-name="four.ss01" horiz-adv-x="1123" 
d="M-3 237l523 1217h258l-429 -955l-31 -55h762l-1 -207h-1082zM672 0l1 370l76 74q-38 0 -54 27t-19 66t-3 75l-1 271l238 5v-888h-238z" />
    <glyph glyph-name="seven.ss01" horiz-adv-x="1033" 
d="M315 0q-11 288 40.5 528t146 411.5t208.5 253.5q21 17 64 32t71 20h-785v209h898l56 -165q-156 -125 -255 -305.5t-145.5 -424t-45.5 -559.5h-253z" />
    <glyph glyph-name="zero.ss03" horiz-adv-x="1190" 
d="M597 -29q-154 0 -270.5 77.5t-181.5 246t-65 441.5q0 262 65 426.5t181.5 242.5t270.5 78q153 0 269 -78t180 -242.5t64 -426.5q0 -273 -64 -441.5t-180 -246t-269 -77.5zM597 188q80 0 141 51t96 170t35 325q0 196 -35 312.5t-96 168t-141 51.5q-79 0 -141.5 -52
t-98.5 -168t-36 -312q0 -206 36 -325t98 -170t142 -51zM590 580q-63 0 -107 44t-44 114q0 69 44 113.5t107 44.5t106.5 -44.5t43.5 -113.5q0 -70 -43.5 -114t-106.5 -44z" />
    <glyph glyph-name="zero.tf" horiz-adv-x="1156" 
d="M580 -20q-152 0 -267 78t-179.5 244.5t-64.5 433.5q0 260 64.5 424.5t179.5 243.5t267 79q151 0 265 -79t178 -243.5t64 -424.5q0 -267 -64 -433.5t-178 -244.5t-265 -78zM580 200q77 0 137 50t94 167t34 317q0 195 -34 311t-94 167t-137 51q-78 0 -139 -51.5
t-95.5 -167.5t-34.5 -310q0 -199 34.5 -316.5t95 -167.5t139.5 -50z" />
    <glyph glyph-name="one.tf" horiz-adv-x="1156" 
d="M486 27l1 1239l66 188h179v-1427h-246zM100 1089v232q114 0 168 4.5t87 13.5q53 15 102.5 37.5t95.5 77.5l-27 -177q-10 -14 -27 -43.5t-44.5 -61t-68.5 -53.5q-23 -12 -50.5 -18.5t-80.5 -9t-155 -2.5zM168 -3v220h882v-220h-882z" />
    <glyph glyph-name="two.tf" horiz-adv-x="1156" 
d="M48 0q61 74 123.5 148.5t123.5 148t119.5 145.5t112.5 139q79 99 145 177.5t106 153.5t40 163q0 100 -62.5 154t-168.5 52q-82 -1 -146 -35t-92.5 -112t-5.5 -212l23 42h-379l133 -52q-34 200 17.5 326t171 186t288.5 60q143 0 244.5 -46t155.5 -135t53 -216
q0 -113 -35.5 -198.5t-93 -162t-127.5 -163.5q-45 -57 -89 -111t-85.5 -104.5t-79.5 -97t-71 -87.5q34 40 87 46t152 6h340v-215h-1000z" />
    <glyph glyph-name="three.tf" horiz-adv-x="1156" 
d="M570 -29q-105 0 -200.5 26t-168 82.5t-111 146t-30.5 217.5h232q-6 -122 62 -192t214 -70q77 0 140.5 23.5t102 72t38.5 125.5q0 135 -80.5 192t-203.5 57h-156l1 202h152q79 0 130.5 31.5t77.5 82.5t26 111q0 99 -64 151t-160 52q-103 0 -168 -56.5t-58 -188.5h-234
q-1 154 50.5 253.5t154.5 147t255 47.5q228 0 340.5 -110.5t112.5 -283.5q0 -73 -30.5 -144.5t-95 -123t-166.5 -67.5q167 -13 257.5 -102t90.5 -255q0 -138 -65.5 -233.5t-180.5 -144.5t-265 -49z" />
    <glyph glyph-name="four.tf" horiz-adv-x="1156" 
d="M697 0v269h-704l606 1185h322l-4 -5l5 -973h192v-207h-191l1 -269h-227zM312 444q19 15 43 23.5t51 8.5h368q-50 0 -63.5 39t-13.5 84v371l10 250l-100 -229l-231 -437z" />
    <glyph glyph-name="five.tf" horiz-adv-x="1156" 
d="M573 -29q-168 0 -282.5 66t-168 172.5t-43.5 229.5h232q-1 -61 25 -118.5t86 -94.5t160 -37q68 0 128.5 23.5t98 83t37.5 167.5q0 145 -69 209t-194 64q-87 0 -163.5 -23.5t-130.5 -66.5l-183 66l94 742h816v-220h-615l-95 -471q19 49 43.5 75.5t56.5 47.5
q36 22 93.5 36.5t132.5 14.5q85 0 166.5 -23.5t147 -77.5t104 -145t38.5 -227q0 -141 -63.5 -252.5t-179 -176t-272.5 -64.5z" />
    <glyph glyph-name="six.tf" horiz-adv-x="1156" 
d="M602 -29q-144 0 -259 68.5t-182 202.5t-67 329q0 169 44.5 312t112 255t138 191.5t122.5 124.5h336q-50 -41 -115 -99t-133 -131t-127 -160.5t-97.5 -188.5t-46.5 -216l-1 31q15 53 42.5 103.5t71.5 91t103 64t136 23.5q134 0 227.5 -60.5t142 -171t48.5 -261.5
q0 -108 -37.5 -201t-104.5 -161.5t-157.5 -107t-196.5 -38.5zM601 183q75 0 133.5 38t92 104.5t33.5 149.5q0 134 -63.5 213.5t-192.5 79.5q-63 0 -113.5 -17t-88 -45t-62.5 -59q-5 -9 -6 -50.5t-1 -66.5q0 -57 15 -118t47 -113t83 -84t123 -32z" />
    <glyph glyph-name="seven.tf" horiz-adv-x="1156" 
d="M286 0l452 1106q30 73 91.5 109.5t149.5 34.5l21 -14h-916v218h915h103l-553 -1454h-263z" />
    <glyph glyph-name="eight.tf" horiz-adv-x="1156" 
d="M579 -29q-144 0 -256 48t-175.5 142t-63.5 231q0 173 86.5 261.5t244.5 103.5q-94 11 -156 60.5t-92.5 118.5t-30.5 140q0 189 109.5 298.5t333.5 109.5q225 0 333.5 -110.5t108.5 -297.5q0 -70 -30.5 -139.5t-92 -119.5t-154.5 -62q156 -13 242.5 -103t86.5 -260
q0 -137 -64 -231t-175.5 -142t-254.5 -48zM579 180q108 0 187 55t79 170q0 132 -76 189t-190 57q-115 0 -191 -55.5t-76 -190.5q0 -115 78.5 -170t188.5 -55zM579 854q71 0 119 31.5t72.5 82t24.5 109.5q0 101 -61 152.5t-155 51.5q-97 0 -157 -51.5t-60 -152.5
q0 -59 22 -109.5t69.5 -82t125.5 -31.5z" />
    <glyph glyph-name="nine.tf" horiz-adv-x="1156" 
d="M310 0q50 42 115.5 101t134 134.5t127.5 164t98 189t44 210.5l11 2q-18 -62 -43.5 -117.5t-64 -98t-96 -66.5t-139.5 -24q-126 0 -225 62t-156.5 173t-57.5 256q0 116 39.5 208t108.5 156.5t159.5 98.5t192.5 34q142 0 256 -64.5t181.5 -197t67.5 -337.5
q0 -170 -44.5 -313t-111.5 -255t-137 -191.5t-123 -124.5h-337zM551 697q62 0 111.5 16t87.5 46.5t65 73.5q5 9 5.5 40t0.5 63q0 88 -28.5 164t-87.5 124t-148 48q-76 0 -135 -35.5t-92.5 -99t-33.5 -146.5q0 -125 64 -209.5t191 -84.5z" />
    <glyph glyph-name="zero.tf.zero" horiz-adv-x="1156" 
d="M580 -20q-152 0 -267 78t-179.5 244.5t-64.5 433.5q0 260 64.5 424.5t179.5 243.5t267 79q151 0 265 -79t178 -243.5t64 -424.5q0 -267 -64 -433.5t-178 -244.5t-265 -78zM580 200q77 0 137 50t94 167t34 317q0 195 -34 311t-94 167t-137 51q-78 0 -139 -51.5
t-95.5 -167.5t-34.5 -310q0 -199 34.5 -316.5t95 -167.5t139.5 -50zM586 580q-61 0 -103.5 43.5t-42.5 112.5q0 67 42.5 110.5t103.5 43.5t103.5 -43.5t42.5 -110.5q0 -69 -42.5 -112.5t-103.5 -43.5z" />
    <glyph glyph-name="zero.dnom" horiz-adv-x="859" 
d="M430 -14q-165 0 -267.5 117t-102.5 383q0 257 102.5 375t267.5 118t267 -118t102 -375q0 -265 -102 -382.5t-267 -117.5zM430 178q72 0 113 67t41 239q0 170 -41 236t-113 66t-113.5 -66.5t-41.5 -235.5q0 -172 41.5 -239t113.5 -67z" />
    <glyph glyph-name="one.dnom" horiz-adv-x="579" 
d="M255 0l2 783l54 177h158v-960h-214zM51 661v201q32 0 68 3.5t73 13.5q37 11 67 30.5t52 50.5l-51 -175q-7 -26 -18 -54.5t-46 -48.5q-26 -13 -55 -17t-90 -4z" />
    <glyph glyph-name="two.dnom" horiz-adv-x="791" 
d="M25 0q17 20 57.5 70t90 111t95.5 118.5l74 92.5q61 78 102.5 129t62 89t20.5 78q0 46 -29.5 80t-101.5 34q-70 0 -110.5 -46.5t-19.5 -144.5h-195q-17 130 21 211.5t118.5 119t188.5 37.5q162 0 243.5 -74t81.5 -191q0 -75 -24 -135.5t-61.5 -112t-76.5 -99.5
q-35 -43 -66 -80t-58.5 -70t-55.5 -66q23 23 53.5 29.5t84.5 6.5h202v-187h-697z" />
    <glyph glyph-name="three.dnom" horiz-adv-x="825" 
d="M399 -14q-104 0 -188.5 35t-131.5 105t-40 175h197q-3 -71 43.5 -102t123.5 -31q58 0 106 28.5t48 89.5q0 66 -46.5 95.5t-107.5 29.5h-105v168h98q68 0 98 35t30 76q0 58 -37 85t-83 27q-64 0 -98 -30t-31 -91h-202q1 142 81 220t251 78q162 0 243 -72t81 -189
q0 -77 -51.5 -141t-141.5 -79q102 -7 166.5 -66t64.5 -169q0 -120 -96.5 -198.5t-271.5 -78.5z" />
    <glyph glyph-name="four.dnom" horiz-adv-x="835" 
d="M486 0v171h-495l363 789h324l-3 -3l1 -616h129v-170h-128v-171h-191zM251 313q14 17 30.5 22.5t41.5 5.5h224q-38 0 -49.5 24.5t-11.5 65.5v181l3 216l-91 -224l-101 -189z" />
    <glyph glyph-name="five.dnom" horiz-adv-x="795" 
d="M389 -13q-103 0 -183.5 37.5t-124 107.5t-36.5 167h199q6 -62 44 -92t110 -30q71 0 107.5 41t36.5 117t-37 106.5t-102 30.5q-62 0 -100 -24.5t-59 -49.5l-182 55l61 507h574v-190h-410l-59 -283q14 42 36 71.5t53 47.5q27 14 62.5 21.5t79.5 7.5q74 0 142 -28t112 -93
t44 -177q0 -159 -100.5 -254.5t-267.5 -95.5z" />
    <glyph glyph-name="six.dnom" horiz-adv-x="817" 
d="M422 -14q-102 0 -183.5 47.5t-129 138t-47.5 219.5q0 103 32.5 196t80.5 169t97.5 128.5t83.5 75.5h281q-42 -30 -103 -84t-121 -122t-101.5 -142.5t-44.5 -147.5l-5 5q7 20 22.5 51t42.5 61.5t68.5 52t101.5 21.5q81 0 143 -34t98 -105t36 -180q0 -99 -47.5 -178.5
t-127.5 -125.5t-177 -46zM420 173q49 0 81.5 23.5t48.5 60.5t16 78q0 85 -37.5 125t-102.5 40q-56 0 -92.5 -14t-61.5 -38q-5 -13 -6 -43.5t-1 -43.5q0 -74 37.5 -131t117.5 -57z" />
    <glyph glyph-name="seven.dnom" horiz-adv-x="761" 
d="M165 0l271 683q18 47 49 70.5t69 29t76 -2.5l6 -5h-585v185h608h71l-338 -960h-227z" />
    <glyph glyph-name="eight.dnom" horiz-adv-x="861" 
d="M430 -14q-102 0 -185 31.5t-131.5 92.5t-48.5 149q0 113 66.5 172.5t184.5 68.5q-109 14 -161.5 77.5t-52.5 136.5q0 122 82 193.5t246 71.5q165 0 246.5 -72t81.5 -193q0 -75 -53 -138.5t-160 -77.5q117 -7 184 -66.5t67 -172.5q0 -88 -49 -149t-131.5 -92.5
t-185.5 -31.5zM430 165q67 0 117 30t50 91q0 70 -47.5 101.5t-119.5 31.5t-119.5 -30.5t-47.5 -102.5q0 -61 49 -91t118 -30zM430 573q69 0 101 36t32 83q0 57 -38 85t-95 28q-59 0 -95.5 -28t-36.5 -85q0 -47 30 -83t102 -36z" />
    <glyph glyph-name="nine.dnom" horiz-adv-x="817" 
d="M184 0q42 30 102.5 84t120 122.5t100.5 143t42 147.5h9q-8 -20 -22.5 -51.5t-40 -63.5t-67 -53.5t-104.5 -21.5q-77 0 -141 36t-102 108t-38 180q0 102 48 179t128.5 120.5t176.5 43.5q102 0 183 -46.5t128 -137.5t47 -222q0 -103 -31 -196t-78.5 -168.5t-96 -128
t-83.5 -75.5h-281zM390 462q55 0 92 13.5t62 40.5q5 13 6 42t1 42q0 77 -37.5 132t-116.5 55q-73 0 -109.5 -46.5t-36.5 -108.5q0 -82 37 -126t102 -44z" />
    <glyph glyph-name="zero.numr" horiz-adv-x="859" 
d="M430 461q-165 0 -267.5 117.5t-102.5 383.5q0 257 102.5 375t267.5 118t267 -118t102 -375q0 -265 -102 -383t-267 -118zM430 654q72 0 113 67t41 239q0 170 -41 236t-113 66t-113.5 -66.5t-41.5 -235.5q0 -172 41.5 -239t113.5 -67z" />
    <glyph glyph-name="one.numr" horiz-adv-x="579" 
d="M255 476l2 783l54 177h158v-960h-214zM51 1137v201q32 0 68 3.5t73 13.5q37 11 67 30t52 51l-51 -176q-7 -26 -18 -54.5t-46 -47.5q-26 -13 -55 -17t-90 -4z" />
    <glyph glyph-name="two.numr" horiz-adv-x="791" 
d="M25 476q17 20 57.5 69.5t90 111t95.5 118.5t74 93q61 78 102.5 129t62 89t20.5 78q0 45 -29.5 79.5t-101.5 34.5q-70 0 -110.5 -47t-19.5 -144h-195q-17 130 21 211t118.5 119t188.5 38q162 0 243.5 -74t81.5 -192q0 -75 -24 -135t-61.5 -111.5t-76.5 -100.5
q-35 -43 -66 -79.5t-58.5 -69.5t-55.5 -67q23 23 53.5 30t84.5 7h202v-187h-697z" />
    <glyph glyph-name="three.numr" horiz-adv-x="825" 
d="M399 461q-104 0 -188.5 35.5t-131.5 105.5t-40 174h197q-3 -70 43.5 -101.5t123.5 -31.5q58 0 106 28.5t48 90.5q0 65 -46.5 94.5t-107.5 29.5h-105v168h98q68 0 98 35t30 76q0 58 -37 85.5t-83 27.5q-64 0 -98 -30.5t-31 -91.5h-202q1 143 81 221t251 78q162 0 243 -72
t81 -190q0 -76 -51.5 -140.5t-141.5 -79.5q102 -6 166.5 -65t64.5 -169q0 -121 -96.5 -199.5t-271.5 -78.5z" />
    <glyph glyph-name="four.numr" horiz-adv-x="835" 
d="M486 476v170h-495l363 790h324l-3 -3l1 -617h129v-170h-128v-170h-191zM251 789q14 16 30.5 21.5t41.5 5.5h224q-38 0 -49.5 24.5t-11.5 66.5v180l3 217l-91 -224l-101 -189z" />
    <glyph glyph-name="five.numr" horiz-adv-x="795" 
d="M389 462q-103 0 -183.5 38t-124 108t-36.5 167h199q6 -63 44 -93t110 -30q71 0 107.5 41.5t36.5 116.5q0 76 -37 107t-102 31q-62 0 -100 -25t-59 -49l-182 55l61 507h574v-191h-410l-59 -283q14 43 36 72.5t53 46.5q27 14 62.5 21.5t79.5 7.5q74 0 142 -28t112 -92.5
t44 -176.5q0 -159 -100.5 -255t-267.5 -96z" />
    <glyph glyph-name="six.numr" horiz-adv-x="817" 
d="M422 461q-102 0 -183.5 47.5t-129 138t-47.5 219.5q0 104 32.5 197t80.5 168.5t97.5 128t83.5 76.5h281q-42 -31 -103 -84.5t-121 -121.5t-101.5 -142.5t-44.5 -147.5l-5 5q7 20 22.5 51t42.5 61.5t68.5 51.5t101.5 21q81 0 143 -34t98 -104.5t36 -179.5
q0 -99 -47.5 -179t-127.5 -126t-177 -46zM420 649q49 0 81.5 23t48.5 60.5t16 78.5q0 84 -37.5 124.5t-102.5 40.5q-56 0 -92.5 -14.5t-61.5 -37.5q-5 -14 -6 -44.5t-1 -42.5q0 -74 37.5 -131t117.5 -57z" />
    <glyph glyph-name="seven.numr" horiz-adv-x="761" 
d="M165 476l271 683q18 47 49 70t69 28.5t76 -2.5l6 -4h-585v185h608h71l-338 -960h-227z" />
    <glyph glyph-name="eight.numr" horiz-adv-x="861" 
d="M430 461q-102 0 -185 31.5t-131.5 93t-48.5 149.5q0 112 66.5 172t184.5 69q-109 14 -161.5 77t-52.5 137q0 121 82 193t246 72q165 0 246.5 -72t81.5 -193q0 -76 -53 -139t-160 -77q117 -7 184 -66.5t67 -172.5q0 -88 -49 -149.5t-131.5 -93t-185.5 -31.5zM430 640
q67 0 117 30.5t50 91.5q0 70 -47.5 101.5t-119.5 31.5t-119.5 -30.5t-47.5 -102.5q0 -61 49 -91.5t118 -30.5zM430 1049q69 0 101 35.5t32 82.5q0 58 -38 86t-95 28q-59 0 -95.5 -28t-36.5 -86q0 -46 30 -82t102 -36z" />
    <glyph glyph-name="nine.numr" horiz-adv-x="817" 
d="M184 476q42 29 102.5 83.5t120 122.5t100.5 143t42 147h9q-8 -20 -22.5 -51.5t-40 -63t-67 -53.5t-104.5 -22q-77 0 -141 36t-102 108t-38 180q0 102 48 179.5t128.5 121t176.5 43.5q102 0 183 -47t128 -137.5t47 -221.5q0 -103 -31 -196t-78.5 -168.5t-96 -128
t-83.5 -75.5h-281zM390 937q55 0 92 14t62 40q5 14 6 43t1 42q0 76 -37.5 131.5t-116.5 55.5q-73 0 -109.5 -46.5t-36.5 -109.5q0 -81 37 -125.5t102 -44.5z" />
    <glyph glyph-name="uni030C.alt" 
d="M150 1277l30 330h214l-61 -330h-183z" />
    <glyph glyph-name="uni0308.case" 
d="M296 1237q-58 0 -102 46t-44 116q0 72 44 116t102 44q59 0 102 -44t43 -116q0 -70 -44 -116t-101 -46zM726 1237q-58 0 -102 46t-44 116q0 72 44 116t102 44q59 0 102 -44t43 -116q0 -70 -44 -116t-101 -46z" />
    <glyph glyph-name="uni0307.case" 
d="M305 1237q-59 0 -102.5 45.5t-43.5 108.5q0 65 43.5 108.5t102.5 43.5q61 0 104 -43.5t43 -108.5q0 -63 -44 -108.5t-103 -45.5z" />
    <glyph glyph-name="gravecomb.case" 
d="M384 1255l-234 282h253l197 -282h-216z" />
    <glyph glyph-name="acutecomb.case" 
d="M150 1255l197 282h253l-234 -282h-216z" />
    <glyph glyph-name="uni030B.case" 
d="M481 1255l163 282h231l-200 -282h-194zM131 1255l161 282h231l-198 -282h-194z" />
    <glyph glyph-name="uni0302.case" 
d="M150 1255l219 282h193l219 -282h-183l-132 121l-133 -121h-183z" />
    <glyph glyph-name="uni030C.case" 
d="M336 1255l-210 282h174l133 -155l133 155h174l-210 -282h-194z" />
    <glyph glyph-name="uni0306.case" 
d="M397 1237q-136 0 -203.5 75.5t-67.5 224.5h172q-8 -87 19.5 -121.5t79.5 -34.5t79.5 34.5t19.5 121.5h172q0 -149 -67 -224.5t-204 -75.5z" />
    <glyph glyph-name="uni030A.case" 
d="M314 1237q-93 0 -147 54.5t-54 137.5q0 82 54 135.5t147 53.5q92 0 145.5 -53.5t53.5 -135.5q0 -83 -53.5 -137.5t-145.5 -54.5zM314 1340q33 0 56.5 22t23.5 67t-23.5 66.5t-56.5 21.5q-34 0 -57 -21.5t-23 -66.5t23 -67t57 -22z" />
    <glyph glyph-name="tildecomb.case" 
d="M642 1236q-61 0 -97.5 22t-60 50.5t-44 50.5t-50.5 22q-42 0 -62.5 -31.5t-21.5 -95.5h-156q-2 99 25.5 164.5t80 98t120.5 32.5q60 0 95 -22t58.5 -51t44 -51t50.5 -22q42 0 64 32t23 96h155q4 -143 -57 -219t-167 -76z" />
    <glyph glyph-name="uni0304.case" 
d="M108 1255v194h547l-3 -194h-544z" />
    <glyph glyph-name="uni0327.case" 
d="M266 -413q-47 0 -88.5 9.5t-87.5 28.5l1 149q54 -26 110 -26q36 0 56 19t20 54q0 47 -43.5 91.5t-136.5 87.5h209q83 -34 126.5 -91t43.5 -129q0 -88 -58 -140.5t-152 -52.5z" />
    <glyph glyph-name="uni0328.case" 
d="M265 -400q-93 0 -148.5 50t-55.5 134q0 46 24.5 89t85 77t167.5 50h90q-88 -43 -131 -85t-43 -90q0 -70 73 -70q55 0 98 22l1 -145q-43 -19 -76.5 -25.5t-84.5 -6.5z" />
    <glyph glyph-name="ringcomba_part." horiz-adv-x="627" 
d="M320 1066q-99 0 -157 60t-58 150t58 148t157 58q98 0 156 -58t58 -148t-58 -150t-156 -60zM320 1178q34 0 59 24.5t25 73.5q0 50 -25 73t-59 23q-33 0 -57.5 -23t-24.5 -73q0 -49 24.5 -73.5t57.5 -24.5z" />
    <glyph glyph-name="Bar_part." horiz-adv-x="1157" 
d="M104 548v226h582l-3 -226h-579z" />
    <glyph glyph-name="ringacutecomb" horiz-adv-x="655" 
d="M199 1071q-89 0 -141 53.5t-52 134.5t52 133t141 52q87 0 139 -52t52 -133t-52 -134.5t-139 -53.5zM199 1171q29 0 51.5 22t22.5 66t-22.5 65.5t-51.5 21.5q-30 0 -52.5 -21.5t-22.5 -65.5t22.5 -66t52.5 -22zM176 1366l113 202h216l-167 -202h-162z" />
    <glyph glyph-name="Barmid_part." horiz-adv-x="1056" 
d="M150 547v228h756l-4 -228h-752z" />
    <glyph glyph-name="slashl_part." horiz-adv-x="858" 
d="M176 547v228l506 316l-4 -227z" />
    <glyph glyph-name="oSlash_part." horiz-adv-x="934" 
d="M21 138l144 228l38 34l436 713l12 35l104 168h158l-123 -197l-40 -38l-446 -730l-10 -31l-115 -182h-158z" />
    <glyph glyph-name="OSlash_part." horiz-adv-x="955" 
d="M-33 -79l120 238l38 42l550 1107l11 44l92 181h210l-111 -218l-40 -47l-560 -1128l-9 -40l-91 -179h-210z" />
    <glyph glyph-name="slashL_part." horiz-adv-x="1200" 
d="M189 563v227l212 107l72 20l372 184l-4 -230l-359 -176l-72 -21z" />
    </font>
</defs>
</svg>
