<svg xmlns="http://www.w3.org/2000/svg" xmlns:xlink="http://www.w3.org/1999/xlink" viewBox="0 0 24 24"><defs><linearGradient id="a" x1="3.5596" y1="1.967" x2="17.8716" y2="21.6658" gradientUnits="userSpaceOnUse"><stop offset="0" stop-color="#ce5a56"/><stop offset="1" stop-color="#972b28"/></linearGradient></defs><title>Icon_copygenAI_new_gradient</title><path d="M20.0157,15.4418q.2808-1.0515.5613-2.103.7254-2.7371,1.4492-5.4745c.0964-.3638.0733-.3948-.3048-.3971-.0712,0-.1425-.0019-.2137,0-.7095.0213-.59-.1366-.5851-.7a.252.252,0,0,1,.1436-.193,2.1378,2.1378,0,0,1,1.4777.16,1.027,1.027,0,0,1,.42,1.15q-.8173,3.3171-1.64,6.6327c-.4206,1.6949-.854,3.3867-1.263,5.0843a1.5373,1.5373,0,0,1-1.5168,1.2011q-5.0245-.0181-10.0491-.0109c-2.0225,0-4.0451.0052-6.0676.0053a1.2684,1.2684,0,0,1-1.3084-.7778,1.77,1.77,0,0,1-.1131-.6516Q.996,11.9783,1.0021,4.5892a1.29,1.29,0,0,1,1.404-1.3911q5.948-.0029,11.896.0014c1.4261,0,2.8522-.0032,4.2782-.0011a1.2607,1.2607,0,0,1,1.3377.9593,1.8638,1.8638,0,0,1,.0336.45q.0011,5.26-.0016,10.52v.3116Zm-9.5233,4.04q3.8124,0,7.6248,0c.4559,0,.5162-.06.5162-.5086q0-6.9489,0-13.8979c0-.5115-.0553-.5668-.5691-.5668q-7.5864,0-15.173,0a.5938.5938,0,0,0-.2753.0188A.7122.7122,0,0,0,2.364,4.79a.6226.6226,0,0,0-.0167.2763q.0018,6.9576.0049,13.9153c0,.4625.04.5008.5155.5008Zm-.32-7.1383c.355-.0009.46-.145.46-.611q0-2.39,0-4.78c0-.5795-.085-.6981-.5146-.6981q-3.2142,0-6.4285.0065c-.3645.0007-.47.1485-.47.6466q-.0015,2.39,0,4.78c0,.5177.1019.6557.4884.6563q1.6094.0023,3.2188.0005C8.0072,12.3446,9.09,12.3463,10.172,12.3436Zm7.48-4.9319V6.4585a.2037.2037,0,0,0-.2037-.2037H11.9669a.2037.2037,0,0,0-.2037.2037v.9532a.2037.2037,0,0,0,.2037.2037h5.4814A.2037.2037,0,0,0,17.652,7.4117Zm0,2.3863V8.8447a.2037.2037,0,0,0-.2037-.2037H11.9669a.2037.2037,0,0,0-.2037.2037V9.798a.2037.2037,0,0,0,.2037.2036h5.4814A.2037.2037,0,0,0,17.652,9.798Zm0,2.3435v-.9533a.2037.2037,0,0,0-.2037-.2037H11.9669a.2037.2037,0,0,0-.2037.2037v.9533a.2037.2037,0,0,0,.2037.2036h5.4814A.2037.2037,0,0,0,17.652,12.1415Zm0,2.7283v-.9532a.2037.2037,0,0,0-.2037-.2037H3.4207a.2036.2036,0,0,0-.2036.2037V14.87a.2036.2036,0,0,0,.2036.2037H17.4483A.2037.2037,0,0,0,17.652,14.87Zm0,2.81v-.9532a.2037.2037,0,0,0-.2037-.2037H3.4207a.2036.2036,0,0,0-.2036.2037V17.68a.2036.2036,0,0,0,.2036.2037H17.4483A.2037.2037,0,0,0,17.652,17.68Z" fill="url(#a)"/></svg>