<svg xmlns="http://www.w3.org/2000/svg" xmlns:xlink="http://www.w3.org/1999/xlink" viewBox="0 0 24 24"><defs><linearGradient id="a" x1="12" y1="19.5367" x2="12" y2="4.4633" gradientUnits="userSpaceOnUse"><stop offset="0" stop-color="#ffb95f"/><stop offset="1" stop-color="#ff6749"/></linearGradient></defs><title>Icon_copygenAI_new_gradient</title><path d="M19.1928,11.6428A15.0813,15.0813,0,0,1,17.8961,19.04a.7441.7441,0,0,1-.7662.4968h-.0024q-7.0325-.0176-14.0645-.0024H3.0606a.695.695,0,0,1-.6687-.3993,10.4983,10.4983,0,0,1-1.1276-3.3573c-.0736-.43-.1186-.867-.1617-1.29-.0206-.1992-.0412-.3984-.0642-.5971-.0051-.0394-.0131-.0792-.0206-.119l-.0141-.0736L1,11.9446l.0384-.3894c.0272-.284.0544-.568.0905-.8511A11.6768,11.6768,0,0,1,2.3675,6.5369a.7448.7448,0,0,1,.7264-.4443h.0047q7.0746.017,14.1489.0028H17.25a.5871.5871,0,0,1,.5811.3623c.3079.6224.29.7344-.1818,1.219l-.6032.6308-.1991-.4593a1.76,1.76,0,0,1-.1116-.285c.0272,0-.0065-.0032-.0684-.0032q-5.3258.0042-10.6519.0028l-1.6613.0014c-.2812.0014-.5638.0033-.8459-.0056a9.7354,9.7354,0,0,0-.8745,2.9782,14.6863,14.6863,0,0,0,.4124,6.3914c.0684.2263.1575.4461.2465.6664.06.15.12.3.1753.4518.0019.0136.0211.0183.0858.0183q4.1-.0036,8.1975-.0029l2.4576,0c.8178.0014,1.637-.001,2.4557.0042a.15.15,0,0,1,.0633-.0052c0-.0018.0093-.0154.0229-.0487a13.56,13.56,0,0,0,1.0006-5.7484.8412.8412,0,0,1,.291-.7283c.1561-.1354.3014-.2835.4551-.44l.5769-.5746.0764.7044C19.1675,11.371,19.183,11.5069,19.1928,11.6428Zm-8.2078.2V10.6718H3.8587v1.1706Zm-1.22.5142H3.8569v1.1589H9.7651Zm2.6178-3.4629H3.8559v1.1632h8.527Zm2.8064,6.4836H7.9141v.9061h7.2752Zm6.2219-10.914-7.6568,7.6692,1.6238,1.6212a1.7838,1.7838,0,0,1,.1421-.1774q3.6424-3.6441,7.288-7.2854A2.4231,2.4231,0,0,1,23,6.1341V6.0916Zm-8.3864,9.2843a.2717.2717,0,0,0,.0528.2053c.1346.1539.2842.2949.4324.4364.0321.0307.0876.067.1235.0593.4239-.09.8462-.1872,1.2513-.2787l-1.6-1.6017C13.1964,12.9633,13.1042,13.3541,13.0248,13.7476Zm-.1934.8785.4911-.1083-.3733-.4489C12.9065,14.2708,12.8721,14.4337,12.8314,14.6261Z" fill="url(#a)"/></svg>