<svg xmlns="http://www.w3.org/2000/svg" xmlns:xlink="http://www.w3.org/1999/xlink" viewBox="0 0 24 24"><defs><linearGradient id="a" x1="7.7357" y1="4.4088" x2="17.7189" y2="18.1496" gradientUnits="userSpaceOnUse"><stop offset="0" stop-color="#3f3eed"/><stop offset="0.9995" stop-color="#2f2e99"/></linearGradient></defs><title>Icon_copygenAI_new_gradient</title><path d="M16.1637,1q.6147.1712,1.2294.3421c.0958.0265.1924.05.3161.0824l-.85,3.3269-1.6608-.4228L16.0348,1Zm3.66,13.68L11.9276,1.3632l-.1063.2453c-.2612.6034-.4823,1.2282-.7909,1.8064a14.33,14.33,0,0,1-4.913,5.3535c-1.14.7388-2.3271,1.4046-3.4934,2.1025a2.5737,2.5737,0,0,0-.9283,3.562c.5733.9825,1.1446,1.9667,1.7487,2.93a2.8094,2.8094,0,0,0,.7346.7953,2.4828,2.4828,0,0,0,2.7541.1437c.2639-.1391.516-.3.7822-.4566L10.7837,23l1.4752-.8834L9.1927,16.9655A14.718,14.718,0,0,1,19.824,14.68ZM8.32,15.497,5.68,11.0454A16.9783,16.9783,0,0,0,12.102,5.0272l4.5766,7.7184A16.9743,16.9743,0,0,0,8.32,15.497Zm-1.48.8744a9.9617,9.9617,0,0,1-.9216.5023.7922.7922,0,0,1-.9731-.3407q-.91-1.5045-1.7941-3.0239a.8276.8276,0,0,1,.2634-1.1029c.2481-.1671.5127-.31.7916-.4762ZM21.1685,4.0247l-2.9549,1.753.8775,1.4768,2.9552-1.7532Zm1.0815,7.43L22.6727,9.79l-3.3266-.8518-.4275,1.6651Z" fill="url(#a)"/></svg>