<svg xmlns="http://www.w3.org/2000/svg" xmlns:xlink="http://www.w3.org/1999/xlink" viewBox="0 0 24 24"><defs><linearGradient id="a" x1="4.3166" y1="1.4248" x2="19.6834" y2="22.5752" gradientUnits="userSpaceOnUse"><stop offset="0" stop-color="#304ffe"/><stop offset="1" stop-color="#16a2ff"/></linearGradient></defs><title>Icon_copygenAI_new_gradient</title><path d="M21.7507,20.7782H2.2493A1.2493,1.2493,0,0,1,1,19.5289V4.4711A1.2493,1.2493,0,0,1,2.2493,3.2218H21.7507A1.2493,1.2493,0,0,1,23,4.4711V19.5289A1.2493,1.2493,0,0,1,21.7507,20.7782Zm-.3334-2.1566V5.3784A.6474.6474,0,0,0,20.77,4.731H3.23a.6474.6474,0,0,0-.6475.6474V18.6216a.6474.6474,0,0,0,.6475.6474H20.77A.6474.6474,0,0,0,21.4173,18.6216Zm-1.3505-12.37H4.1715a.1865.1865,0,0,0-.2057.1576v.919a.1865.1865,0,0,0,.2057.1576H20.0668a.1866.1866,0,0,0,.2057-.1576v-.919A.1866.1866,0,0,0,20.0668,6.2518Zm0,2.8155H12.6679c-.1136,0-.2057.0581-.2057.13v.6482c0,.0716.0921.13.2057.13h7.3987c.1136,0,.2057-.058.2057-.13V9.197C20.2723,9.1254,20.18,9.0673,20.0666,9.0673Zm0,2.4069H12.6679a.1877.1877,0,0,0-.2057.1616v.8081a.1877.1877,0,0,0,.2057.1616h7.3987a.1877.1877,0,0,0,.2057-.1616v-.8081A.1877.1877,0,0,0,20.0666,11.4742Zm0,2.4069H12.6679a.1877.1877,0,0,0-.2057.1617v.808a.1877.1877,0,0,0,.2057.1616h7.3987a.1877.1877,0,0,0,.2057-.1616v-.808A.1877.1877,0,0,0,20.0666,13.8811Zm0,2.407H12.6679a.1877.1877,0,0,0-.2057.1616v.808a.1877.1877,0,0,0,.2057.1616h7.3987a.1877.1877,0,0,0,.2057-.1616V16.45A.1877.1877,0,0,0,20.0666,16.2881Zm-8.8856,0H4.1715a.1876.1876,0,0,0-.2057.1616v.808a.1876.1876,0,0,0,.2057.1616H11.181a.1877.1877,0,0,0,.2057-.1616V16.45A.1877.1877,0,0,0,11.181,16.2881Zm-.37-7.4793H4.5373a.5756.5756,0,0,0-.5757.5757v5.231a.5757.5757,0,0,0,.5757.5757h6.2736a.5758.5758,0,0,0,.5758-.5757V9.3845A.5757.5757,0,0,0,10.8109,8.8088Z" fill="url(#a)"/></svg>