<svg xmlns="http://www.w3.org/2000/svg" xmlns:xlink="http://www.w3.org/1999/xlink" viewBox="0 0 24 24"><defs><linearGradient id="a" x1="6.8248" y1="3.8516" x2="18.6867" y2="20.178" gradientUnits="userSpaceOnUse"><stop offset="0" stop-color="#39baf6"/><stop offset="0.9995" stop-color="#1d7fac"/></linearGradient></defs><title>Icon_copygenAI_new_gradient</title><path d="M22.96,8.4758a2.8149,2.8149,0,0,0-.0957-.2766A1.062,1.062,0,0,0,21.45,7.5881a1.3772,1.3772,0,0,0-.8088.726c-.1675.38-.3264.7629-.4853,1.1462l-.1091.2628c-.0613.1478-.12.2967-.18.45l-.0411.1029a1.19,1.19,0,0,0-1.275.0488,4.181,4.181,0,0,0-.66.4987c-.2881.2537-.5733.5112-.8586.7691-.3187.2877-.6374.5758-.96.8582a6.751,6.751,0,0,1-1.3267.8356c-.1991.1048-.3982.21-.5925.3225a3.6791,3.6791,0,0,0-1.9919,2.9085,33.8676,33.8676,0,0,0-.133,3.5377l-.001.3968a.5437.5437,0,0,0,.1331.4053.5952.5952,0,0,0,.4441.1417q1.173.0007,2.347.001t2.3461-.001c.4078,0,.5753-.17.5762-.5872V18.4789l.0019-.0383a.3521.3521,0,0,0-.0249-.1842c-.0411-.0828-.0239-.11.0967-.2307l.2336-.2341c.8433-.8442,1.7152-1.7171,2.5576-2.5906a5.3227,5.3227,0,0,0,1.3333-2.4958c.1953-.7916.4183-1.5914.6346-2.3648.0967-.3489.1944-.6973.2891-1.0466L23,8.6247Zm-8.9612,9.4053c-.2823.0029-.5638.0053-.8461.0053h-.1407c.0076-.1043.0143-.2082.022-.3116a6.1425,6.1425,0,0,1,.2967-1.8057,2.88,2.88,0,0,1,1.2511-1.2984,2.17,2.17,0,0,1,.3024-.1623,10.2124,10.2124,0,0,0,2.8792-2.07,11.69,11.69,0,0,1,.9668-.8137l.13-.1014a1.2059,1.2059,0,0,1,.3953-.1914.0991.0991,0,0,1,.0948.0038.1009.1009,0,0,1,.0095.0914,1.0628,1.0628,0,0,1-.1761.3915c-.4078.5164-.8442,1.0644-1.3,1.586-.2708.31-.5637.6107-.8461.9017-.1216.1249-.2422.2494-.3628.3757a.4341.4341,0,0,0-.1206.5466c.0565.0976.2087.2828.3781.2847h.0048a.6935.6935,0,0,0,.4642-.2087c.4537-.49.8988-.9882,1.3439-1.4865l.4633-.5173q.1033-.1142.21-.2269c.15-.1617.3054-.3292.447-.5054a2.7837,2.7837,0,0,0,.39-.6135c.3169-.7313.6241-1.4669.9314-2.2025l.313-.7485c.0076-.0187.0143-.0374.021-.056a.3435.3435,0,0,1,.0326-.0747c.1378-.1876.2556-.1986.33-.1881.1139.0153.135.134.1321.2312a4.0749,4.0749,0,0,1-.0986.9347c-.1512.5757-.3139,1.1481-.4776,1.72-.1311.4605-.2623.9213-.3877,1.3832a4.0706,4.0706,0,0,1-1.0088,1.7722c-.4107.4264-.829.8457-1.2463,1.2649-.5322.5341-1.0835,1.0864-1.6081,1.6459a1.377,1.377,0,0,1-1.1639.4609c-.3934-.0168-.79-.022-1.1821-.022C14.5586,17.8759,14.2762,17.8787,13.9986,17.8811Zm-.9878,2.1341V18.8661h3.8824v1.1491Zm-2.4446-5.8934a8.8228,8.8228,0,0,0-1.2291-.783,8.6883,8.6883,0,0,1-2.0445-1.4434c-.4394-.42-.9036-.8352-1.3037-1.1917a3.1093,3.1093,0,0,0-.5006-.3618A1.2211,1.2211,0,0,0,4.1856,10.27c-.0431-.1177-.0862-.2345-.1283-.3508-.1436-.3958-.2785-.77-.4508-1.1367a3.0762,3.0762,0,0,0-.6471-.9347,1.1313,1.1313,0,0,0-1.1323-.2991A1.1968,1.1968,0,0,0,1.046,8.49a2.78,2.78,0,0,0,.0727,1.2955c.1053.3891.2173.7763.3284,1.164.1732.6006.3512,1.2218.5063,1.8363A5.27,5.27,0,0,0,3.25,15.1833c.6308.66,1.2845,1.3185,1.9153,1.9555l.7189.7265c.0316.0321.0651.0627.0995.0934.1723.156.2508.2393.16.4226l-.0144.57c0,.4939-.0009.9878.001,1.4822.0009.39.1723.5647.5542.5652Q7.8694,21,9.0529,21t2.368-.0015a.5687.5687,0,0,0,.42-.1393.5486.5486,0,0,0,.135-.4077q-.0015-.3216,0-.6428a25.59,25.59,0,0,0-.1426-3.3377A3.2953,3.2953,0,0,0,10.5662,14.1218Zm.43,4.7443v1.1467H7.1165V18.8661Zm-3.65-3.6708a.4665.4665,0,0,0,.0383-.6447c-.0632-.078-.1331-.15-.2029-.2221-.04-.0416-.08-.0827-.1187-.1253l-.5-.5528c-.4881-.54-.9763-1.08-1.4568-1.6253a3.6192,3.6192,0,0,1-.3877-.5772c-.0976-.1665-.1206-.2369-.0555-.3.068-.068.1455-.0345.312.0747a7.5121,7.5121,0,0,1,.7878.58c.291.2513.5734.513.8548.7744q.2224.2059.446.41a8.475,8.475,0,0,0,1.9651,1.27,4.6084,4.6084,0,0,1,1.1324.7883,2.0358,2.0358,0,0,1,.66,1.2716c.0546.4341.1092.8686.1561,1.3037a1.8512,1.8512,0,0,1,.0038.2421l-.001.0206c-.0172.001-.0344.0019-.0507.0019h-.47c-1.0194.001-2.0359.0015-3.0553-.0028a.2435.2435,0,0,1-.1417-.0374l-.2776-.2752c-.9562-.9476-1.9459-1.9277-2.906-2.9041a4.7716,4.7716,0,0,1-1.2386-2.3025c-.1282-.535-.2852-1.0711-.4365-1.5894-.11-.3757-.22-.7509-.3206-1.129a3.56,3.56,0,0,1-.1053-.83c-.0067-.2182.0345-.3058.1579-.334a.1223.1223,0,0,1,.0268-.0029.4238.4238,0,0,1,.3188.2709l.3455.8265c.3025.7222.604,1.4449.9132,2.1637a2.2474,2.2474,0,0,0,.3618.59c.6289.7112,1.2654,1.4166,1.9019,2.122l.61.6773a.956.956,0,0,0,.068.07A.4755.4755,0,0,0,7.3462,15.1953Zm7.02-3.3819c-.397-.0619-.7752-.112-1.1493-.1841a.3509.3509,0,0,0-.3235.0917c-.2874.24-.5809.4739-.8916.7259-.295-.2395-.592-.476-.8831-.72a.3686.3686,0,0,0-.3426-.0969c-.367.0732-.739.1209-1.1358.183-.1322-.3447-.2734-.6883-.3941-1.0389a.422.422,0,0,0-.294-.294c-.2881-.0956-.5655-.2234-.8538-.3183-.1515-.05-.1944-.119-.1624-.2748.061-.2976.0977-.6.154-.8987a.4354.4354,0,0,0-.1076-.4038c-.2415-.2761-.4656-.5675-.7038-.8614.2461-.304.4934-.5943.72-.9a.4969.4969,0,0,0,.0876-.32c-.035-.3228-.0928-.6437-.1538-.963a.1829.1829,0,0,1,.1444-.2481c.3205-.11.6373-.2326.95-.364a.37.37,0,0,0,.1794-.18c.1316-.3124.2559-.6285.3639-.95.0474-.1412.12-.1665.25-.1429.3061.0556.6143.0992.92.1555a.4147.4147,0,0,0,.3869-.0978c.2761-.2426.5686-.4664.8735-.7134.2906.2347.5877.4607.8672.7065a.4293.4293,0,0,0,.4056.1033c.2984-.0577.6-.0968.899-.1534a.194.194,0,0,1,.2642.1523c.1048.3147.2258.6247.3561.93a.3984.3984,0,0,0,.1939.1923c.3579.15.7229.2827,1.1062.43-.0571.3526-.1067.7012-.1725,1.0467a.5069.5069,0,0,0,.1221.4811c.2362.2626.449.5462.6829.8348-.2327.2867-.4562.5779-.698.853a.4505.4505,0,0,0-.1129.4229c.0585.2982.0948.6008.1548.8986.03.1475-.01.2131-.1542.2611-.3081.1026-.6132.2171-.9108.3469a.4622.4622,0,0,0-.22.2223C14.6359,11.0789,14.5085,11.4385,14.3661,11.8134Zm.8608-4.0771a3.2252,3.2252,0,1,0-3.2453,3.2109A3.227,3.227,0,0,0,15.2269,7.7363Zm-2.3744.69a.3507.3507,0,0,1,.1413-.4478c.2575-.1877.49-.41.7433-.6257-.0446-.0235-.0559-.0342-.0679-.0351a4.614,4.614,0,0,0-.6767-.0451.5764.5764,0,0,1-.6948-.49,5.7047,5.7047,0,0,0-.2943-.7352c-.1558.3775-.2952.6939-.4154,1.0175a.2391.2391,0,0,1-.2441.18c-.35.02-.6986.0517-1.1049.0831.3029.2571.5593.4854.828.6981a.2648.2648,0,0,1,.1054.3244c-.0924.3307-.1646.6672-.2575,1.0532.3339-.2071.6252-.3786.906-.5658a.278.278,0,0,1,.3594-.005c.28.1894.5731.36.9167.572C13.0073,9.04,12.9423,8.7292,12.8525,8.4262Z" fill="url(#a)"/></svg>