<svg xmlns="http://www.w3.org/2000/svg" xmlns:xlink="http://www.w3.org/1999/xlink" viewBox="0 0 24 24"><defs><linearGradient id="a" x1="3.5106" y1="2.9842" x2="19.4162" y2="24.8764" gradientUnits="userSpaceOnUse"><stop offset="0" stop-color="#55b59e"/><stop offset="0.9995" stop-color="#2a937a"/></linearGradient></defs><title>Icon_copygenAI_new_gradient</title><path d="M22.2769,6.51,20.4745,4.2288q-1.098-1.3924-2.1981-2.7819a1.6652,1.6652,0,0,0-.3227-.29c-.0417-.0314-.0835-.0627-.1232-.0956L17.7564,1H6.2416l-.0742.0632c-.04.0334-.0814.0647-.1232.0966a1.7572,1.7572,0,0,0-.3185.29Q4.5776,2.8969,3.4336,4.3489L1.6981,6.5459a1.1857,1.1857,0,0,0-.2632.7629L1.437,22.0424A.8543.8543,0,0,0,2.39,23H21.61a.8541.8541,0,0,0,.9523-.9586l.0032-14.7128A1.2743,1.2743,0,0,0,22.2769,6.51ZM20.912,8.0878V21.35H3.0953V8.0878ZM6.9725,2.6306c1.08.0062,2.1574.0052,3.24.0047l.9607-.0005V6.4232h-7.29l.7268-.9225Q5.7085,4.109,6.8013,2.7136C6.8556,2.6436,6.8817,2.6207,6.9725,2.6306Zm5.8582,3.7879V2.6353h.1765c1.3648-.0021,2.7327-.0021,4.1341.0151q1.3737,1.73,2.738,3.4679l.2349.3ZM6.3435,12.7046a.5089.5089,0,0,1-.2438-.574.5864.5864,0,0,1,.4952-.4217c.0486-.0044.0977-.0028.1466-.0028q5.533,0,11.0661,0c.4052,0,.6616.2279.65.573a.5521.5521,0,0,1-.4853.52c-.0832.0082-.1675.0059-.2512.0059q-2.7353,0-5.47,0c-1.83,0-3.6608.0021-5.4911-.0041A.93.93,0,0,1,6.3435,12.7046Zm9.97,4.7766a.57.57,0,0,1-.4788.4854,1.4406,1.4406,0,0,1-.2088.0122q-3.3534.0011-6.7068-.0038a.9676.9676,0,0,1-.4359-.1042.4745.4745,0,0,1-.2472-.5325A.5337.5337,0,0,1,8.6373,16.9a1.087,1.087,0,0,1,.29-.0284q1.6767-.0027,3.3533-.0011,1.6767,0,3.3534.0018a1.0019,1.0019,0,0,1,.3291.0444A.5577.5577,0,0,1,16.3132,17.4812Zm-8.0409-2.43a.49.49,0,0,1,.0827-.5479.5918.5918,0,0,1,.5007-.209c.72.0045,1.4392.0017,2.1587.0017q2.3265,0,4.6528-.0019a.6087.6087,0,0,1,.5084.1926.4985.4985,0,0,1,.0936.5651.5575.5575,0,0,1-.53.344q-.8384.0015-1.6767,0-.8907,0-1.7815,0-1.729,0-3.4581.0005A.5674.5674,0,0,1,8.2723,15.0508Z" fill="url(#a)"/></svg>