<svg xmlns="http://www.w3.org/2000/svg" xmlns:xlink="http://www.w3.org/1999/xlink" viewBox="0 0 24 24"><defs><linearGradient id="a" x1="3.4953" y1="-0.1551" x2="20.5161" y2="24.153" gradientUnits="userSpaceOnUse"><stop offset="0" stop-color="#6c5bf3"/><stop offset="1" stop-color="#a425fe"/></linearGradient></defs><title>Icon_copygenAI_new_gradient</title><path d="M14.69,9.3227c0,.147-.002.2766,0,.4061a1.0739,1.0739,0,0,0,1.0633,1.114c.2334.0145.4684.0079.7026.0056.42-.004.5371-.12.5375-.5336q.0018-1.5472,0-3.0945c0-.5077-.0968-.6043-.61-.6044q-2.8114-.0008-5.6228,0c-1.0777,0-2.1554-.002-3.2331.0013-.368.0012-.5084.1187-.51.448q-.0095,1.6738,0,3.3476c.0017.2975.1349.4226.4365.4333.2621.0093.5253.0121.787-.0019A1.0682,1.0682,0,0,0,9.3137,9.74c.0051-.1377.0007-.2757.0007-.42h1.1293v5.3735c-.156,0-.2869-.0021-.4178,0a1.0561,1.0561,0,0,0-1.0871,1.08q-.01.3936,0,.7876a.385.385,0,0,0,.4362.4329q2.6288.0067,5.2573,0a.392.392,0,0,0,.443-.4315c.008-.2811.0128-.5632-.0023-.8437A1.0685,1.0685,0,0,0,14.01,14.6945c-.1467-.0039-.2936-.0006-.4462-.0006V9.3227Zm-3.0865,6.8812H9.6963c0-.1382-.0043-.2667.0009-.3949a.3244.3244,0,0,1,.353-.3506c.2436-.0039.4875.0035.731-.0043.3156-.01.4545-.1357.4553-.4462q.0072-3.01,0-6.02c-.0008-.31-.1394-.439-.4577-.4428q-.8855-.0108-1.7711,0c-.3337.0041-.45.1319-.455.468-.003.1969,0,.3938-.0009.5908-.0022.3848-.0959.4773-.4824.4779-.0836,0-.1671,0-.281,0V7.4106h3.8148Zm10.202,2.47c-.1111-.0033-.2233-.0028-.3459-.0024l0-12.187c0-.0229.0024-.0477.0048-.0725a.5375.5375,0,0,0-.0606-.3672A.9287.9287,0,0,0,20.93,5.64a.5118.5118,0,0,0-.4175.0468.6141.6141,0,0,0-.2791.4077,1.898,1.898,0,0,0-.0287.4158l-.0014,12.0415c0,.04-.0014.0792-.0038.1193a1.4587,1.4587,0,0,0-1.1876.3753,1.4811,1.4811,0,0,0-.3454,1.13v.0062H5.3339c0-.0769,0-.1514-.0014-.2258A1.2182,1.2182,0,0,0,4.03,18.673c-.5725-.0029-1.1456-.0043-1.7181,0a1.2262,1.2262,0,0,0-1.3045,1.29q-.0065.8736,0,1.7478a1.2256,1.2256,0,0,0,1.28,1.2848c.5907.0038,1.1833.0038,1.774,0A1.2086,1.2086,0,0,0,5.332,21.74q.0028-.1254.0019-.25H18.6656c-.0015.11-.0015.2163.0043.3213a1.2184,1.2184,0,0,0,1.2253,1.1836q.4724.0049.9447.0057t.9447-.0062a1.183,1.183,0,0,0,1.1991-1.1459c.0214-.6918.0209-1.3783-.0015-2.041A1.1741,1.1741,0,0,0,21.8051,18.6744ZM4.017,21.7405c-.1961-.0038-.3931-.0019-.5887-.0019L3.17,21.74l-.001.2442.0005-.2442-.9-.0287c.0038-.5824.0043-1.1644-.0167-1.7751a.1889.1889,0,0,1,.0644-.0071h.0024q.8589.0035,1.7163,0l-.001-.2443h0l.0505.2891c-.001.572-.0015,1.1444.0081,1.7589A.1157.1157,0,0,1,4.017,21.7405Zm17.7294-.0668c0,.0544-.0109.0721-.0544.0663q-.41-.0021-.82-.0019-.4486,0-.8975.0019c-.0515.0134-.0615-.0066-.0462-.0386.0052-.5739.0062-1.1473,0-1.7207,0-.0248.0014-.0415,0-.0487.0114-.0019.0314-.001.0586-.0038.199.0028.3956.0033.5912.0014l.2558-.0005.2638.001c.1866,0,.3722.0019.5587-.0029l.0177,0a.3544.3544,0,0,1,.0649.0034.2543.2543,0,0,1,.0081.0792C21.7407,20.5641,21.7431,21.1184,21.7464,21.6737ZM2.2249,5.3249c.1045.0033.21.0023.3173.0019L2.5427,17.46l-.0005.0688a1.8573,1.8573,0,0,0,.0139.3051.5934.5934,0,0,0,.6088.5471c.0181,0,.0367-.0009.0558-.0019a.5942.5942,0,0,0,.5745-.5925A2.2536,2.2536,0,0,0,3.8,17.56L3.799,5.3244C5.0047,5.23,5.17,5.0632,5.3306,3.8142h13.335c-.0005.086-.0005.1695.0014.2521a1.2233,1.2233,0,0,0,1.2759,1.2586q.9018.007,1.8035-.0005a1.1952,1.1952,0,0,0,1.2415-1.196c.0158-.6254.0163-1.2728,0-1.9245a1.1929,1.1929,0,0,0-1.2367-1.2q-.9168-.0072-1.8313,0a1.2243,1.2243,0,0,0-1.2534,1.25c-.0019.0854-.0019.1709-.0014.2564H5.3339c0-.097,0-.191-.0023-.2851A1.2024,1.2024,0,0,0,4.0877,1.0036q-.9168-.0072-1.8313,0A1.2078,1.2078,0,0,0,1.0111,2.2019c-.0148.6283-.0148,1.2758,0,1.9241A1.21,1.21,0,0,0,2.2249,5.3249Zm17.706-2.1757,0-.2679c0-.2019,0-.4044.011-.6206l1.106-.001.6966.0325V3.4547l-.0329.614-1.7816-.0176q.0021-.3123.0009-.6255Zm-17.66.0148,0-.2531c.001-.2076.0014-.4153.0239-.6512h.4427l1.346.0186c.002.59.002,1.18-.0181,1.7895l-1.3269.0009L2.2693,4.04c.0033-.2072.0029-.4144.0019-.6221ZM17.39,18.9156a1.1518,1.1518,0,1,0-1.165-1.1562A1.1651,1.1651,0,0,0,17.39,18.9156Zm.0018-1.5287a.3806.3806,0,0,1,.37.3818.3845.3845,0,0,1-.3838.3691.3778.3778,0,0,1-.3812-.3971A.3735.3735,0,0,1,17.3916,17.3869Z" fill="url(#a)"/></svg>