<svg xmlns="http://www.w3.org/2000/svg" xmlns:xlink="http://www.w3.org/1999/xlink" viewBox="0 0 24 24"><defs><linearGradient id="a" x1="3.5229" y1="0.3362" x2="20.4765" y2="23.6708" gradientUnits="userSpaceOnUse"><stop offset="0" stop-color="#a425fe"/><stop offset="1" stop-color="#7a23b8"/></linearGradient></defs><title>Icon_copygenAI_new_gradient</title><path d="M23,3.0625v17.875c-.0144.0464-.0321.092-.0426.1392a2.3486,2.3486,0,0,1-1.632,1.819c-.1265.043-.2585.07-.3879.1043H3.0625a.5786.5786,0,0,0-.0967-.0376,2.3327,2.3327,0,0,1-1.8537-1.6169c-.0466-.1327-.0752-.2718-.1121-.408V3.0625a.8618.8618,0,0,0,.04-.1183A2.1947,2.1947,0,0,1,2.0457,1.417,6.3767,6.3767,0,0,1,3.0625,1h17.875a.5329.5329,0,0,0,.097.0374,2.1843,2.1843,0,0,1,1.5483,1.0084A6.3539,6.3539,0,0,1,23,3.0625ZM2.2891,7.4972v.2285q0,6.401,0,12.8018a1.0839,1.0839,0,0,0,1.19,1.1833q8.5167,0,17.0333,0a1.0871,1.0871,0,0,0,1.1987-1.1958q0-6.39,0-12.78V7.4972ZM21.7109,6.1907V6.0054c0-.8591.0017-1.7182,0-2.5773A1.0754,1.0754,0,0,0,20.5632,2.29q-8.559-.001-17.1178,0a1.0762,1.0762,0,0,0-1.156,1.1515q-.0021,1.2779,0,2.5558c0,.0622.0066.1243.01.194Zm-9.7127,9.033c.6586,0,1.3173-.0086,1.9756.002a1.93,1.93,0,0,1,.4481,3.7974,1.7322,1.7322,0,0,1-.4229.0622c-1.3314.0047-2.6629.0137-3.9941-.0008a1.9255,1.9255,0,0,1-.5686-3.7469,2.3659,2.3659,0,0,1,.6723-.11c.63-.0144,1.26-.005,1.89-.005Zm-.0143,2.577c.6291,0,1.2582.0016,1.8873,0a.6467.6467,0,1,0,0-1.2879q-1.866-.0023-3.7318,0a.6478.6478,0,1,0,0,1.2883C10.7542,17.802,11.3691,17.8008,11.9839,17.8007Zm6.2892-3.8671c.0644,0,.129.0023.1932-.0014a.6426.6426,0,0,0,.1089-1.272,1.2262,1.2262,0,0,0-.2561-.0151q-6.3229-.001-12.6461,0c-.0572,0-.1148-.0025-.1716.0028a.6563.6563,0,0,0-.5873.5649.6321.6321,0,0,0,.44.68,1.1622,1.1622,0,0,0,.3376.0392q3.1562.0033,6.3123.0016ZM8.1981,10.0652a.6528.6528,0,0,0-.6552.3936.6446.6446,0,0,0,.65.8959q2.4254.003,4.8507.0008,1.3843,0,2.7687.0006a.646.646,0,1,0,.0051-1.2888q-1.91-.004-3.82-.0009Q10.0975,10.0664,8.1981,10.0652Zm7.0237-5.8024a.6438.6438,0,1,0-.6358.6466A.6507.6507,0,0,0,15.2218,4.2628ZM17.8,4.2763a.6437.6437,0,1,0-.6492.6331A.651.651,0,0,0,17.8,4.2763Zm1.9386-.6546a.6439.6439,0,1,0,.64.6427A.651.651,0,0,0,19.7385,3.6217Z" fill="url(#a)"/></svg>